LXGWWenKaiMonoTC-Bold.ufo
<glyph name="exclam" format="2">
  <advance width="500" height="500"/>
  <unicode hex="0021"/>
  <outline>
    <contour>
      <point x="248" y="-15" type="qcurve" smooth="yes"/>
      <point x="224" y="-15"/>
      <point x="189" y="27"/>
      <point x="189" y="51" type="qcurve" smooth="yes"/>
      <point x="189" y="74"/>
      <point x="218" y="107"/>
      <point x="248" y="107" type="qcurve" smooth="yes"/>
      <point x="270" y="107"/>
      <point x="306" y="62"/>
      <point x="306" y="37" type="qcurve" smooth="yes"/>
      <point x="306" y="-15"/>
    </contour>
    <contour>
      <point x="260" y="159" type="qcurve" smooth="yes"/>
      <point x="246" y="159"/>
      <point x="212" y="173"/>
      <point x="212" y="188" type="qcurve" smooth="yes"/>
      <point x="214" y="208"/>
      <point x="214" y="227" type="qcurve" smooth="yes"/>
      <point x="208" y="636"/>
      <point x="203" y="695" type="qcurve"/>
      <point x="208" y="718"/>
      <point x="235" y="718" type="qcurve" smooth="yes"/>
      <point x="254" y="718"/>
      <point x="300" y="698"/>
      <point x="300" y="681" type="qcurve" smooth="yes"/>
      <point x="294" y="609" type="line"/>
      <point x="282" y="223"/>
      <point x="282" y="172" type="qcurve" smooth="yes"/>
      <point x="282" y="159"/>
    </contour>
  </outline>
</glyph>
<glyph name="quotedbl" format="2">
  <advance width="500" height="500"/>
  <unicode hex="0022"/>
  <outline>
    <contour>
      <point x="324" y="470" type="qcurve" smooth="yes"/>
      <point x="361" y="470"/>
      <point x="361" y="492" type="qcurve" smooth="yes"/>
      <point x="367" y="703" type="line" smooth="yes"/>
      <point x="367" y="718"/>
      <point x="339" y="731"/>
      <point x="324" y="731" type="qcurve" smooth="yes"/>
      <point x="310" y="731"/>
      <point x="281" y="718"/>
      <point x="281" y="703" type="qcurve" smooth="yes"/>
      <point x="287" y="492" type="line" smooth="yes"/>
      <point x="287" y="470"/>
    </contour>
    <contour>
      <point x="176" y="470" type="qcurve" smooth="yes"/>
      <point x="213" y="470"/>
      <point x="213" y="492" type="qcurve" smooth="yes"/>
      <point x="219" y="703" type="line" smooth="yes"/>
      <point x="219" y="718"/>
      <point x="191" y="731"/>
      <point x="176" y="731" type="qcurve" smooth="yes"/>
      <point x="162" y="731"/>
      <point x="133" y="718"/>
      <point x="133" y="703" type="qcurve" smooth="yes"/>
      <point x="139" y="492" type="line" smooth="yes"/>
      <point x="139" y="470"/>
    </contour>
  </outline>
</glyph>
<glyph name="dollar" format="2">
  <advance height="1000" width="500"/>
  <unicode hex="0024"/>
  <outline>
    <contour>
      <point x="271" y="-129" type="qcurve" smooth="yes"/>
      <point x="255" y="-129"/>
      <point x="217" y="-112"/>
      <point x="217" y="-98" type="qcurve" smooth="yes"/>
      <point x="219" y="-21" type="line"/>
      <point x="113" y="-16"/>
      <point x="34" y="89" type="qcurve" smooth="yes"/>
      <point x="27" y="97"/>
      <point x="27" y="108" type="qcurve" smooth="yes"/>
      <point x="27" y="126"/>
      <point x="53" y="165"/>
      <point x="69" y="165" type="qcurve" smooth="yes"/>
      <point x="84" y="165"/>
      <point x="88" y="154" type="qcurve" smooth="yes"/>
      <point x="142" y="65"/>
      <point x="219" y="54" type="qcurve"/>
      <point x="219" y="355" type="line"/>
      <point x="187" y="365" type="line" smooth="yes"/>
      <point x="51" y="407"/>
      <point x="51" y="526" type="qcurve" smooth="yes"/>
      <point x="51" y="617"/>
      <point x="132" y="679" type="qcurve" smooth="yes"/>
      <point x="171" y="708"/>
      <point x="218" y="714" type="qcurve"/>
      <point x="216" y="741"/>
      <point x="216" y="761" type="qcurve" smooth="yes"/>
      <point x="216" y="776"/>
      <point x="243" y="776" type="qcurve" smooth="yes"/>
      <point x="260" y="776"/>
      <point x="296" y="761"/>
      <point x="296" y="747" type="qcurve" smooth="yes"/>
      <point x="295" y="715" type="line"/>
      <point x="368" y="704"/>
      <point x="416" y="656" type="qcurve" smooth="yes"/>
      <point x="438" y="634"/>
      <point x="438" y="611" type="qcurve" smooth="yes"/>
      <point x="438" y="594"/>
      <point x="424" y="556"/>
      <point x="407" y="556" type="qcurve" smooth="yes"/>
      <point x="395" y="556"/>
      <point x="378" y="578" type="qcurve" smooth="yes"/>
      <point x="356" y="608"/>
      <point x="315" y="628" type="qcurve" smooth="yes"/>
      <point x="297" y="638"/>
      <point x="294" y="638" type="qcurve"/>
      <point x="294" y="410" type="line"/>
      <point x="472" y="363"/>
      <point x="472" y="192" type="qcurve" smooth="yes"/>
      <point x="472" y="112"/>
      <point x="381" y="-6"/>
      <point x="295" y="-19" type="qcurve"/>
      <point x="297" y="-115" type="line" smooth="yes"/>
      <point x="297" y="-129"/>
    </contour>
    <contour>
      <point x="294" y="59" type="line"/>
      <point x="354" y="74"/>
      <point x="378" y="130" type="qcurve" smooth="yes"/>
      <point x="391" y="158"/>
      <point x="391" y="184" type="qcurve" smooth="yes"/>
      <point x="391" y="303"/>
      <point x="294" y="332" type="qcurve"/>
    </contour>
    <contour>
      <point x="219" y="433" type="qcurve"/>
      <point x="219" y="638" type="line"/>
      <point x="182" y="630"/>
      <point x="132" y="564"/>
      <point x="132" y="524" type="qcurve" smooth="yes"/>
      <point x="132" y="486"/>
      <point x="169" y="447"/>
    </contour>
  </outline>
</glyph>
<glyph name="percent" format="2">
  <advance height="1000" width="500"/>
  <unicode hex="0025"/>
  <outline>
    <contour>
      <point x="138" y="-37" type="qcurve" smooth="yes"/>
      <point x="121" y="-37"/>
      <point x="92" y="-7"/>
      <point x="92" y="9" type="qcurve" smooth="yes"/>
      <point x="92" y="15"/>
      <point x="119" y="80" type="qcurve"/>
      <point x="316" y="651" type="line" smooth="yes"/>
      <point x="326" y="679"/>
      <point x="338" y="729" type="qcurve" smooth="yes"/>
      <point x="342" y="745"/>
      <point x="359" y="745" type="qcurve" smooth="yes"/>
      <point x="371" y="745"/>
      <point x="393" y="728"/>
      <point x="408" y="708"/>
      <point x="408" y="698" type="qcurve" smooth="yes"/>
      <point x="361" y="568"/>
      <point x="183" y="55" type="qcurve" smooth="yes"/>
      <point x="171" y="20"/>
      <point x="160" y="-20" type="qcurve" smooth="yes"/>
      <point x="155" y="-37"/>
    </contour>
    <contour>
      <point x="368" y="-30" type="qcurve" smooth="yes"/>
      <point x="310" y="-30"/>
      <point x="257" y="73"/>
      <point x="257" y="152" type="qcurve" smooth="yes"/>
      <point x="257" y="245"/>
      <point x="295" y="297" type="qcurve" smooth="yes"/>
      <point x="303" y="309"/>
      <point x="315" y="309" type="qcurve" smooth="yes"/>
      <point x="322" y="309"/>
      <point x="322" y="311" type="qcurve" smooth="yes"/>
      <point x="321" y="312" type="line"/>
      <point x="339" y="336"/>
      <point x="370" y="336" type="qcurve" smooth="yes"/>
      <point x="439" y="336"/>
      <point x="464" y="243" type="qcurve" smooth="yes"/>
      <point x="475" y="202"/>
      <point x="475" y="152" type="qcurve" smooth="yes"/>
      <point x="475" y="105"/>
      <point x="453" y="23"/>
      <point x="405" y="-30"/>
    </contour>
    <contour>
      <point x="366" y="37" type="qcurve" smooth="yes"/>
      <point x="409" y="37"/>
      <point x="409" y="156" type="qcurve" smooth="yes"/>
      <point x="409" y="203"/>
      <point x="387" y="269"/>
      <point x="368" y="269" type="qcurve" smooth="yes"/>
      <point x="354" y="269"/>
      <point x="325" y="216"/>
      <point x="325" y="152" type="qcurve" smooth="yes"/>
      <point x="325" y="121"/>
      <point x="334" y="68"/>
      <point x="353" y="37"/>
    </contour>
    <contour>
      <point x="140" y="361" type="qcurve" smooth="yes"/>
      <point x="83" y="361"/>
      <point x="29" y="464"/>
      <point x="29" y="543" type="qcurve" smooth="yes"/>
      <point x="29" y="636"/>
      <point x="67" y="688" type="qcurve" smooth="yes"/>
      <point x="74" y="700"/>
      <point x="86" y="700" type="qcurve" smooth="yes"/>
      <point x="93" y="700"/>
      <point x="93" y="702" type="qcurve" smooth="yes"/>
      <point x="93" y="703" type="line"/>
      <point x="110" y="727"/>
      <point x="142" y="727" type="qcurve" smooth="yes"/>
      <point x="178" y="727"/>
      <point x="224" y="676"/>
      <point x="247" y="593"/>
      <point x="247" y="543" type="qcurve" smooth="yes"/>
      <point x="247" y="496"/>
      <point x="225" y="414"/>
      <point x="178" y="361"/>
    </contour>
    <contour>
      <point x="139" y="428" type="qcurve" smooth="yes"/>
      <point x="180" y="428"/>
      <point x="180" y="547" type="qcurve" smooth="yes"/>
      <point x="180" y="594"/>
      <point x="159" y="660"/>
      <point x="140" y="660" type="qcurve" smooth="yes"/>
      <point x="127" y="660"/>
      <point x="96" y="604"/>
      <point x="96" y="543" type="qcurve" smooth="yes"/>
      <point x="96" y="428"/>
    </contour>
  </outline>
</glyph>
<glyph name="ampersand" format="2">
  <advance height="1000" width="500"/>
  <unicode hex="0026"/>
  <outline>
    <contour>
      <point x="182" y="-23" type="qcurve" smooth="yes"/>
      <point x="107" y="-23"/>
      <point x="30" y="79"/>
      <point x="30" y="153" type="qcurve" smooth="yes"/>
      <point x="30" y="306"/>
      <point x="129" y="399" type="qcurve"/>
      <point x="89" y="495"/>
      <point x="89" y="557" type="qcurve" smooth="yes"/>
      <point x="89" y="626"/>
      <point x="161" y="717"/>
      <point x="218" y="717" type="qcurve" smooth="yes"/>
      <point x="271" y="717"/>
      <point x="339" y="649"/>
      <point x="339" y="587" type="qcurve" smooth="yes"/>
      <point x="339" y="547"/>
      <point x="303" y="473"/>
      <point x="245" y="409"/>
      <point x="216" y="382" type="qcurve"/>
      <point x="270" y="275"/>
      <point x="323" y="195" type="qcurve"/>
      <point x="358" y="274"/>
      <point x="371" y="361" type="qcurve" smooth="yes"/>
      <point x="376" y="399"/>
      <point x="403" y="399" type="qcurve" smooth="yes"/>
      <point x="411" y="399"/>
      <point x="433" y="389"/>
      <point x="450" y="373"/>
      <point x="450" y="362" type="qcurve" smooth="yes"/>
      <point x="450" y="355"/>
      <point x="444" y="328" type="qcurve" smooth="yes"/>
      <point x="423" y="231"/>
      <point x="369" y="125" type="qcurve"/>
      <point x="419" y="46"/>
      <point x="495" y="7"/>
      <point x="495" y="-8" type="qcurve" smooth="yes"/>
      <point x="495" y="-22"/>
      <point x="464" y="-22" type="qcurve" smooth="yes"/>
      <point x="380" y="-22"/>
      <point x="327" y="58" type="qcurve"/>
      <point x="270" y="-23"/>
    </contour>
    <contour>
      <point x="180" y="48" type="qcurve" smooth="yes"/>
      <point x="239" y="48"/>
      <point x="285" y="123" type="qcurve"/>
      <point x="201" y="253"/>
      <point x="161" y="330" type="qcurve"/>
      <point x="103" y="267"/>
      <point x="103" y="155" type="qcurve" smooth="yes"/>
      <point x="103" y="110"/>
      <point x="143" y="48"/>
    </contour>
    <contour>
      <point x="187" y="449" type="qcurve"/>
      <point x="264" y="516"/>
      <point x="264" y="583" type="qcurve" smooth="yes"/>
      <point x="264" y="622"/>
      <point x="240" y="646"/>
      <point x="218" y="646" type="qcurve" smooth="yes"/>
      <point x="197" y="646"/>
      <point x="165" y="603"/>
      <point x="165" y="556" type="qcurve" smooth="yes"/>
      <point x="165" y="511"/>
    </contour>
  </outline>
</glyph>
<glyph name="quotesingle" format="2">
  <advance width="500" height="500"/>
  <unicode hex="0027"/>
  <outline>
    <contour>
      <point x="250" y="470" type="qcurve" smooth="yes"/>
      <point x="287" y="470"/>
      <point x="287" y="492" type="qcurve" smooth="yes"/>
      <point x="293" y="703" type="line" smooth="yes"/>
      <point x="293" y="731"/>
      <point x="250" y="731" type="qcurve" smooth="yes"/>
      <point x="236" y="731"/>
      <point x="207" y="718"/>
      <point x="207" y="703" type="qcurve" smooth="yes"/>
      <point x="213" y="492" type="line" smooth="yes"/>
      <point x="216" y="470"/>
    </contour>
  </outline>
</glyph>
<glyph name="asterisk" format="2">
  <advance height="500" width="500"/>
  <unicode hex="002A"/>
  <outline>
    <contour>
      <point x="253" y="61" type="qcurve" smooth="yes"/>
      <point x="269" y="61"/>
      <point x="299" y="80"/>
      <point x="299" y="97" type="qcurve" smooth="yes"/>
      <point x="293" y="294" type="line"/>
      <point x="341" y="252" type="line" smooth="yes"/>
      <point x="356" y="241"/>
      <point x="376" y="224" type="qcurve" smooth="yes"/>
      <point x="416" y="185"/>
      <point x="425" y="185" type="qcurve" smooth="yes"/>
      <point x="442" y="185"/>
      <point x="462" y="227"/>
      <point x="462" y="246" type="qcurve" smooth="yes"/>
      <point x="462" y="263"/>
      <point x="453" y="272" type="qcurve" smooth="yes"/>
      <point x="432" y="287"/>
      <point x="392" y="315"/>
      <point x="320" y="369" type="qcurve"/>
      <point x="410" y="436"/>
      <point x="453" y="466" type="qcurve" smooth="yes"/>
      <point x="465" y="475"/>
      <point x="465" y="490" type="qcurve" smooth="yes"/>
      <point x="465" y="508"/>
      <point x="441" y="550"/>
      <point x="424" y="550" type="qcurve" smooth="yes"/>
      <point x="411" y="550"/>
      <point x="370" y="510" type="qcurve" smooth="yes"/>
      <point x="347" y="489"/>
      <point x="294" y="444" type="qcurve"/>
      <point x="299" y="643" type="line" smooth="yes"/>
      <point x="299" y="676"/>
      <point x="260" y="676" type="qcurve" smooth="yes"/>
      <point x="243" y="676"/>
      <point x="213" y="657"/>
      <point x="213" y="640" type="qcurve" smooth="yes"/>
      <point x="213" y="624"/>
      <point x="217" y="563" type="qcurve" smooth="yes"/>
      <point x="219" y="444" type="line"/>
      <point x="102" y="546" type="line" smooth="yes"/>
      <point x="95" y="553"/>
      <point x="86" y="553" type="qcurve" smooth="yes"/>
      <point x="70" y="553"/>
      <point x="49" y="512"/>
      <point x="49" y="493" type="qcurve" smooth="yes"/>
      <point x="49" y="476"/>
      <point x="60" y="466" type="qcurve" smooth="yes"/>
      <point x="195" y="369" type="line"/>
      <point x="56" y="271" type="line" smooth="yes"/>
      <point x="46" y="264"/>
      <point x="46" y="248" type="qcurve" smooth="yes"/>
      <point x="46" y="231"/>
      <point x="69" y="189"/>
      <point x="87" y="189" type="qcurve" smooth="yes"/>
      <point x="99" y="189"/>
      <point x="132" y="220" type="qcurve" smooth="yes"/>
      <point x="146" y="233"/>
      <point x="218" y="294" type="qcurve"/>
      <point x="215" y="147"/>
      <point x="212" y="94" type="qcurve" smooth="yes"/>
      <point x="212" y="78"/>
      <point x="237" y="61"/>
    </contour>
  </outline>
</glyph>
<glyph name="comma" format="2">
  <advance height="1000" width="500"/>
  <unicode hex="002C"/>
  <outline>
    <contour>
      <point x="179" y="-131" type="qcurve" smooth="yes"/>
      <point x="156" y="-131"/>
      <point x="156" y="-108" type="qcurve" smooth="yes"/>
      <point x="156" y="-91"/>
      <point x="167" y="-86" type="qcurve" smooth="yes"/>
      <point x="187" y="-72"/>
      <point x="224" y="-27"/>
      <point x="230" y="-13" type="qcurve"/>
      <point x="209" y="-4" type="line"/>
      <point x="175" y="25"/>
      <point x="175" y="61" type="qcurve" smooth="yes"/>
      <point x="175" y="93"/>
      <point x="221" y="129"/>
      <point x="251" y="129" type="qcurve" smooth="yes"/>
      <point x="280" y="129"/>
      <point x="320" y="81"/>
      <point x="324" y="46" type="qcurve"/>
      <point x="324" y="6"/>
      <point x="307" y="-24" type="qcurve" smooth="yes"/>
      <point x="272" y="-85"/>
      <point x="220" y="-116" type="qcurve" smooth="yes"/>
      <point x="195" y="-131"/>
    </contour>
  </outline>
</glyph>
<glyph name="slash" format="2">
  <advance width="500" height="500"/>
  <unicode hex="002F"/>
  <outline>
    <contour>
      <point x="85" y="-77" type="qcurve" smooth="yes"/>
      <point x="100" y="-77"/>
      <point x="104" y="-64" type="qcurve" smooth="yes"/>
      <point x="115" y="-33"/>
      <point x="130" y="1" type="qcurve" smooth="yes"/>
      <point x="430" y="673" type="line" smooth="yes"/>
      <point x="444" y="704"/>
      <point x="466" y="740" type="qcurve" smooth="yes"/>
      <point x="468" y="742"/>
      <point x="468" y="747" type="qcurve" smooth="yes"/>
      <point x="468" y="756"/>
      <point x="454" y="778"/>
      <point x="431" y="796"/>
      <point x="420" y="796" type="qcurve" smooth="yes"/>
      <point x="403" y="796"/>
      <point x="399" y="781" type="qcurve" smooth="yes"/>
      <point x="367" y="704" type="line"/>
      <point x="70" y="34" type="line" smooth="yes"/>
      <point x="58" y="8"/>
      <point x="43" y="-17" type="qcurve" smooth="yes"/>
      <point x="40" y="-22"/>
      <point x="40" y="-29" type="qcurve" smooth="yes"/>
      <point x="40" y="-43"/>
      <point x="69" y="-77"/>
    </contour>
  </outline>
</glyph>
<glyph name="one" format="2">
  <advance height="1000" width="500"/>
  <unicode hex="0031"/>
  <outline>
    <contour>
      <point x="97" y="-12" type="qcurve" smooth="yes"/>
      <point x="77" y="-12"/>
      <point x="57" y="30"/>
      <point x="57" y="45" type="qcurve" smooth="yes"/>
      <point x="57" y="69"/>
      <point x="78" y="69" type="qcurve" smooth="yes"/>
      <point x="118" y="68" type="line"/>
      <point x="212" y="69" type="line"/>
      <point x="214" y="157"/>
      <point x="214" y="598" type="qcurve"/>
      <point x="181" y="578"/>
      <point x="117" y="536"/>
      <point x="105" y="536" type="qcurve" smooth="yes"/>
      <point x="88" y="536"/>
      <point x="64" y="571"/>
      <point x="64" y="585" type="qcurve" smooth="yes"/>
      <point x="64" y="600"/>
      <point x="75" y="605" type="qcurve" smooth="yes"/>
      <point x="204" y="679" type="line" smooth="yes"/>
      <point x="208" y="682"/>
      <point x="221" y="699"/>
      <point x="240" y="716"/>
      <point x="250" y="716" type="qcurve" smooth="yes"/>
      <point x="265" y="716"/>
      <point x="303" y="688"/>
      <point x="303" y="671" type="qcurve" smooth="yes"/>
      <point x="303" y="659"/>
      <point x="298" y="623"/>
      <point x="298" y="600" type="qcurve" smooth="yes"/>
      <point x="298" y="128"/>
      <point x="299" y="107" type="qcurve" smooth="yes"/>
      <point x="299" y="69" type="line"/>
      <point x="407" y="71" type="line" smooth="yes"/>
      <point x="426" y="71"/>
      <point x="445" y="27"/>
      <point x="445" y="12" type="qcurve" smooth="yes"/>
      <point x="445" y="-11"/>
      <point x="425" y="-11" type="qcurve" smooth="yes"/>
      <point x="390" y="-5"/>
      <point x="304" y="-5" type="qcurve" smooth="yes"/>
      <point x="162" y="-5"/>
    </contour>
  </outline>
</glyph>
<glyph name="two" format="2">
  <advance height="1000" width="500"/>
  <unicode hex="0032"/>
  <outline>
    <contour>
      <point x="74" y="-10" type="line" smooth="yes"/>
      <point x="53" y="-10"/>
      <point x="28" y="27"/>
      <point x="28" y="44" type="qcurve" smooth="yes"/>
      <point x="28" y="53"/>
      <point x="37" y="70"/>
      <point x="48" y="83"/>
      <point x="52" y="90" type="qcurve" smooth="yes"/>
      <point x="111" y="203"/>
      <point x="264" y="347" type="qcurve" smooth="yes"/>
      <point x="381" y="452"/>
      <point x="381" y="547" type="qcurve" smooth="yes"/>
      <point x="381" y="590"/>
      <point x="332" y="643"/>
      <point x="281" y="643" type="qcurve" smooth="yes"/>
      <point x="180" y="643"/>
      <point x="148" y="550" type="qcurve" smooth="yes"/>
      <point x="137" y="519"/>
      <point x="109" y="519" type="qcurve" smooth="yes"/>
      <point x="95" y="519"/>
      <point x="75" y="540"/>
      <point x="65" y="563"/>
      <point x="65" y="570" type="qcurve" smooth="yes"/>
      <point x="65" y="582"/>
      <point x="78" y="606" type="qcurve" smooth="yes"/>
      <point x="104" y="659"/>
      <point x="185" y="700" type="qcurve" smooth="yes"/>
      <point x="226" y="719"/>
      <point x="282" y="719" type="qcurve" smooth="yes"/>
      <point x="368" y="719"/>
      <point x="466" y="623"/>
      <point x="466" y="547" type="qcurve" smooth="yes"/>
      <point x="466" y="427"/>
      <point x="318" y="294" type="qcurve" smooth="yes"/>
      <point x="186" y="174"/>
      <point x="129" y="71" type="qcurve"/>
      <point x="165" y="75"/>
      <point x="273" y="75" type="qcurve" smooth="yes"/>
      <point x="381" y="74" type="line"/>
      <point x="440" y="75" type="line" smooth="yes"/>
      <point x="458" y="75"/>
      <point x="480" y="34"/>
      <point x="480" y="17" type="qcurve" smooth="yes"/>
      <point x="480" y="-7"/>
      <point x="457" y="-7" type="qcurve" smooth="yes"/>
      <point x="447" y="-7"/>
      <point x="426" y="-4" type="qcurve" smooth="yes"/>
      <point x="390" y="1"/>
      <point x="317" y="1" type="qcurve" smooth="yes"/>
      <point x="173" y="1"/>
      <point x="133" y="-2" type="qcurve" smooth="yes"/>
      <point x="109" y="-4"/>
      <point x="79" y="-10" type="qcurve"/>
    </contour>
  </outline>
</glyph>
<glyph name="seven" format="2">
  <advance height="1000" width="500"/>
  <unicode hex="0037"/>
  <outline>
    <contour>
      <point x="185" y="-17" type="qcurve" smooth="yes"/>
      <point x="133" y="-17"/>
      <point x="133" y="15" type="qcurve" smooth="yes"/>
      <point x="133" y="47"/>
      <point x="231" y="296" type="qcurve" smooth="yes"/>
      <point x="312" y="505"/>
      <point x="367" y="628" type="qcurve"/>
      <point x="125" y="604"/>
      <point x="97" y="600" type="qcurve"/>
      <point x="59" y="600"/>
      <point x="47" y="647" type="qcurve" smooth="yes"/>
      <point x="42" y="665" type="line"/>
      <point x="42" y="680"/>
      <point x="57" y="680" type="qcurve" smooth="yes"/>
      <point x="65" y="680"/>
      <point x="79" y="678"/>
      <point x="89" y="678" type="qcurve" smooth="yes"/>
      <point x="377" y="701" type="line" smooth="yes"/>
      <point x="387" y="702"/>
      <point x="406" y="708"/>
      <point x="420" y="708" type="qcurve" smooth="yes"/>
      <point x="437" y="705"/>
      <point x="468" y="673"/>
      <point x="468" y="654" type="qcurve"/>
      <point x="453" y="621" type="line" smooth="yes"/>
      <point x="443" y="605"/>
      <point x="423" y="559" type="qcurve" smooth="yes"/>
      <point x="288" y="268"/>
      <point x="220" y="4" type="qcurve" smooth="yes"/>
      <point x="216" y="-17"/>
    </contour>
  </outline>
</glyph>
<glyph name="eight" format="2">
  <advance height="1000" width="500"/>
  <unicode hex="0038"/>
  <outline>
    <contour>
      <point x="235" y="-23" type="qcurve" smooth="yes"/>
      <point x="171" y="-23"/>
      <point x="76" y="30"/>
      <point x="26" y="120"/>
      <point x="26" y="173" type="qcurve" smooth="yes"/>
      <point x="26" y="289"/>
      <point x="168" y="391" type="qcurve"/>
      <point x="57" y="454"/>
      <point x="57" y="545" type="qcurve" smooth="yes"/>
      <point x="57" y="636"/>
      <point x="148" y="694" type="qcurve" smooth="yes"/>
      <point x="193" y="718"/>
      <point x="254" y="718" type="qcurve" smooth="yes"/>
      <point x="337" y="718"/>
      <point x="390" y="666" type="qcurve" smooth="yes"/>
      <point x="432" y="624"/>
      <point x="435" y="600" type="qcurve"/>
      <point x="445" y="606"/>
      <point x="450" y="606" type="qcurve" smooth="yes"/>
      <point x="473" y="606"/>
      <point x="473" y="584" type="qcurve" smooth="yes"/>
      <point x="473" y="571"/>
      <point x="452" y="546" type="qcurve" smooth="yes"/>
      <point x="382" y="466"/>
      <point x="299" y="401" type="qcurve"/>
      <point x="381" y="364"/>
      <point x="423" y="314" type="qcurve" smooth="yes"/>
      <point x="465" y="262"/>
      <point x="465" y="182" type="qcurve" smooth="yes"/>
      <point x="465" y="88"/>
      <point x="344" y="-23"/>
    </contour>
    <contour>
      <point x="235" y="52" type="qcurve" smooth="yes"/>
      <point x="304" y="52"/>
      <point x="383" y="117"/>
      <point x="383" y="179" type="qcurve" smooth="yes"/>
      <point x="383" y="227"/>
      <point x="351" y="287"/>
      <point x="286" y="331"/>
      <point x="239" y="353" type="qcurve"/>
      <point x="177" y="307"/>
      <point x="108" y="225"/>
      <point x="108" y="176" type="qcurve" smooth="yes"/>
      <point x="108" y="144"/>
      <point x="135" y="87"/>
      <point x="191" y="52"/>
    </contour>
    <contour>
      <point x="229" y="435" type="qcurve"/>
      <point x="292" y="480"/>
      <point x="385" y="559" type="qcurve"/>
      <point x="374" y="563"/>
      <point x="366" y="576" type="qcurve" smooth="yes"/>
      <point x="327" y="647"/>
      <point x="255" y="647" type="qcurve" smooth="yes"/>
      <point x="201" y="647"/>
      <point x="138" y="586"/>
      <point x="138" y="544" type="qcurve" smooth="yes"/>
      <point x="138" y="508"/>
      <point x="184" y="458"/>
    </contour>
  </outline>
</glyph>
<glyph name="colon" format="2">
  <advance width="500" height="500"/>
  <unicode hex="003A"/>
  <outline>
    <contour>
      <point x="249" y="83" type="qcurve" smooth="yes"/>
      <point x="221" y="83"/>
      <point x="180" y="136"/>
      <point x="180" y="161" type="qcurve" smooth="yes"/>
      <point x="180" y="193"/>
      <point x="219" y="225"/>
      <point x="249" y="225" type="qcurve" smooth="yes"/>
      <point x="275" y="225"/>
      <point x="318" y="172"/>
      <point x="318" y="144" type="qcurve" smooth="yes"/>
      <point x="318" y="83"/>
    </contour>
    <contour>
      <point x="249" y="454" type="qcurve" smooth="yes"/>
      <point x="221" y="454"/>
      <point x="180" y="507"/>
      <point x="180" y="532" type="qcurve" smooth="yes"/>
      <point x="180" y="564"/>
      <point x="219" y="596"/>
      <point x="249" y="596" type="qcurve" smooth="yes"/>
      <point x="275" y="596"/>
      <point x="318" y="543"/>
      <point x="318" y="515" type="qcurve" smooth="yes"/>
      <point x="318" y="454"/>
    </contour>
  </outline>
</glyph>
<glyph name="equal" format="2">
  <advance height="1000" width="500"/>
  <unicode hex="003D"/>
  <outline>
    <contour>
      <point x="80" y="396" type="qcurve" smooth="yes"/>
      <point x="51" y="396"/>
      <point x="51" y="441" type="qcurve" smooth="yes"/>
      <point x="51" y="471"/>
      <point x="75" y="471" type="qcurve" smooth="yes"/>
      <point x="105" y="469"/>
      <point x="253" y="469" type="qcurve" smooth="yes"/>
      <point x="383" y="469"/>
      <point x="421" y="472" type="qcurve" smooth="yes"/>
      <point x="451" y="472"/>
      <point x="451" y="426" type="qcurve" smooth="yes"/>
      <point x="451" y="397"/>
      <point x="429" y="397" type="qcurve" smooth="yes"/>
      <point x="409" y="397"/>
      <point x="371" y="399"/>
      <point x="252" y="399" type="qcurve" smooth="yes"/>
      <point x="97" y="399"/>
    </contour>
    <contour>
      <point x="80" y="208" type="qcurve" smooth="yes"/>
      <point x="51" y="208"/>
      <point x="51" y="253" type="qcurve" smooth="yes"/>
      <point x="51" y="283"/>
      <point x="75" y="283" type="qcurve" smooth="yes"/>
      <point x="105" y="281"/>
      <point x="253" y="281" type="qcurve" smooth="yes"/>
      <point x="383" y="281"/>
      <point x="421" y="284" type="qcurve" smooth="yes"/>
      <point x="451" y="284"/>
      <point x="451" y="238" type="qcurve" smooth="yes"/>
      <point x="451" y="209"/>
      <point x="429" y="209" type="qcurve" smooth="yes"/>
      <point x="409" y="209"/>
      <point x="371" y="211"/>
      <point x="252" y="211" type="qcurve" smooth="yes"/>
      <point x="97" y="211"/>
    </contour>
  </outline>
</glyph>
<glyph name="greater" format="2">
  <advance height="1000" width="500"/>
  <unicode hex="003E"/>
  <outline>
    <contour>
      <point x="78" y="80" type="qcurve" smooth="yes"/>
      <point x="62" y="80"/>
      <point x="48" y="116"/>
      <point x="48" y="133" type="qcurve" smooth="yes"/>
      <point x="48" y="156"/>
      <point x="59" y="162" type="qcurve" smooth="yes"/>
      <point x="117" y="198" type="line"/>
      <point x="264" y="296"/>
      <point x="351" y="342" type="qcurve"/>
      <point x="216" y="418"/>
      <point x="120" y="480" type="qcurve" smooth="yes"/>
      <point x="78" y="509"/>
      <point x="64" y="516" type="qcurve" smooth="yes"/>
      <point x="52" y="525"/>
      <point x="52" y="551" type="qcurve" smooth="yes"/>
      <point x="52" y="600"/>
      <point x="78" y="600" type="qcurve" smooth="yes"/>
      <point x="85" y="600"/>
      <point x="92" y="595" type="qcurve" smooth="yes"/>
      <point x="169" y="531"/>
      <point x="260" y="475" type="qcurve" smooth="yes"/>
      <point x="388" y="395"/>
      <point x="399" y="393" type="qcurve" smooth="yes"/>
      <point x="425" y="388"/>
      <point x="433" y="360" type="qcurve" smooth="yes"/>
      <point x="438" y="344"/>
      <point x="438" y="329" type="qcurve" smooth="yes"/>
      <point x="438" y="318"/>
      <point x="431" y="302"/>
      <point x="397" y="289"/>
      <point x="359" y="267" type="qcurve" smooth="yes"/>
      <point x="176" y="157"/>
      <point x="92" y="85" type="qcurve" smooth="yes"/>
      <point x="85" y="80"/>
    </contour>
  </outline>
</glyph>
<glyph name="question" format="2">
  <advance height="1000" width="500"/>
  <unicode hex="003F"/>
  <outline>
    <contour>
      <point x="250" y="162" type="qcurve" smooth="yes"/>
      <point x="210" y="162"/>
      <point x="197" y="200"/>
      <point x="197" y="224" type="qcurve" smooth="yes"/>
      <point x="197" y="337"/>
      <point x="271" y="398" type="qcurve"/>
      <point x="285" y="411" type="line" smooth="yes"/>
      <point x="329" y="449"/>
      <point x="359" y="498" type="qcurve" smooth="yes"/>
      <point x="374" y="527"/>
      <point x="374" y="568" type="qcurve" smooth="yes"/>
      <point x="374" y="603"/>
      <point x="336" y="648"/>
      <point x="299" y="648" type="qcurve" smooth="yes"/>
      <point x="168" y="648"/>
      <point x="127" y="518" type="qcurve" smooth="yes"/>
      <point x="122" y="500"/>
      <point x="102" y="500" type="qcurve" smooth="yes"/>
      <point x="84" y="500"/>
      <point x="51" y="531"/>
      <point x="51" y="548" type="qcurve" smooth="yes"/>
      <point x="51" y="555"/>
      <point x="53" y="559" type="qcurve" smooth="yes"/>
      <point x="96" y="643"/>
      <point x="216" y="719"/>
      <point x="298" y="719" type="qcurve" smooth="yes"/>
      <point x="372" y="719"/>
      <point x="457" y="641"/>
      <point x="457" y="574" type="qcurve" smooth="yes"/>
      <point x="457" y="481"/>
      <point x="396" y="420" type="qcurve" smooth="yes"/>
      <point x="370" y="393"/>
      <point x="343" y="369" type="qcurve" smooth="yes"/>
      <point x="276" y="312"/>
      <point x="276" y="254" type="qcurve" smooth="yes"/>
      <point x="276" y="215"/>
      <point x="285" y="185" type="qcurve"/>
      <point x="285" y="162"/>
    </contour>
    <contour>
      <point x="241" y="-15" type="qcurve" smooth="yes"/>
      <point x="216" y="-15"/>
      <point x="184" y="28"/>
      <point x="184" y="51" type="qcurve" smooth="yes"/>
      <point x="184" y="73"/>
      <point x="211" y="107"/>
      <point x="241" y="107" type="qcurve" smooth="yes"/>
      <point x="263" y="107"/>
      <point x="296" y="61"/>
      <point x="296" y="37" type="qcurve" smooth="yes"/>
      <point x="296" y="-15"/>
    </contour>
  </outline>
</glyph>
<glyph name="F" format="2">
  <advance height="1000" width="500"/>
  <unicode hex="0046"/>
  <outline>
    <contour>
      <point x="124" y="-15" type="qcurve" smooth="yes"/>
      <point x="107" y="-15"/>
      <point x="68" y="3"/>
      <point x="68" y="19" type="qcurve" smooth="yes"/>
      <point x="69" y="81"/>
      <point x="69" y="342" type="qcurve"/>
      <point x="60" y="348"/>
      <point x="45" y="381"/>
      <point x="45" y="393" type="qcurve" smooth="yes"/>
      <point x="46" y="410"/>
      <point x="65" y="410" type="qcurve" smooth="yes"/>
      <point x="68" y="409"/>
      <point x="69" y="409" type="qcurve"/>
      <point x="69" y="649"/>
      <point x="68" y="662" type="qcurve" smooth="yes"/>
      <point x="66" y="675"/>
      <point x="66" y="685" type="qcurve" smooth="yes"/>
      <point x="66" y="705"/>
      <point x="86" y="705" type="qcurve" smooth="yes"/>
      <point x="103" y="705"/>
      <point x="137" y="692" type="qcurve"/>
      <point x="361" y="707"/>
      <point x="381" y="710" type="qcurve" smooth="yes"/>
      <point x="407" y="714"/>
      <point x="416" y="714" type="qcurve" smooth="yes"/>
      <point x="434" y="714"/>
      <point x="455" y="674"/>
      <point x="455" y="656" type="qcurve" smooth="yes"/>
      <point x="455" y="635"/>
      <point x="434" y="635" type="qcurve" smooth="yes"/>
      <point x="370" y="635" type="line" smooth="yes"/>
      <point x="358" y="635"/>
      <point x="149" y="621" type="qcurve"/>
      <point x="149" y="410" type="line"/>
      <point x="315" y="423"/>
      <point x="330" y="425" type="qcurve" smooth="yes"/>
      <point x="357" y="429"/>
      <point x="365" y="429" type="qcurve" smooth="yes"/>
      <point x="383" y="429"/>
      <point x="404" y="389"/>
      <point x="404" y="371" type="qcurve" smooth="yes"/>
      <point x="404" y="350"/>
      <point x="383" y="350" type="qcurve" smooth="yes"/>
      <point x="307" y="350"/>
      <point x="149" y="339" type="qcurve"/>
      <point x="149" y="149"/>
      <point x="151" y="1" type="qcurve" smooth="yes"/>
      <point x="151" y="-15"/>
    </contour>
  </outline>
</glyph>
<glyph name="Q" format="2">
  <advance height="1000" width="500"/>
  <unicode hex="0051"/>
  <outline>
    <contour>
      <point x="461" y="-72" type="line"/>
      <point x="430" y="-64"/>
      <point x="388" y="-31" type="qcurve" smooth="yes"/>
      <point x="366" y="-13"/>
      <point x="349" y="10" type="qcurve"/>
      <point x="310" y="-24"/>
      <point x="244" y="-24" type="qcurve" smooth="yes"/>
      <point x="170" y="-24"/>
      <point x="76" y="72"/>
      <point x="30" y="235"/>
      <point x="30" y="337" type="qcurve" smooth="yes"/>
      <point x="30" y="464"/>
      <point x="101" y="664"/>
      <point x="134" y="664" type="qcurve" smooth="yes"/>
      <point x="148" y="664"/>
      <point x="152" y="660" type="qcurve"/>
      <point x="194" y="719"/>
      <point x="271" y="719" type="qcurve" smooth="yes"/>
      <point x="336" y="719"/>
      <point x="426" y="625"/>
      <point x="471" y="464"/>
      <point x="471" y="363" type="qcurve" smooth="yes"/>
      <point x="471" y="172"/>
      <point x="401" y="66" type="qcurve"/>
      <point x="478" y="-36" type="line" smooth="yes"/>
      <point x="487" y="-44"/>
      <point x="487" y="-55" type="qcurve" smooth="yes"/>
      <point x="487" y="-72"/>
      <point x="466" y="-72" type="qcurve" smooth="yes"/>
    </contour>
    <contour>
      <point x="240" y="54" type="qcurve" smooth="yes"/>
      <point x="281" y="54"/>
      <point x="306" y="74" type="qcurve"/>
      <point x="251" y="156"/>
      <point x="244" y="163" type="qcurve" smooth="yes"/>
      <point x="228" y="180"/>
      <point x="228" y="188" type="qcurve" smooth="yes"/>
      <point x="228" y="201"/>
      <point x="261" y="217"/>
      <point x="278" y="217" type="qcurve" smooth="yes"/>
      <point x="295" y="217"/>
      <point x="312" y="201"/>
      <point x="344" y="154"/>
      <point x="355" y="137" type="qcurve"/>
      <point x="391" y="205"/>
      <point x="391" y="371" type="qcurve" smooth="yes"/>
      <point x="391" y="485"/>
      <point x="362" y="562" type="qcurve" smooth="yes"/>
      <point x="331" y="645"/>
      <point x="267" y="645" type="qcurve" smooth="yes"/>
      <point x="234" y="645"/>
      <point x="162" y="582"/>
      <point x="109" y="445"/>
      <point x="109" y="339" type="qcurve" smooth="yes"/>
      <point x="109" y="259"/>
      <point x="134" y="130"/>
      <point x="190" y="54"/>
    </contour>
  </outline>
</glyph>
<glyph name="X" format="2">
  <advance width="500" height="500"/>
  <unicode hex="0058"/>
  <outline>
    <contour>
      <point x="99" y="-16" type="qcurve" smooth="yes"/>
      <point x="125" y="-16"/>
      <point x="131" y="-1" type="qcurve" smooth="yes"/>
      <point x="141" y="20"/>
      <point x="155" y="54" type="qcurve" smooth="yes"/>
      <point x="161" y="71"/>
      <point x="252" y="260" type="qcurve"/>
      <point x="354" y="40"/>
      <point x="370" y="-1" type="qcurve" smooth="yes"/>
      <point x="378" y="-16"/>
      <point x="398" y="-16" type="qcurve" smooth="yes"/>
      <point x="418" y="-16"/>
      <point x="460" y="7"/>
      <point x="460" y="21" type="qcurve"/>
      <point x="458" y="27" type="line"/>
      <point x="421" y="82"/>
      <point x="402" y="121" type="qcurve" smooth="yes"/>
      <point x="296" y="352" type="line"/>
      <point x="408" y="583" type="line" smooth="yes"/>
      <point x="427" y="625"/>
      <point x="450" y="657" type="qcurve"/>
      <point x="452" y="665" type="line" smooth="yes"/>
      <point x="452" y="679"/>
      <point x="411" y="706"/>
      <point x="393" y="706" type="qcurve" smooth="yes"/>
      <point x="375" y="706"/>
      <point x="371" y="694" type="qcurve" smooth="yes"/>
      <point x="354" y="653"/>
      <point x="254" y="445" type="qcurve"/>
      <point x="153" y="664"/>
      <point x="139" y="700" type="qcurve" smooth="yes"/>
      <point x="135" y="713"/>
      <point x="112" y="713" type="qcurve" smooth="yes"/>
      <point x="95" y="713"/>
      <point x="54" y="693"/>
      <point x="54" y="679" type="qcurve" smooth="yes"/>
      <point x="54" y="675"/>
      <point x="57" y="669" type="qcurve" smooth="yes"/>
      <point x="84" y="627"/>
      <point x="210" y="353" type="qcurve"/>
      <point x="99" y="122" type="line" smooth="yes"/>
      <point x="85" y="94"/>
      <point x="43" y="27" type="qcurve" smooth="yes"/>
      <point x="40" y="22"/>
      <point x="40" y="17" type="qcurve" smooth="yes"/>
      <point x="40" y="3"/>
      <point x="81" y="-16"/>
    </contour>
  </outline>
</glyph>
<glyph name="Y" format="2">
  <advance height="1000" width="500"/>
  <unicode hex="0059"/>
  <outline>
    <contour>
      <point x="260" y="-15" type="qcurve" smooth="yes"/>
      <point x="243" y="-15"/>
      <point x="201" y="3"/>
      <point x="201" y="19" type="qcurve" smooth="yes"/>
      <point x="204" y="108"/>
      <point x="204" y="292" type="qcurve"/>
      <point x="81" y="593"/>
      <point x="24" y="668" type="qcurve" smooth="yes"/>
      <point x="19" y="675"/>
      <point x="19" y="679" type="qcurve" smooth="yes"/>
      <point x="19" y="693"/>
      <point x="59" y="707"/>
      <point x="76" y="707" type="qcurve" smooth="yes"/>
      <point x="101" y="707"/>
      <point x="107" y="697" type="qcurve" smooth="yes"/>
      <point x="140" y="630"/>
      <point x="245" y="381" type="qcurve"/>
      <point x="270" y="433"/>
      <point x="330" y="577" type="qcurve" smooth="yes"/>
      <point x="360" y="646"/>
      <point x="365" y="659" type="qcurve" smooth="yes"/>
      <point x="378" y="692"/>
      <point x="390" y="715"/>
      <point x="412" y="715" type="qcurve" smooth="yes"/>
      <point x="431" y="715"/>
      <point x="471" y="695"/>
      <point x="471" y="682" type="qcurve" smooth="yes"/>
      <point x="470" y="676" type="line"/>
      <point x="446" y="643"/>
      <point x="401" y="549" type="qcurve" smooth="yes"/>
      <point x="285" y="293" type="line"/>
      <point x="285" y="95"/>
      <point x="286" y="74" type="qcurve" smooth="yes"/>
      <point x="288" y="25"/>
      <point x="288" y="1" type="qcurve" smooth="yes"/>
      <point x="288" y="-15"/>
    </contour>
  </outline>
</glyph>
<glyph name="underscore" format="2">
  <advance height="500" width="500"/>
  <unicode hex="005F"/>
  <outline>
    <contour>
      <point x="471" y="-168" type="line" smooth="yes"/>
      <point x="497" y="-168"/>
      <point x="497" y="-132" type="qcurve" smooth="yes"/>
      <point x="497" y="-95"/>
      <point x="471" y="-95" type="qcurve" smooth="yes"/>
      <point x="30" y="-95" type="line" smooth="yes"/>
      <point x="4" y="-95"/>
      <point x="4" y="-132" type="qcurve" smooth="yes"/>
      <point x="4" y="-168"/>
      <point x="30" y="-168" type="qcurve" smooth="yes"/>
    </contour>
  </outline>
</glyph>
<glyph name="grave" format="2">
  <advance height="500" width="500"/>
  <unicode hex="0060"/>
  <outline>
    <contour>
      <point x="329" y="568" type="qcurve" smooth="yes"/>
      <point x="354" y="568"/>
      <point x="354" y="591" type="qcurve" smooth="yes"/>
      <point x="354" y="615"/>
      <point x="216" y="716" type="qcurve" smooth="yes"/>
      <point x="210" y="719"/>
      <point x="202" y="719" type="qcurve" smooth="yes"/>
      <point x="192" y="719"/>
      <point x="164" y="697"/>
      <point x="142" y="670"/>
      <point x="142" y="650"/>
      <point x="152" y="644" type="qcurve" smooth="yes"/>
      <point x="198" y="625"/>
      <point x="284" y="593"/>
      <point x="321" y="568"/>
    </contour>
  </outline>
</glyph>
<glyph name="g" format="2">
  <advance height="1000" width="500"/>
  <unicode hex="0067"/>
  <outline>
    <contour>
      <point x="225" y="-181" type="qcurve" smooth="yes"/>
      <point x="107" y="-181"/>
      <point x="55" y="-87" type="qcurve" smooth="yes"/>
      <point x="52" y="-81"/>
      <point x="52" y="-76" type="qcurve" smooth="yes"/>
      <point x="52" y="-60"/>
      <point x="84" y="-22"/>
      <point x="101" y="-22" type="qcurve" smooth="yes"/>
      <point x="118" y="-22"/>
      <point x="122" y="-37" type="qcurve" smooth="yes"/>
      <point x="137" y="-76"/>
      <point x="183" y="-108"/>
      <point x="225" y="-108" type="qcurve" smooth="yes"/>
      <point x="313" y="-108"/>
      <point x="358" y="-35" type="qcurve" smooth="yes"/>
      <point x="379" y="1"/>
      <point x="379" y="51" type="qcurve" smooth="yes"/>
      <point x="379" y="86" type="line"/>
      <point x="361" y="56"/>
      <point x="264" y="1"/>
      <point x="213" y="1" type="qcurve" smooth="yes"/>
      <point x="137" y="1"/>
      <point x="49" y="110"/>
      <point x="49" y="211" type="qcurve" smooth="yes"/>
      <point x="49" y="314"/>
      <point x="181" y="492"/>
      <point x="275" y="492" type="qcurve" smooth="yes"/>
      <point x="356" y="492"/>
      <point x="377" y="462" type="qcurve"/>
      <point x="377" y="475" type="line" smooth="yes"/>
      <point x="377" y="491"/>
      <point x="403" y="491" type="qcurve" smooth="yes"/>
      <point x="420" y="491"/>
      <point x="459" y="473"/>
      <point x="459" y="458" type="qcurve" smooth="yes"/>
      <point x="455" y="364"/>
      <point x="455" y="50" type="qcurve" smooth="yes"/>
      <point x="455" y="-94"/>
      <point x="341" y="-154" type="qcurve" smooth="yes"/>
      <point x="289" y="-181"/>
    </contour>
    <contour>
      <point x="213" y="73" type="qcurve" smooth="yes"/>
      <point x="243" y="73"/>
      <point x="276" y="90" type="qcurve" smooth="yes"/>
      <point x="356" y="130"/>
      <point x="375" y="226" type="qcurve" smooth="yes"/>
      <point x="380" y="257"/>
      <point x="380" y="361" type="qcurve" smooth="yes"/>
      <point x="382" y="365"/>
      <point x="382" y="367" type="qcurve" smooth="yes"/>
      <point x="382" y="373"/>
      <point x="360" y="373"/>
      <point x="352" y="382" type="qcurve" smooth="yes"/>
      <point x="324" y="421"/>
      <point x="275" y="421" type="qcurve" smooth="yes"/>
      <point x="215" y="421"/>
      <point x="128" y="289"/>
      <point x="128" y="212" type="qcurve" smooth="yes"/>
      <point x="128" y="134"/>
      <point x="172" y="73"/>
    </contour>
  </outline>
</glyph>
<glyph name="m" format="2">
  <advance height="1000" width="500"/>
  <unicode hex="006D"/>
  <outline>
    <contour>
      <point x="85" y="-17" type="qcurve" smooth="yes"/>
      <point x="68" y="-17"/>
      <point x="30" y="2"/>
      <point x="30" y="18" type="qcurve" smooth="yes"/>
      <point x="32" y="83" type="line"/>
      <point x="32" y="369"/>
      <point x="31" y="412"/>
      <point x="29" y="461"/>
      <point x="29" y="471" type="qcurve" smooth="yes"/>
      <point x="29" y="488"/>
      <point x="55" y="488" type="qcurve" smooth="yes"/>
      <point x="71" y="488"/>
      <point x="90" y="479" type="qcurve" smooth="yes"/>
      <point x="102" y="472"/>
      <point x="106" y="463" type="qcurve"/>
      <point x="106" y="462" type="line" smooth="yes"/>
      <point x="106" y="460"/>
      <point x="107" y="459" type="qcurve" smooth="yes"/>
      <point x="108" y="456"/>
      <point x="108" y="453" type="qcurve"/>
      <point x="108" y="459" type="line"/>
      <point x="112" y="460"/>
      <point x="127" y="476" type="qcurve" smooth="yes"/>
      <point x="143" y="493"/>
      <point x="179" y="493" type="qcurve" smooth="yes"/>
      <point x="218" y="493"/>
      <point x="265" y="438"/>
      <point x="265" y="435" type="qcurve"/>
      <point x="266" y="435"/>
      <point x="312" y="493"/>
      <point x="352" y="493" type="qcurve" smooth="yes"/>
      <point x="467" y="493"/>
      <point x="467" y="102"/>
      <point x="468" y="81" type="qcurve" smooth="yes"/>
      <point x="470" y="23"/>
      <point x="470" y="0" type="qcurve" smooth="yes"/>
      <point x="470" y="-17"/>
      <point x="443" y="-17" type="qcurve" smooth="yes"/>
      <point x="426" y="-17"/>
      <point x="388" y="2"/>
      <point x="388" y="18" type="qcurve" smooth="yes"/>
      <point x="390" y="82"/>
      <point x="390" y="293" type="qcurve" smooth="yes"/>
      <point x="390" y="350"/>
      <point x="373" y="415"/>
      <point x="348" y="415" type="qcurve" smooth="yes"/>
      <point x="329" y="415"/>
      <point x="293" y="331"/>
      <point x="288" y="262" type="qcurve" smooth="yes"/>
      <point x="287" y="228"/>
      <point x="287" y="142" type="qcurve" smooth="yes"/>
      <point x="290" y="0" type="line" smooth="yes"/>
      <point x="290" y="-17"/>
      <point x="263" y="-17" type="qcurve" smooth="yes"/>
      <point x="246" y="-17"/>
      <point x="209" y="2"/>
      <point x="209" y="18" type="qcurve" smooth="yes"/>
      <point x="211" y="82"/>
      <point x="211" y="293" type="qcurve" smooth="yes"/>
      <point x="211" y="415"/>
      <point x="172" y="415" type="qcurve" smooth="yes"/>
      <point x="148" y="415"/>
      <point x="129" y="354" type="qcurve" smooth="yes"/>
      <point x="109" y="299"/>
      <point x="109" y="215" type="qcurve" smooth="yes"/>
      <point x="109" y="165"/>
      <point x="112" y="0" type="qcurve" smooth="yes"/>
      <point x="112" y="-17"/>
    </contour>
    <contour>
      <point x="107" y="459" type="line"/>
      <point x="107" y="461"/>
      <point x="106" y="463" type="qcurve" smooth="yes"/>
      <point x="106" y="467"/>
      <point x="109" y="475" type="qcurve"/>
      <point x="108" y="459" type="line"/>
    </contour>
  </outline>
</glyph>
<glyph name="n" format="2">
  <advance height="1000" width="500"/>
  <unicode hex="006E"/>
  <outline>
    <contour>
      <point x="115" y="-17" type="qcurve" smooth="yes"/>
      <point x="98" y="-17"/>
      <point x="59" y="1"/>
      <point x="59" y="17" type="qcurve" smooth="yes"/>
      <point x="59" y="44"/>
      <point x="61" y="88" type="qcurve" smooth="yes"/>
      <point x="61" y="395" type="line" smooth="yes"/>
      <point x="58" y="458"/>
      <point x="58" y="471" type="qcurve" smooth="yes"/>
      <point x="58" y="487"/>
      <point x="84" y="487" type="qcurve" smooth="yes"/>
      <point x="101" y="487"/>
      <point x="140" y="469"/>
      <point x="140" y="453" type="qcurve" smooth="yes"/>
      <point x="139" y="411" type="line"/>
      <point x="151" y="432"/>
      <point x="247" y="491"/>
      <point x="300" y="491" type="qcurve" smooth="yes"/>
      <point x="387" y="491"/>
      <point x="419" y="424" type="qcurve" smooth="yes"/>
      <point x="442" y="375"/>
      <point x="442" y="297" type="qcurve" smooth="yes"/>
      <point x="442" y="99"/>
      <point x="443" y="78" type="qcurve" smooth="yes"/>
      <point x="445" y="33"/>
      <point x="445" y="-2" type="qcurve" smooth="yes"/>
      <point x="445" y="-17"/>
      <point x="419" y="-17" type="qcurve" smooth="yes"/>
      <point x="402" y="-17"/>
      <point x="363" y="1"/>
      <point x="363" y="17" type="qcurve" smooth="yes"/>
      <point x="364" y="25"/>
      <point x="364" y="64"/>
      <point x="365" y="84" type="qcurve" smooth="yes"/>
      <point x="365" y="293" type="line" smooth="yes"/>
      <point x="365" y="352"/>
      <point x="338" y="417"/>
      <point x="300" y="417" type="qcurve" smooth="yes"/>
      <point x="234" y="417"/>
      <point x="190" y="364" type="qcurve" smooth="yes"/>
      <point x="148" y="311"/>
      <point x="143" y="229" type="qcurve" smooth="yes"/>
      <point x="139" y="183"/>
      <point x="139" y="79" type="qcurve" smooth="yes"/>
      <point x="139" y="56"/>
      <point x="141" y="-2" type="qcurve" smooth="yes"/>
      <point x="141" y="-17"/>
    </contour>
  </outline>
</glyph>
<glyph name="u" format="2">
  <advance height="1000" width="500"/>
  <unicode hex="0075"/>
  <outline>
    <contour>
      <point x="205" y="-24" type="qcurve" smooth="yes"/>
      <point x="61" y="-24"/>
      <point x="61" y="171" type="qcurve" smooth="yes"/>
      <point x="61" y="371"/>
      <point x="58" y="474" type="qcurve" smooth="yes"/>
      <point x="60" y="490"/>
      <point x="85" y="490" type="qcurve" smooth="yes"/>
      <point x="102" y="490"/>
      <point x="142" y="472"/>
      <point x="142" y="456" type="qcurve" smooth="yes"/>
      <point x="140" y="340"/>
      <point x="140" y="175" type="qcurve" smooth="yes"/>
      <point x="140" y="118"/>
      <point x="175" y="48"/>
      <point x="205" y="48" type="qcurve" smooth="yes"/>
      <point x="238" y="48"/>
      <point x="307" y="110"/>
      <point x="357" y="226"/>
      <point x="361" y="301" type="qcurve" smooth="yes"/>
      <point x="362" y="318"/>
      <point x="362" y="475" type="qcurve" smooth="yes"/>
      <point x="362" y="491"/>
      <point x="390" y="491" type="qcurve" smooth="yes"/>
      <point x="407" y="491"/>
      <point x="446" y="474"/>
      <point x="446" y="458" type="qcurve" smooth="yes"/>
      <point x="436" y="382"/>
      <point x="436" y="237" type="qcurve" smooth="yes"/>
      <point x="436" y="98"/>
      <point x="470" y="36" type="qcurve"/>
      <point x="471" y="29" type="line" smooth="yes"/>
      <point x="471" y="17"/>
      <point x="443" y="-19"/>
      <point x="422" y="-19" type="qcurve" smooth="yes"/>
      <point x="393" y="-19"/>
      <point x="370" y="78"/>
      <point x="369" y="78" type="qcurve" smooth="yes"/>
      <point x="359" y="55"/>
      <point x="265" y="-24"/>
    </contour>
  </outline>
</glyph>
<glyph name="y" format="2">
  <advance height="500" width="500"/>
  <unicode hex="0079"/>
  <outline>
    <contour>
      <point x="137" y="-170" type="line" smooth="yes"/>
      <point x="176" y="-170"/>
      <point x="226" y="-127"/>
      <point x="245" y="-83" type="qcurve" smooth="yes"/>
      <point x="443" y="379"/>
      <point x="469" y="432" type="qcurve" smooth="yes"/>
      <point x="473" y="440"/>
      <point x="473" y="447" type="qcurve" smooth="yes"/>
      <point x="473" y="465"/>
      <point x="437" y="491"/>
      <point x="420" y="491" type="qcurve" smooth="yes"/>
      <point x="401" y="491"/>
      <point x="395" y="477" type="qcurve" smooth="yes"/>
      <point x="382" y="428"/>
      <point x="363" y="384" type="qcurve" smooth="yes"/>
      <point x="262" y="147" type="line"/>
      <point x="149" y="436"/>
      <point x="139" y="468" type="qcurve" smooth="yes"/>
      <point x="132" y="486"/>
      <point x="95" y="486" type="qcurve" smooth="yes"/>
      <point x="50" y="486"/>
      <point x="50" y="464" type="qcurve"/>
      <point x="52" y="457" type="line"/>
      <point x="70" y="423"/>
      <point x="220" y="46" type="qcurve"/>
      <point x="180" y="-45" type="line" smooth="yes"/>
      <point x="159" y="-95"/>
      <point x="134" y="-95" type="qcurve" smooth="yes"/>
      <point x="107" y="-95"/>
      <point x="92" y="-79" type="qcurve" smooth="yes"/>
      <point x="85" y="-69"/>
      <point x="72" y="-69" type="qcurve" smooth="yes"/>
      <point x="54" y="-69"/>
      <point x="34" y="-109"/>
      <point x="34" y="-124" type="qcurve" smooth="yes"/>
      <point x="34" y="-132"/>
      <point x="39" y="-140" type="qcurve" smooth="yes"/>
      <point x="75" y="-170"/>
      <point x="128" y="-170" type="qcurve" smooth="yes"/>
    </contour>
  </outline>
</glyph>
<glyph name="z" format="2">
  <advance height="1000" width="500"/>
  <unicode hex="007A"/>
  <outline>
    <contour>
      <point x="85" y="-16" type="qcurve" smooth="yes"/>
      <point x="69" y="-16"/>
      <point x="50" y="21"/>
      <point x="50" y="37" type="qcurve" smooth="yes"/>
      <point x="50" y="60"/>
      <point x="69" y="75" type="qcurve" smooth="yes"/>
      <point x="77" y="82"/>
      <point x="84" y="91" type="qcurve" smooth="yes"/>
      <point x="208" y="277"/>
      <point x="314" y="408" type="qcurve"/>
      <point x="154" y="394"/>
      <point x="136" y="391" type="qcurve" smooth="yes"/>
      <point x="119" y="391"/>
      <point x="100" y="415"/>
      <point x="88" y="444"/>
      <point x="88" y="454" type="qcurve" smooth="yes"/>
      <point x="88" y="471"/>
      <point x="105" y="471" type="qcurve" smooth="yes"/>
      <point x="130" y="469"/>
      <point x="177" y="469" type="qcurve" smooth="yes"/>
      <point x="187" y="469"/>
      <point x="342" y="481"/>
      <point x="359" y="487"/>
      <point x="373" y="487" type="qcurve" smooth="yes"/>
      <point x="400" y="485"/>
      <point x="418" y="451" type="qcurve" smooth="yes"/>
      <point x="425" y="437"/>
      <point x="425" y="428" type="qcurve" smooth="yes"/>
      <point x="425" y="419"/>
      <point x="410" y="409" type="qcurve" smooth="yes"/>
      <point x="385" y="394"/>
      <point x="228" y="171" type="qcurve" smooth="yes"/>
      <point x="184" y="109"/>
      <point x="154" y="63" type="qcurve"/>
      <point x="181" y="66"/>
      <point x="225" y="66" type="qcurve" smooth="yes"/>
      <point x="324" y="66"/>
      <point x="347" y="65" type="qcurve" smooth="yes"/>
      <point x="365" y="65"/>
      <point x="403" y="67" type="qcurve" smooth="yes"/>
      <point x="420" y="67"/>
      <point x="439" y="25"/>
      <point x="439" y="9" type="qcurve" smooth="yes"/>
      <point x="439" y="-13"/>
      <point x="419" y="-13" type="qcurve" smooth="yes"/>
      <point x="383" y="-8"/>
      <point x="347" y="-7" type="qcurve" smooth="yes"/>
      <point x="138" y="-7"/>
      <point x="106" y="-14" type="qcurve" smooth="yes"/>
      <point x="97" y="-16"/>
    </contour>
  </outline>
</glyph>
<glyph name="braceleft" format="2">
  <advance height="1000" width="500"/>
  <unicode hex="007B"/>
  <outline>
    <contour>
      <point x="387" y="-165" type="qcurve" smooth="yes"/>
      <point x="380" y="-165"/>
      <point x="371" y="-163" type="qcurve" smooth="yes"/>
      <point x="215" y="-126"/>
      <point x="215" y="-4" type="qcurve" smooth="yes"/>
      <point x="215" y="29"/>
      <point x="233" y="117"/>
      <point x="233" y="189" type="qcurve" smooth="yes"/>
      <point x="233" y="277"/>
      <point x="133" y="282" type="qcurve" smooth="yes"/>
      <point x="118" y="284"/>
      <point x="95" y="311"/>
      <point x="95" y="327" type="qcurve" smooth="yes"/>
      <point x="95" y="352"/>
      <point x="116" y="352" type="qcurve" smooth="yes"/>
      <point x="129" y="352" type="line" smooth="yes"/>
      <point x="232" y="352"/>
      <point x="232" y="472" type="qcurve" smooth="yes"/>
      <point x="232" y="510"/>
      <point x="226" y="592" type="qcurve" smooth="yes"/>
      <point x="225" y="629" type="line" smooth="yes"/>
      <point x="225" y="674"/>
      <point x="290" y="750"/>
      <point x="371" y="782" type="qcurve" smooth="yes"/>
      <point x="380" y="785"/>
      <point x="385" y="785" type="qcurve" smooth="yes"/>
      <point x="405" y="785"/>
      <point x="405" y="765" type="qcurve" smooth="yes"/>
      <point x="405" y="750"/>
      <point x="390" y="743" type="qcurve" smooth="yes"/>
      <point x="307" y="704"/>
      <point x="307" y="627" type="qcurve" smooth="yes"/>
      <point x="308" y="599" type="line" smooth="yes"/>
      <point x="314" y="515"/>
      <point x="314" y="469" type="qcurve" smooth="yes"/>
      <point x="314" y="347"/>
      <point x="240" y="314" type="qcurve"/>
      <point x="269" y="306"/>
      <point x="314" y="236"/>
      <point x="314" y="193" type="qcurve" smooth="yes"/>
      <point x="314" y="113"/>
      <point x="296" y="10"/>
      <point x="296" y="-4" type="qcurve" smooth="yes"/>
      <point x="296" y="-84"/>
      <point x="389" y="-125" type="qcurve" smooth="yes"/>
      <point x="406" y="-133"/>
      <point x="406" y="-149" type="qcurve" smooth="yes"/>
      <point x="406" y="-165"/>
    </contour>
  </outline>
</glyph>
<glyph name="bar" format="2">
  <advance width="500" height="500"/>
  <unicode hex="007C"/>
  <outline>
    <contour>
      <point x="273" y="-119" type="qcurve" smooth="yes"/>
      <point x="298" y="-119"/>
      <point x="298" y="-105" type="qcurve" smooth="yes"/>
      <point x="297" y="-33" type="line" smooth="yes"/>
      <point x="296" y="-25"/>
      <point x="296" y="-8"/>
      <point x="295" y="-3" type="qcurve" smooth="yes"/>
      <point x="296" y="720"/>
      <point x="297" y="757" type="qcurve" smooth="yes"/>
      <point x="297" y="772"/>
      <point x="259" y="786"/>
      <point x="242" y="786" type="qcurve" smooth="yes"/>
      <point x="216" y="786"/>
      <point x="216" y="771" type="qcurve" smooth="yes"/>
      <point x="216" y="751"/>
      <point x="218" y="719" type="qcurve" smooth="yes"/>
      <point x="219" y="-29" type="line"/>
      <point x="217" y="-88" type="line" smooth="yes"/>
      <point x="217" y="-103"/>
      <point x="257" y="-119"/>
    </contour>
  </outline>
</glyph>
<glyph name="exclamdown" format="2">
  <advance height="1000" width="500"/>
  <unicode hex="00A1"/>
  <outline>
    <contour>
      <point x="265" y="-217" type="qcurve" smooth="yes"/>
      <point x="246" y="-217"/>
      <point x="200" y="-197"/>
      <point x="200" y="-179" type="qcurve" smooth="yes"/>
      <point x="205" y="-148"/>
      <point x="206" y="-108" type="qcurve" smooth="yes"/>
      <point x="218" y="278"/>
      <point x="218" y="328" type="qcurve" smooth="yes"/>
      <point x="218" y="342"/>
      <point x="240" y="342" type="qcurve" smooth="yes"/>
      <point x="254" y="342"/>
      <point x="288" y="328"/>
      <point x="288" y="314" type="qcurve" smooth="yes"/>
      <point x="288" y="-122"/>
      <point x="297" y="-193" type="qcurve"/>
      <point x="293" y="-217"/>
    </contour>
    <contour>
      <point x="252" y="394" type="qcurve" smooth="yes"/>
      <point x="230" y="394"/>
      <point x="194" y="439"/>
      <point x="194" y="464" type="qcurve" smooth="yes"/>
      <point x="194" y="516"/>
      <point x="252" y="516" type="qcurve" smooth="yes"/>
      <point x="276" y="516"/>
      <point x="311" y="474"/>
      <point x="311" y="450" type="qcurve" smooth="yes"/>
      <point x="311" y="427"/>
      <point x="282" y="394"/>
    </contour>
  </outline>
</glyph>
<glyph name="cent" format="2">
  <advance height="1000" width="500"/>
  <unicode hex="00A2"/>
  <outline>
    <contour>
      <point x="174" y="-90" type="qcurve" smooth="yes"/>
      <point x="158" y="-90"/>
      <point x="124" y="-62"/>
      <point x="124" y="-44" type="qcurve"/>
      <point x="139" y="1" type="line"/>
      <point x="95" y="22"/>
      <point x="31" y="123"/>
      <point x="31" y="195" type="qcurve" smooth="yes"/>
      <point x="31" y="313"/>
      <point x="113" y="406" type="qcurve"/>
      <point x="198" y="496"/>
      <point x="284" y="496" type="qcurve" smooth="yes"/>
      <point x="300" y="496"/>
      <point x="308" y="495" type="qcurve"/>
      <point x="319" y="527"/>
      <point x="329" y="569" type="qcurve" smooth="yes"/>
      <point x="334" y="582"/>
      <point x="347" y="582" type="qcurve" smooth="yes"/>
      <point x="364" y="582"/>
      <point x="397" y="549"/>
      <point x="397" y="532" type="qcurve" smooth="yes"/>
      <point x="397" y="527"/>
      <point x="379" y="478" type="qcurve"/>
      <point x="415" y="463"/>
      <point x="451" y="416"/>
      <point x="451" y="404" type="qcurve" smooth="yes"/>
      <point x="451" y="387"/>
      <point x="420" y="351"/>
      <point x="405" y="351" type="qcurve" smooth="yes"/>
      <point x="393" y="351"/>
      <point x="388" y="360" type="qcurve" smooth="yes"/>
      <point x="368" y="409"/>
      <point x="357" y="412" type="qcurve"/>
      <point x="233" y="47" type="line"/>
      <point x="357" y="47"/>
      <point x="415" y="123" type="qcurve" smooth="yes"/>
      <point x="430" y="141"/>
      <point x="445" y="141" type="qcurve" smooth="yes"/>
      <point x="462" y="141"/>
      <point x="462" y="123" type="qcurve" smooth="yes"/>
      <point x="462" y="112"/>
      <point x="449" y="88" type="qcurve" smooth="yes"/>
      <point x="422" y="36"/>
      <point x="337" y="-4" type="qcurve" smooth="yes"/>
      <point x="292" y="-23"/>
      <point x="233" y="-23" type="qcurve" smooth="yes"/>
      <point x="218" y="-23"/>
      <point x="209" y="-21" type="qcurve"/>
      <point x="193" y="-77" type="line" smooth="yes"/>
      <point x="189" y="-90"/>
    </contour>
    <contour>
      <point x="165" y="75" type="qcurve"/>
      <point x="284" y="425" type="line"/>
      <point x="236" y="425"/>
      <point x="174" y="359" type="qcurve" smooth="yes"/>
      <point x="111" y="288"/>
      <point x="111" y="200" type="qcurve" smooth="yes"/>
      <point x="111" y="152"/>
      <point x="149" y="85"/>
    </contour>
  </outline>
</glyph>
<glyph name="yen" format="2">
  <advance height="1000" width="500"/>
  <unicode hex="00A5"/>
  <outline>
    <contour>
      <point x="260" y="-15" type="qcurve" smooth="yes"/>
      <point x="243" y="-15"/>
      <point x="202" y="3"/>
      <point x="202" y="19" type="qcurve" smooth="yes"/>
      <point x="203" y="42"/>
      <point x="204" y="164" type="qcurve"/>
      <point x="151" y="161"/>
      <point x="88" y="156" type="qcurve" smooth="yes"/>
      <point x="68" y="156"/>
      <point x="48" y="197"/>
      <point x="48" y="212" type="qcurve" smooth="yes"/>
      <point x="48" y="231"/>
      <point x="67" y="231" type="qcurve" smooth="yes"/>
      <point x="92" y="229"/>
      <point x="128" y="229" type="qcurve" smooth="yes"/>
      <point x="144" y="229"/>
      <point x="204" y="232" type="qcurve"/>
      <point x="204" y="304" type="line"/>
      <point x="121" y="300"/>
      <point x="88" y="296" type="qcurve" smooth="yes"/>
      <point x="68" y="296"/>
      <point x="48" y="337"/>
      <point x="48" y="352" type="qcurve" smooth="yes"/>
      <point x="48" y="371"/>
      <point x="67" y="371" type="qcurve" smooth="yes"/>
      <point x="92" y="369"/>
      <point x="144" y="369" type="qcurve" smooth="yes"/>
      <point x="188" y="371" type="line"/>
      <point x="86" y="587"/>
      <point x="18" y="668" type="qcurve" smooth="yes"/>
      <point x="15" y="672"/>
      <point x="15" y="676" type="qcurve" smooth="yes"/>
      <point x="15" y="687"/>
      <point x="55" y="708"/>
      <point x="75" y="708" type="qcurve" smooth="yes"/>
      <point x="93" y="708"/>
      <point x="110" y="687"/>
      <point x="116" y="672" type="qcurve" smooth="yes"/>
      <point x="125" y="652"/>
      <point x="139" y="626" type="qcurve" smooth="yes"/>
      <point x="217" y="476"/>
      <point x="244" y="418" type="qcurve"/>
      <point x="278" y="484"/>
      <point x="337" y="592" type="qcurve" smooth="yes"/>
      <point x="375" y="659"/>
      <point x="383" y="678" type="qcurve" smooth="yes"/>
      <point x="388" y="693"/>
      <point x="405" y="715"/>
      <point x="424" y="715" type="qcurve" smooth="yes"/>
      <point x="442" y="715"/>
      <point x="482" y="695"/>
      <point x="482" y="683" type="qcurve" smooth="yes"/>
      <point x="482" y="679"/>
      <point x="477" y="672"/>
      <point x="468" y="659" type="qcurve" smooth="yes"/>
      <point x="407" y="576"/>
      <point x="304" y="377" type="qcurve"/>
      <point x="350" y="379"/>
      <point x="394" y="384" type="qcurve" smooth="yes"/>
      <point x="414" y="385" type="line" smooth="yes"/>
      <point x="433" y="385"/>
      <point x="453" y="350"/>
      <point x="453" y="335" type="qcurve" smooth="yes"/>
      <point x="453" y="314"/>
      <point x="433" y="314" type="qcurve" smooth="yes"/>
      <point x="284" y="308" type="line"/>
      <point x="284" y="235" type="line"/>
      <point x="350" y="238"/>
      <point x="380" y="242" type="qcurve" smooth="yes"/>
      <point x="405" y="245"/>
      <point x="415" y="245" type="qcurve" smooth="yes"/>
      <point x="433" y="245"/>
      <point x="453" y="210"/>
      <point x="453" y="195" type="qcurve" smooth="yes"/>
      <point x="453" y="174"/>
      <point x="433" y="174" type="qcurve" smooth="yes"/>
      <point x="284" y="168" type="line"/>
      <point x="288" y="1" type="line" smooth="yes"/>
      <point x="288" y="-15"/>
    </contour>
  </outline>
</glyph>
<glyph name="brokenbar" format="2">
  <advance width="500" height="500"/>
  <unicode hex="00A6"/>
  <outline>
    <contour>
      <point x="290" y="-22" type="line"/>
      <point x="209" y="-22" type="line"/>
      <point x="209" y="273" type="line"/>
      <point x="290" y="273" type="line"/>
    </contour>
    <contour>
      <point x="290" y="428" type="line"/>
      <point x="209" y="428" type="line"/>
      <point x="209" y="723" type="line"/>
      <point x="290" y="723" type="line"/>
    </contour>
  </outline>
</glyph>
<glyph name="section" format="2">
  <advance height="1000" width="500"/>
  <unicode hex="00A7"/>
  <outline>
    <contour>
      <point x="245" y="-85" type="qcurve" smooth="yes"/>
      <point x="178" y="-85"/>
      <point x="79" y="-32"/>
      <point x="40" y="23" type="qcurve" smooth="yes"/>
      <point x="34" y="31"/>
      <point x="34" y="42" type="qcurve" smooth="yes"/>
      <point x="34" y="60"/>
      <point x="55" y="98"/>
      <point x="72" y="98" type="qcurve" smooth="yes"/>
      <point x="84" y="98"/>
      <point x="91" y="87" type="qcurve" smooth="yes"/>
      <point x="100" y="66"/>
      <point x="139" y="29" type="qcurve" smooth="yes"/>
      <point x="180" y="-10"/>
      <point x="245" y="-10" type="qcurve" smooth="yes"/>
      <point x="305" y="-10"/>
      <point x="371" y="51"/>
      <point x="371" y="101" type="qcurve" smooth="yes"/>
      <point x="371" y="153"/>
      <point x="319" y="208"/>
      <point x="261" y="222" type="qcurve" smooth="yes"/>
      <point x="182" y="244" type="line" smooth="yes"/>
      <point x="108" y="267"/>
      <point x="48" y="349"/>
      <point x="48" y="403" type="qcurve" smooth="yes"/>
      <point x="48" y="448"/>
      <point x="95" y="521"/>
      <point x="129" y="536" type="qcurve"/>
      <point x="96" y="554"/>
      <point x="62" y="620"/>
      <point x="62" y="661" type="qcurve" smooth="yes"/>
      <point x="62" y="701"/>
      <point x="107" y="773"/>
      <point x="191" y="820"/>
      <point x="247" y="820" type="qcurve" smooth="yes"/>
      <point x="357" y="820"/>
      <point x="421" y="750" type="qcurve" smooth="yes"/>
      <point x="431" y="739"/>
      <point x="431" y="707"/>
      <point x="414" y="670"/>
      <point x="398" y="670" type="qcurve" smooth="yes"/>
      <point x="388" y="670"/>
      <point x="380" y="681" type="qcurve" smooth="yes"/>
      <point x="366" y="707"/>
      <point x="312" y="736" type="qcurve" smooth="yes"/>
      <point x="288" y="746"/>
      <point x="246" y="746" type="qcurve" smooth="yes"/>
      <point x="192" y="746"/>
      <point x="138" y="694"/>
      <point x="138" y="663" type="qcurve" smooth="yes"/>
      <point x="138" y="641"/>
      <point x="151" y="612"/>
      <point x="186" y="591"/>
      <point x="264" y="570"/>
      <point x="303" y="559" type="qcurve" smooth="yes"/>
      <point x="381" y="538"/>
      <point x="463" y="444"/>
      <point x="463" y="369" type="qcurve" smooth="yes"/>
      <point x="463" y="283"/>
      <point x="403" y="230" type="qcurve"/>
      <point x="448" y="181"/>
      <point x="448" y="102" type="qcurve" smooth="yes"/>
      <point x="448" y="-6"/>
      <point x="354" y="-60" type="qcurve" smooth="yes"/>
      <point x="309" y="-85"/>
    </contour>
    <contour>
      <point x="344" y="273" type="qcurve"/>
      <point x="387" y="299"/>
      <point x="387" y="368" type="qcurve" smooth="yes"/>
      <point x="387" y="421"/>
      <point x="336" y="472"/>
      <point x="276" y="486" type="qcurve" smooth="yes"/>
      <point x="248" y="494"/>
      <point x="246" y="494" type="qcurve" smooth="yes"/>
      <point x="124" y="494"/>
      <point x="124" y="405" type="qcurve" smooth="yes"/>
      <point x="124" y="383"/>
      <point x="137" y="351"/>
      <point x="172" y="326"/>
      <point x="210" y="316" type="qcurve" smooth="yes"/>
      <point x="286" y="295" type="line" smooth="yes"/>
      <point x="323" y="288"/>
    </contour>
  </outline>
</glyph>
<glyph name="guillemotleft" format="2">
  <advance height="1000" width="500"/>
  <unicode hex="00AB"/>
  <outline>
    <contour>
      <point x="251" y="-22" type="qcurve" smooth="yes"/>
      <point x="240" y="-22"/>
      <point x="214" y="18" type="qcurve" smooth="yes"/>
      <point x="203" y="33"/>
      <point x="189" y="49" type="qcurve" smooth="yes"/>
      <point x="93" y="164"/>
      <point x="41" y="205" type="qcurve" smooth="yes"/>
      <point x="26" y="219"/>
      <point x="26" y="251" type="qcurve" smooth="yes"/>
      <point x="26" y="264"/>
      <point x="31" y="270" type="qcurve" smooth="yes"/>
      <point x="59" y="294" type="line"/>
      <point x="189" y="419"/>
      <point x="235" y="488" type="qcurve" smooth="yes"/>
      <point x="240" y="496"/>
      <point x="250" y="496" type="qcurve" smooth="yes"/>
      <point x="265" y="496"/>
      <point x="285" y="458"/>
      <point x="285" y="441" type="qcurve" smooth="yes"/>
      <point x="285" y="427"/>
      <point x="277" y="420" type="qcurve" smooth="yes"/>
      <point x="236" y="373"/>
      <point x="106" y="241" type="qcurve"/>
      <point x="170" y="178"/>
      <point x="236" y="103" type="qcurve" smooth="yes"/>
      <point x="278" y="57" type="line" smooth="yes"/>
      <point x="285" y="49"/>
      <point x="285" y="36" type="qcurve" smooth="yes"/>
      <point x="285" y="19"/>
      <point x="267" y="-22"/>
    </contour>
    <contour>
      <point x="436" y="-22" type="qcurve" smooth="yes"/>
      <point x="425" y="-22"/>
      <point x="399" y="18" type="qcurve"/>
      <point x="296" y="149"/>
      <point x="225" y="205" type="qcurve" smooth="yes"/>
      <point x="211" y="219"/>
      <point x="211" y="251" type="qcurve" smooth="yes"/>
      <point x="211" y="264"/>
      <point x="216" y="270" type="qcurve" smooth="yes"/>
      <point x="243" y="294" type="line"/>
      <point x="373" y="419"/>
      <point x="419" y="488" type="qcurve" smooth="yes"/>
      <point x="425" y="496"/>
      <point x="434" y="496" type="qcurve" smooth="yes"/>
      <point x="449" y="496"/>
      <point x="469" y="458"/>
      <point x="469" y="441" type="qcurve" smooth="yes"/>
      <point x="469" y="427"/>
      <point x="461" y="420" type="qcurve" smooth="yes"/>
      <point x="421" y="373"/>
      <point x="291" y="241" type="qcurve"/>
      <point x="354" y="178"/>
      <point x="420" y="103" type="qcurve" smooth="yes"/>
      <point x="462" y="57" type="line" smooth="yes"/>
      <point x="469" y="49"/>
      <point x="469" y="36" type="qcurve" smooth="yes"/>
      <point x="469" y="19"/>
      <point x="452" y="-22"/>
    </contour>
  </outline>
</glyph>
<glyph name="logicalnot" format="2">
  <advance height="1000" width="500"/>
  <unicode hex="00AC"/>
  <outline>
    <contour>
      <point x="412" y="173" type="qcurve" smooth="yes"/>
      <point x="397" y="173"/>
      <point x="374" y="188"/>
      <point x="374" y="200" type="qcurve" smooth="yes"/>
      <point x="374" y="382" type="line"/>
      <point x="61" y="382" type="line" smooth="yes"/>
      <point x="33" y="382"/>
      <point x="33" y="420" type="qcurve" smooth="yes"/>
      <point x="33" y="458"/>
      <point x="61" y="458" type="qcurve" smooth="yes"/>
      <point x="395" y="458" type="line" smooth="yes"/>
      <point x="450" y="455"/>
      <point x="450" y="401" type="qcurve" smooth="yes"/>
      <point x="450" y="200" type="line" smooth="yes"/>
      <point x="450" y="188"/>
      <point x="426" y="173"/>
    </contour>
  </outline>
</glyph>
<glyph name="degree" format="2">
  <advance width="500" height="500"/>
  <unicode hex="00B0"/>
  <outline>
    <contour>
      <point x="162" y="651" type="qcurve" smooth="yes"/>
      <point x="185" y="651"/>
      <point x="217" y="683"/>
      <point x="217" y="706" type="qcurve" smooth="yes"/>
      <point x="217" y="730"/>
      <point x="186" y="761"/>
      <point x="162" y="761" type="qcurve" smooth="yes"/>
      <point x="139" y="761"/>
      <point x="107" y="729"/>
      <point x="107" y="706" type="qcurve" smooth="yes"/>
      <point x="107" y="683"/>
      <point x="139" y="651"/>
    </contour>
    <contour>
      <point x="162" y="593" type="qcurve" smooth="yes"/>
      <point x="115" y="593"/>
      <point x="49" y="659"/>
      <point x="49" y="706" type="qcurve" smooth="yes"/>
      <point x="49" y="753"/>
      <point x="115" y="819"/>
      <point x="162" y="819" type="qcurve" smooth="yes"/>
      <point x="209" y="819"/>
      <point x="275" y="753"/>
      <point x="275" y="706" type="qcurve" smooth="yes"/>
      <point x="275" y="659"/>
      <point x="209" y="593"/>
    </contour>
  </outline>
</glyph>
<glyph name="plusminus" format="2">
  <advance height="1000" width="500"/>
  <unicode hex="00B1"/>
  <outline>
    <contour>
      <point x="250" y="192" type="qcurve" smooth="yes"/>
      <point x="234" y="192"/>
      <point x="209" y="209"/>
      <point x="209" y="224" type="qcurve" smooth="yes"/>
      <point x="212" y="269"/>
      <point x="212" y="417" type="qcurve"/>
      <point x="89" y="417"/>
      <point x="71" y="414" type="qcurve" smooth="yes"/>
      <point x="53" y="414"/>
      <point x="39" y="445"/>
      <point x="39" y="458" type="qcurve" smooth="yes"/>
      <point x="40" y="489"/>
      <point x="66" y="489" type="qcurve" smooth="yes"/>
      <point x="95" y="487"/>
      <point x="212" y="487" type="qcurve"/>
      <point x="212" y="645"/>
      <point x="210" y="676" type="qcurve" smooth="yes"/>
      <point x="210" y="702"/>
      <point x="242" y="702" type="qcurve" smooth="yes"/>
      <point x="257" y="702"/>
      <point x="285" y="685"/>
      <point x="285" y="671" type="qcurve" smooth="yes"/>
      <point x="282" y="625"/>
      <point x="282" y="487" type="qcurve"/>
      <point x="372" y="487"/>
      <point x="424" y="490" type="qcurve" smooth="yes"/>
      <point x="442" y="490"/>
      <point x="456" y="461"/>
      <point x="456" y="448" type="qcurve" smooth="yes"/>
      <point x="456" y="416"/>
      <point x="429" y="416" type="qcurve" smooth="yes"/>
      <point x="409" y="416"/>
      <point x="391" y="417" type="qcurve" smooth="yes"/>
      <point x="282" y="417" type="line"/>
      <point x="282" y="279"/>
      <point x="283" y="260" type="qcurve" smooth="yes"/>
      <point x="283" y="218" type="line" smooth="yes"/>
      <point x="283" y="192"/>
    </contour>
    <contour>
      <point x="77" y="53" type="qcurve" smooth="yes"/>
      <point x="47" y="53"/>
      <point x="47" y="98" type="qcurve" smooth="yes"/>
      <point x="47" y="128"/>
      <point x="71" y="128" type="qcurve" smooth="yes"/>
      <point x="100" y="126"/>
      <point x="260" y="126" type="qcurve" smooth="yes"/>
      <point x="390" y="126"/>
      <point x="422" y="128" type="qcurve" smooth="yes"/>
      <point x="436" y="128"/>
      <point x="449" y="98"/>
      <point x="449" y="84" type="qcurve" smooth="yes"/>
      <point x="449" y="54"/>
      <point x="427" y="54" type="qcurve" smooth="yes"/>
      <point x="407" y="54"/>
      <point x="375" y="56"/>
      <point x="259" y="56" type="qcurve" smooth="yes"/>
      <point x="94" y="56"/>
    </contour>
  </outline>
</glyph>
<glyph name="u00B2" format="2">
  <advance height="1000" width="500"/>
  <unicode hex="00B2"/>
  <outline>
    <contour>
      <point x="149" y="320" type="qcurve"/>
      <point x="170" y="327"/>
      <point x="229" y="327" type="qcurve" smooth="yes"/>
      <point x="264" y="327"/>
      <point x="308" y="325"/>
      <point x="349" y="325" type="qcurve" smooth="yes"/>
      <point x="365" y="324" type="line" smooth="yes"/>
      <point x="389" y="324"/>
      <point x="389" y="352" type="qcurve" smooth="yes"/>
      <point x="389" y="367"/>
      <point x="371" y="397"/>
      <point x="355" y="397" type="qcurve" smooth="yes"/>
      <point x="322" y="395" type="line"/>
      <point x="289" y="396" type="line"/>
      <point x="206" y="396" type="line"/>
      <point x="233" y="431"/>
      <point x="289" y="473" type="qcurve" smooth="yes"/>
      <point x="331" y="506"/>
      <point x="388" y="573"/>
      <point x="388" y="613" type="qcurve" smooth="yes"/>
      <point x="388" y="661"/>
      <point x="327" y="715"/>
      <point x="268" y="715" type="qcurve" smooth="yes"/>
      <point x="223" y="715"/>
      <point x="162" y="676"/>
      <point x="130" y="633"/>
      <point x="130" y="621" type="qcurve" smooth="yes"/>
      <point x="130" y="604"/>
      <point x="149" y="585" type="qcurve" smooth="yes"/>
      <point x="159" y="576"/>
      <point x="168" y="576" type="qcurve" smooth="yes"/>
      <point x="187" y="576"/>
      <point x="210" y="623"/>
      <point x="239" y="645"/>
      <point x="265" y="645" type="qcurve" smooth="yes"/>
      <point x="315" y="645"/>
      <point x="315" y="617" type="qcurve" smooth="yes"/>
      <point x="315" y="593"/>
      <point x="276" y="553"/>
      <point x="245" y="529" type="qcurve" smooth="yes"/>
      <point x="157" y="456"/>
      <point x="123" y="399" type="qcurve"/>
      <point x="120" y="395" type="line"/>
      <point x="106" y="386"/>
      <point x="106" y="368" type="qcurve" smooth="yes"/>
      <point x="106" y="353"/>
      <point x="128" y="320"/>
    </contour>
  </outline>
</glyph>
<glyph name="u00B3" format="2">
  <advance height="1000" width="500"/>
  <unicode hex="00B3"/>
  <outline>
    <contour>
      <point x="238" y="315" type="qcurve" smooth="yes"/>
      <point x="385" y="315"/>
      <point x="385" y="451" type="qcurve" smooth="yes"/>
      <point x="385" y="484"/>
      <point x="348" y="535"/>
      <point x="330" y="541" type="qcurve"/>
      <point x="372" y="569"/>
      <point x="372" y="621" type="qcurve" smooth="yes"/>
      <point x="372" y="666"/>
      <point x="313" y="716"/>
      <point x="258" y="716" type="qcurve" smooth="yes"/>
      <point x="221" y="716"/>
      <point x="163" y="690"/>
      <point x="127" y="656"/>
      <point x="127" y="643" type="qcurve" smooth="yes"/>
      <point x="127" y="628"/>
      <point x="150" y="596"/>
      <point x="161" y="596" type="qcurve" smooth="yes"/>
      <point x="175" y="596"/>
      <point x="189" y="613" type="qcurve" smooth="yes"/>
      <point x="213" y="648"/>
      <point x="259" y="648" type="qcurve" smooth="yes"/>
      <point x="302" y="648"/>
      <point x="302" y="620" type="qcurve" smooth="yes"/>
      <point x="302" y="600"/>
      <point x="284" y="586" type="qcurve" smooth="yes"/>
      <point x="250" y="562"/>
      <point x="197" y="556" type="qcurve" smooth="yes"/>
      <point x="179" y="556"/>
      <point x="179" y="533" type="qcurve" smooth="yes"/>
      <point x="179" y="519"/>
      <point x="199" y="489"/>
      <point x="213" y="489" type="qcurve" smooth="yes"/>
      <point x="245" y="497"/>
      <point x="260" y="497" type="qcurve" smooth="yes"/>
      <point x="313" y="497"/>
      <point x="314" y="447" type="qcurve" smooth="yes"/>
      <point x="314" y="385"/>
      <point x="238" y="385" type="qcurve" smooth="yes"/>
      <point x="192" y="385"/>
      <point x="160" y="419" type="qcurve" smooth="yes"/>
      <point x="153" y="428"/>
      <point x="142" y="428" type="qcurve" smooth="yes"/>
      <point x="128" y="428"/>
      <point x="106" y="398"/>
      <point x="106" y="383" type="qcurve" smooth="yes"/>
      <point x="106" y="368"/>
      <point x="127" y="352" type="qcurve" smooth="yes"/>
      <point x="176" y="315"/>
    </contour>
  </outline>
</glyph>
<glyph name="u00B9" format="2">
  <advance height="1000" width="500"/>
  <unicode hex="00B9"/>
  <outline>
    <contour>
      <point x="276" y="320" type="qcurve" smooth="yes"/>
      <point x="302" y="320"/>
      <point x="302" y="342" type="qcurve" smooth="yes"/>
      <point x="300" y="388"/>
      <point x="300" y="619" type="qcurve" smooth="yes"/>
      <point x="300" y="632"/>
      <point x="303" y="655" type="qcurve" smooth="yes"/>
      <point x="304" y="676" type="line" smooth="yes"/>
      <point x="304" y="692"/>
      <point x="272" y="716"/>
      <point x="260" y="716" type="qcurve" smooth="yes"/>
      <point x="248" y="716"/>
      <point x="237" y="702" type="qcurve" smooth="yes"/>
      <point x="205" y="663"/>
      <point x="150" y="638" type="qcurve" smooth="yes"/>
      <point x="137" y="633"/>
      <point x="137" y="621" type="qcurve" smooth="yes"/>
      <point x="137" y="609"/>
      <point x="164" y="588"/>
      <point x="178" y="588" type="qcurve" smooth="yes"/>
      <point x="185" y="588"/>
      <point x="187" y="589" type="qcurve" smooth="yes"/>
      <point x="207" y="592"/>
      <point x="229" y="607" type="qcurve"/>
      <point x="229" y="414"/>
      <point x="227" y="369"/>
      <point x="227" y="357" type="qcurve" smooth="yes"/>
      <point x="227" y="340"/>
      <point x="260" y="320"/>
    </contour>
  </outline>
</glyph>
<glyph name="guillemotright" format="2">
  <advance height="1000" width="500"/>
  <unicode hex="00BB"/>
  <outline>
    <contour>
      <point x="248" y="-28" type="qcurve" smooth="yes"/>
      <point x="232" y="-28"/>
      <point x="214" y="13"/>
      <point x="214" y="30" type="qcurve" smooth="yes"/>
      <point x="214" y="43"/>
      <point x="221" y="51" type="qcurve" smooth="yes"/>
      <point x="263" y="97" type="line" smooth="yes"/>
      <point x="329" y="172"/>
      <point x="393" y="235" type="qcurve"/>
      <point x="304" y="326"/>
      <point x="251" y="384" type="qcurve" smooth="yes"/>
      <point x="226" y="410"/>
      <point x="214" y="421"/>
      <point x="214" y="435" type="qcurve" smooth="yes"/>
      <point x="214" y="452"/>
      <point x="234" y="490"/>
      <point x="249" y="490" type="qcurve" smooth="yes"/>
      <point x="261" y="490"/>
      <point x="264" y="482" type="qcurve" smooth="yes"/>
      <point x="310" y="413"/>
      <point x="440" y="288" type="qcurve"/>
      <point x="467" y="264" type="line" smooth="yes"/>
      <point x="473" y="258"/>
      <point x="473" y="245" type="qcurve" smooth="yes"/>
      <point x="473" y="213"/>
      <point x="458" y="199" type="qcurve" smooth="yes"/>
      <point x="411" y="161"/>
      <point x="309" y="43" type="qcurve" smooth="yes"/>
      <point x="301" y="34"/>
      <point x="268" y="-12" type="qcurve" smooth="yes"/>
      <point x="258" y="-28"/>
    </contour>
    <contour>
      <point x="63" y="-28" type="qcurve" smooth="yes"/>
      <point x="47" y="-28"/>
      <point x="30" y="13"/>
      <point x="30" y="30" type="qcurve" smooth="yes"/>
      <point x="30" y="43"/>
      <point x="37" y="51" type="qcurve" smooth="yes"/>
      <point x="79" y="97" type="line" smooth="yes"/>
      <point x="145" y="172"/>
      <point x="208" y="235" type="qcurve"/>
      <point x="119" y="326"/>
      <point x="66" y="384" type="qcurve" smooth="yes"/>
      <point x="41" y="410"/>
      <point x="30" y="421"/>
      <point x="30" y="435" type="qcurve" smooth="yes"/>
      <point x="30" y="452"/>
      <point x="50" y="490"/>
      <point x="65" y="490" type="qcurve" smooth="yes"/>
      <point x="76" y="490"/>
      <point x="80" y="482" type="qcurve" smooth="yes"/>
      <point x="126" y="413"/>
      <point x="256" y="288" type="qcurve"/>
      <point x="283" y="264" type="line" smooth="yes"/>
      <point x="288" y="258"/>
      <point x="288" y="245" type="qcurve" smooth="yes"/>
      <point x="288" y="213"/>
      <point x="274" y="199" type="qcurve" smooth="yes"/>
      <point x="226" y="161"/>
      <point x="125" y="43" type="qcurve" smooth="yes"/>
      <point x="117" y="34"/>
      <point x="83" y="-12" type="qcurve" smooth="yes"/>
      <point x="74" y="-28"/>
    </contour>
  </outline>
</glyph>
<glyph name="questiondown" format="2">
  <advance height="1000" width="500"/>
  <unicode hex="00BF"/>
  <outline>
    <contour>
      <point x="207" y="-220" type="qcurve" smooth="yes"/>
      <point x="134" y="-220"/>
      <point x="48" y="-142"/>
      <point x="48" y="-75" type="qcurve" smooth="yes"/>
      <point x="48" y="17"/>
      <point x="110" y="79" type="qcurve" smooth="yes"/>
      <point x="135" y="106"/>
      <point x="162" y="130" type="qcurve" smooth="yes"/>
      <point x="230" y="187"/>
      <point x="230" y="245" type="qcurve" smooth="yes"/>
      <point x="230" y="275"/>
      <point x="221" y="315" type="qcurve" smooth="yes"/>
      <point x="221" y="326"/>
      <point x="243" y="337"/>
      <point x="256" y="337" type="qcurve" smooth="yes"/>
      <point x="295" y="337"/>
      <point x="308" y="300"/>
      <point x="308" y="275" type="qcurve" smooth="yes"/>
      <point x="308" y="162"/>
      <point x="235" y="102" type="qcurve"/>
      <point x="222" y="89" type="line"/>
      <point x="132" y="12"/>
      <point x="132" y="-69" type="qcurve" smooth="yes"/>
      <point x="132" y="-104"/>
      <point x="169" y="-149"/>
      <point x="206" y="-149" type="qcurve" smooth="yes"/>
      <point x="338" y="-149"/>
      <point x="378" y="-19" type="qcurve" smooth="yes"/>
      <point x="385" y="-1"/>
      <point x="403" y="-1" type="qcurve" smooth="yes"/>
      <point x="421" y="-1"/>
      <point x="455" y="-32"/>
      <point x="455" y="-49" type="qcurve" smooth="yes"/>
      <point x="455" y="-56"/>
      <point x="452" y="-60" type="qcurve" smooth="yes"/>
      <point x="370" y="-220"/>
    </contour>
    <contour>
      <point x="265" y="392" type="qcurve" smooth="yes"/>
      <point x="242" y="392"/>
      <point x="209" y="438"/>
      <point x="209" y="462" type="qcurve" smooth="yes"/>
      <point x="209" y="514"/>
      <point x="265" y="514" type="qcurve" smooth="yes"/>
      <point x="289" y="514"/>
      <point x="322" y="471"/>
      <point x="322" y="448" type="qcurve" smooth="yes"/>
      <point x="322" y="426"/>
      <point x="294" y="392"/>
    </contour>
  </outline>
</glyph>
<glyph name="Aring" format="2">
  <advance height="1000" width="500"/>
  <unicode hex="00C5"/>
  <outline>
    <contour>
      <point x="432" y="-14" type="qcurve" smooth="yes"/>
      <point x="409" y="-14"/>
      <point x="398" y="2" type="qcurve"/>
      <point x="390" y="37"/>
      <point x="338" y="230" type="qcurve"/>
      <point x="160" y="219" type="line"/>
      <point x="151" y="186"/>
      <point x="124" y="97" type="qcurve"/>
      <point x="102" y="9" type="line" smooth="yes"/>
      <point x="94" y="-13"/>
      <point x="56" y="-13" type="qcurve" smooth="yes"/>
      <point x="42" y="-13"/>
      <point x="15" y="-1"/>
      <point x="15" y="12" type="qcurve" smooth="yes"/>
      <point x="15" y="17"/>
      <point x="19" y="25" type="qcurve" smooth="yes"/>
      <point x="53" y="101"/>
      <point x="84" y="211" type="qcurve" smooth="yes"/>
      <point x="85" y="211"/>
      <point x="85" y="212" type="qcurve"/>
      <point x="81" y="212" type="line" smooth="yes"/>
      <point x="69" y="212"/>
      <point x="55" y="234"/>
      <point x="46" y="259"/>
      <point x="46" y="270" type="qcurve" smooth="yes"/>
      <point x="46" y="291"/>
      <point x="65" y="291" type="qcurve" smooth="yes"/>
      <point x="106" y="285" type="line"/>
      <point x="204" y="626"/>
      <point x="211" y="683" type="qcurve" smooth="yes"/>
      <point x="214" y="700"/>
      <point x="220" y="709" type="qcurve" smooth="yes"/>
      <point x="226" y="716"/>
      <point x="241" y="717" type="qcurve"/>
      <point x="213" y="723"/>
      <point x="193" y="746" type="qcurve" smooth="yes"/>
      <point x="166" y="776"/>
      <point x="166" y="815" type="qcurve" smooth="yes"/>
      <point x="166" y="854"/>
      <point x="220" y="915"/>
      <point x="260" y="915" type="qcurve" smooth="yes"/>
      <point x="299" y="915"/>
      <point x="353" y="854"/>
      <point x="353" y="815" type="qcurve" smooth="yes"/>
      <point x="353" y="776"/>
      <point x="299" y="715"/>
      <point x="260" y="715" type="qcurve" smooth="yes"/>
      <point x="259" y="715" type="line"/>
      <point x="269" y="713"/>
      <point x="281" y="707" type="qcurve" smooth="yes"/>
      <point x="302" y="697"/>
      <point x="306" y="686" type="qcurve" smooth="yes"/>
      <point x="308" y="684"/>
      <point x="308" y="679" type="qcurve" smooth="yes"/>
      <point x="308" y="674"/>
      <point x="305" y="663"/>
      <point x="305" y="659" type="qcurve" smooth="yes"/>
      <point x="305" y="655"/>
      <point x="321" y="591" type="qcurve" smooth="yes"/>
      <point x="442" y="92"/>
      <point x="481" y="28" type="qcurve" smooth="yes"/>
      <point x="485" y="23"/>
      <point x="485" y="17" type="qcurve" smooth="yes"/>
      <point x="485" y="2"/>
      <point x="449" y="-14"/>
    </contour>
    <contour>
      <point x="178" y="288" type="line"/>
      <point x="321" y="296" type="line"/>
      <point x="255" y="568" type="line"/>
    </contour>
    <contour>
      <point x="260" y="775" type="qcurve" smooth="yes"/>
      <point x="273" y="775"/>
      <point x="292" y="797"/>
      <point x="292" y="815" type="qcurve" smooth="yes"/>
      <point x="288" y="855"/>
      <point x="260" y="855" type="qcurve" smooth="yes"/>
      <point x="247" y="855"/>
      <point x="227" y="833"/>
      <point x="227" y="815" type="qcurve" smooth="yes"/>
      <point x="227" y="797"/>
      <point x="248" y="775"/>
    </contour>
  </outline>
</glyph>
<glyph name="Iacute" format="2">
  <advance height="1000" width="500"/>
  <unicode hex="00CD"/>
  <outline>
    <contour>
      <point x="107" y="-12" type="qcurve" smooth="yes"/>
      <point x="87" y="-12"/>
      <point x="67" y="30"/>
      <point x="67" y="45" type="qcurve" smooth="yes"/>
      <point x="67" y="69"/>
      <point x="88" y="69" type="qcurve" smooth="yes"/>
      <point x="128" y="68" type="line"/>
      <point x="205" y="69" type="line"/>
      <point x="206" y="107"/>
      <point x="207" y="623" type="qcurve"/>
      <point x="159" y="620"/>
      <point x="122" y="614" type="qcurve" smooth="yes"/>
      <point x="102" y="614"/>
      <point x="82" y="656"/>
      <point x="82" y="671" type="qcurve" smooth="yes"/>
      <point x="82" y="695"/>
      <point x="103" y="695" type="qcurve" smooth="yes"/>
      <point x="110" y="695"/>
      <point x="147" y="693"/>
      <point x="167" y="693" type="qcurve" smooth="yes"/>
      <point x="264" y="693"/>
      <point x="381" y="706" type="qcurve" smooth="yes"/>
      <point x="398" y="706"/>
      <point x="417" y="664"/>
      <point x="417" y="649" type="qcurve" smooth="yes"/>
      <point x="417" y="625"/>
      <point x="397" y="625" type="qcurve" smooth="yes"/>
      <point x="340" y="628"/>
      <point x="325" y="628" type="qcurve" smooth="yes"/>
      <point x="288" y="626" type="line"/>
      <point x="289" y="152"/>
      <point x="290" y="70" type="qcurve"/>
      <point x="384" y="70"/>
      <point x="397" y="71" type="qcurve" smooth="yes"/>
      <point x="416" y="71"/>
      <point x="435" y="27"/>
      <point x="435" y="12" type="qcurve" smooth="yes"/>
      <point x="435" y="-11"/>
      <point x="415" y="-11" type="qcurve" smooth="yes"/>
      <point x="380" y="-5"/>
      <point x="304" y="-5" type="qcurve" smooth="yes"/>
      <point x="172" y="-5"/>
    </contour>
    <contour>
      <point x="181" y="735" type="qcurve" smooth="yes"/>
      <point x="170" y="735"/>
      <point x="157" y="750"/>
      <point x="157" y="758" type="qcurve" smooth="yes"/>
      <point x="157" y="782"/>
      <point x="295" y="883" type="qcurve" smooth="yes"/>
      <point x="300" y="886"/>
      <point x="306" y="886" type="qcurve" smooth="yes"/>
      <point x="319" y="886"/>
      <point x="346" y="864"/>
      <point x="368" y="838"/>
      <point x="368" y="826" type="qcurve" smooth="yes"/>
      <point x="368" y="816"/>
      <point x="358" y="811" type="qcurve" smooth="yes"/>
      <point x="313" y="793"/>
      <point x="227" y="759"/>
      <point x="197" y="740" type="qcurve" smooth="yes"/>
      <point x="189" y="735"/>
    </contour>
  </outline>
</glyph>
<glyph name="Icircumflex" format="2">
  <advance height="1000" width="500"/>
  <unicode hex="00CE"/>
  <outline>
    <contour>
      <point x="107" y="-12" type="qcurve" smooth="yes"/>
      <point x="87" y="-12"/>
      <point x="67" y="30"/>
      <point x="67" y="45" type="qcurve" smooth="yes"/>
      <point x="67" y="69"/>
      <point x="88" y="69" type="qcurve" smooth="yes"/>
      <point x="128" y="68" type="line"/>
      <point x="205" y="69" type="line"/>
      <point x="206" y="107"/>
      <point x="207" y="623" type="qcurve"/>
      <point x="159" y="620"/>
      <point x="122" y="614" type="qcurve" smooth="yes"/>
      <point x="102" y="614"/>
      <point x="82" y="656"/>
      <point x="82" y="671" type="qcurve" smooth="yes"/>
      <point x="82" y="695"/>
      <point x="103" y="695" type="qcurve" smooth="yes"/>
      <point x="110" y="695"/>
      <point x="147" y="693"/>
      <point x="167" y="693" type="qcurve" smooth="yes"/>
      <point x="264" y="693"/>
      <point x="381" y="706" type="qcurve" smooth="yes"/>
      <point x="398" y="706"/>
      <point x="417" y="664"/>
      <point x="417" y="649" type="qcurve" smooth="yes"/>
      <point x="417" y="625"/>
      <point x="397" y="625" type="qcurve" smooth="yes"/>
      <point x="340" y="628"/>
      <point x="325" y="628" type="qcurve" smooth="yes"/>
      <point x="288" y="626" type="line"/>
      <point x="289" y="152"/>
      <point x="290" y="70" type="qcurve"/>
      <point x="384" y="70"/>
      <point x="397" y="71" type="qcurve" smooth="yes"/>
      <point x="416" y="71"/>
      <point x="435" y="27"/>
      <point x="435" y="12" type="qcurve" smooth="yes"/>
      <point x="435" y="-11"/>
      <point x="415" y="-11" type="qcurve" smooth="yes"/>
      <point x="380" y="-5"/>
      <point x="304" y="-5" type="qcurve" smooth="yes"/>
      <point x="172" y="-5"/>
    </contour>
    <contour>
      <point x="122" y="726" type="qcurve" smooth="yes"/>
      <point x="97" y="726"/>
      <point x="97" y="748" type="qcurve" smooth="yes"/>
      <point x="97" y="754"/>
      <point x="108" y="770" type="qcurve" smooth="yes"/>
      <point x="142" y="820"/>
      <point x="206" y="887" type="qcurve" smooth="yes"/>
      <point x="222" y="898"/>
      <point x="247" y="898" type="qcurve" smooth="yes"/>
      <point x="279" y="898"/>
      <point x="294" y="883" type="qcurve" smooth="yes"/>
      <point x="305" y="871" type="line" smooth="yes"/>
      <point x="402" y="771"/>
      <point x="402" y="748" type="qcurve" smooth="yes"/>
      <point x="402" y="726"/>
      <point x="376" y="726" type="qcurve" smooth="yes"/>
      <point x="366" y="726"/>
      <point x="358" y="734" type="qcurve" smooth="yes"/>
      <point x="310" y="776"/>
      <point x="250" y="815" type="qcurve"/>
      <point x="252" y="817" type="line"/>
      <point x="187" y="774"/>
      <point x="141" y="734" type="qcurve" smooth="yes"/>
      <point x="134" y="726"/>
    </contour>
  </outline>
</glyph>
<glyph name="Eth" format="2">
  <advance height="1000" width="500"/>
  <unicode hex="00D0"/>
  <outline>
    <contour>
      <point x="134" y="-14" type="qcurve" smooth="yes"/>
      <point x="38" y="-14"/>
      <point x="38" y="15" type="qcurve" smooth="yes"/>
      <point x="38" y="40"/>
      <point x="73" y="40" type="qcurve"/>
      <point x="73" y="294" type="line"/>
      <point x="52" y="293" type="line" smooth="yes"/>
      <point x="22" y="293"/>
      <point x="22" y="339" type="qcurve" smooth="yes"/>
      <point x="22" y="368"/>
      <point x="48" y="368" type="qcurve" smooth="yes"/>
      <point x="73" y="368" type="line"/>
      <point x="73" y="625" type="line"/>
      <point x="65" y="628"/>
      <point x="48" y="659"/>
      <point x="48" y="669" type="qcurve" smooth="yes"/>
      <point x="48" y="691"/>
      <point x="130" y="709" type="qcurve" smooth="yes"/>
      <point x="180" y="718"/>
      <point x="216" y="718" type="qcurve" smooth="yes"/>
      <point x="323" y="718"/>
      <point x="399" y="615" type="qcurve" smooth="yes"/>
      <point x="470" y="515"/>
      <point x="470" y="357" type="qcurve" smooth="yes"/>
      <point x="470" y="204"/>
      <point x="409" y="112" type="qcurve" smooth="yes"/>
      <point x="348" y="23"/>
      <point x="267" y="2" type="qcurve" smooth="yes"/>
      <point x="199" y="-14"/>
    </contour>
    <contour>
      <point x="150" y="47" type="line"/>
      <point x="309" y="57"/>
      <point x="363" y="196" type="qcurve" smooth="yes"/>
      <point x="391" y="269"/>
      <point x="391" y="358" type="qcurve" smooth="yes"/>
      <point x="391" y="496"/>
      <point x="329" y="575" type="qcurve" smooth="yes"/>
      <point x="273" y="645"/>
      <point x="212" y="645" type="qcurve" smooth="yes"/>
      <point x="176" y="645"/>
      <point x="150" y="634" type="qcurve"/>
      <point x="150" y="369" type="line"/>
      <point x="248" y="372"/>
      <point x="260" y="374"/>
      <point x="272" y="374"/>
      <point x="279" y="375" type="qcurve" smooth="yes"/>
      <point x="310" y="375"/>
      <point x="310" y="329" type="qcurve" smooth="yes"/>
      <point x="310" y="300"/>
      <point x="284" y="300" type="qcurve" smooth="yes"/>
      <point x="214" y="300"/>
      <point x="150" y="297" type="qcurve"/>
    </contour>
  </outline>
</glyph>
<glyph name="Oacute" format="2">
  <advance height="1000" width="500"/>
  <unicode hex="00D3"/>
  <outline>
    <contour>
      <point x="244" y="-24" type="qcurve" smooth="yes"/>
      <point x="170" y="-24"/>
      <point x="75" y="72"/>
      <point x="30" y="235"/>
      <point x="30" y="337" type="qcurve" smooth="yes"/>
      <point x="30" y="457"/>
      <point x="64" y="557" type="qcurve" smooth="yes"/>
      <point x="98" y="663"/>
      <point x="134" y="663" type="qcurve" smooth="yes"/>
      <point x="149" y="663"/>
      <point x="152" y="660" type="qcurve"/>
      <point x="194" y="719"/>
      <point x="271" y="719" type="qcurve" smooth="yes"/>
      <point x="336" y="719"/>
      <point x="426" y="625"/>
      <point x="471" y="464"/>
      <point x="471" y="363" type="qcurve" smooth="yes"/>
      <point x="471" y="208"/>
      <point x="418" y="93" type="qcurve"/>
      <point x="359" y="-24"/>
    </contour>
    <contour>
      <point x="240" y="54" type="qcurve" smooth="yes"/>
      <point x="391" y="54"/>
      <point x="391" y="371" type="qcurve" smooth="yes"/>
      <point x="391" y="485"/>
      <point x="362" y="562" type="qcurve" smooth="yes"/>
      <point x="331" y="645"/>
      <point x="267" y="645" type="qcurve" smooth="yes"/>
      <point x="234" y="645"/>
      <point x="162" y="582"/>
      <point x="109" y="445"/>
      <point x="109" y="339" type="qcurve" smooth="yes"/>
      <point x="109" y="259"/>
      <point x="134" y="130"/>
      <point x="190" y="54"/>
    </contour>
    <contour>
      <point x="183" y="735" type="qcurve" smooth="yes"/>
      <point x="172" y="735"/>
      <point x="159" y="750"/>
      <point x="159" y="758" type="qcurve" smooth="yes"/>
      <point x="159" y="782"/>
      <point x="297" y="883" type="qcurve" smooth="yes"/>
      <point x="301" y="886"/>
      <point x="308" y="886" type="qcurve" smooth="yes"/>
      <point x="321" y="886"/>
      <point x="348" y="864"/>
      <point x="370" y="838"/>
      <point x="370" y="826" type="qcurve" smooth="yes"/>
      <point x="370" y="816"/>
      <point x="360" y="811" type="qcurve" smooth="yes"/>
      <point x="315" y="793"/>
      <point x="229" y="759"/>
      <point x="199" y="740" type="qcurve" smooth="yes"/>
      <point x="191" y="735"/>
    </contour>
  </outline>
</glyph>
<glyph name="multiply" format="2">
  <advance height="1000" width="500"/>
  <unicode hex="00D7"/>
  <outline>
    <contour>
      <point x="94" y="158" type="line" smooth="yes"/>
      <point x="89" y="151"/>
      <point x="67" y="151"/>
      <point x="40" y="185"/>
      <point x="40" y="199" type="qcurve" smooth="yes"/>
      <point x="40" y="214"/>
      <point x="49" y="220" type="qcurve" smooth="yes"/>
      <point x="90" y="256"/>
      <point x="203" y="369" type="qcurve"/>
      <point x="74" y="498"/>
      <point x="48" y="520" type="qcurve" smooth="yes"/>
      <point x="40" y="528"/>
      <point x="40" y="556"/>
      <point x="62" y="588"/>
      <point x="75" y="588" type="qcurve" smooth="yes"/>
      <point x="86" y="588"/>
      <point x="102" y="572"/>
      <point x="118" y="556" type="qcurve" smooth="yes"/>
      <point x="252" y="419" type="line"/>
      <point x="353" y="519" type="line" smooth="yes"/>
      <point x="412" y="582"/>
      <point x="421" y="582" type="qcurve" smooth="yes"/>
      <point x="437" y="582"/>
      <point x="459" y="549"/>
      <point x="459" y="536" type="qcurve" smooth="yes"/>
      <point x="459" y="522"/>
      <point x="442" y="505"/>
      <point x="411" y="477"/>
      <point x="303" y="369" type="qcurve"/>
      <point x="415" y="257"/>
      <point x="449" y="228" type="qcurve" smooth="yes"/>
      <point x="458" y="220"/>
      <point x="458" y="205" type="qcurve" smooth="yes"/>
      <point x="458" y="191"/>
      <point x="434" y="158"/>
      <point x="412" y="158"/>
      <point x="405" y="165" type="qcurve" smooth="yes"/>
      <point x="361" y="210"/>
      <point x="252" y="318" type="qcurve"/>
    </contour>
  </outline>
</glyph>
<glyph name="Ugrave" format="2">
  <advance height="1000" width="500"/>
  <unicode hex="00D9"/>
  <outline>
    <contour>
      <point x="240" y="-24" type="qcurve" smooth="yes"/>
      <point x="167" y="-24"/>
      <point x="125" y="3" type="qcurve" smooth="yes"/>
      <point x="49" y="51"/>
      <point x="49" y="198" type="qcurve" smooth="yes"/>
      <point x="49" y="618"/>
      <point x="46" y="678"/>
      <point x="46" y="695" type="qcurve" smooth="yes"/>
      <point x="46" y="713"/>
      <point x="78" y="713" type="qcurve" smooth="yes"/>
      <point x="95" y="713"/>
      <point x="133" y="696"/>
      <point x="133" y="680" type="qcurve" smooth="yes"/>
      <point x="133" y="668"/>
      <point x="132" y="610"/>
      <point x="132" y="210" type="qcurve" smooth="yes"/>
      <point x="132" y="150"/>
      <point x="152" y="80"/>
      <point x="196" y="51"/>
      <point x="240" y="51" type="qcurve" smooth="yes"/>
      <point x="303" y="51"/>
      <point x="370" y="158"/>
      <point x="370" y="242" type="qcurve" smooth="yes"/>
      <point x="370" y="595"/>
      <point x="367" y="697" type="qcurve" smooth="yes"/>
      <point x="367" y="715"/>
      <point x="399" y="715" type="qcurve" smooth="yes"/>
      <point x="417" y="715"/>
      <point x="455" y="698"/>
      <point x="455" y="682" type="qcurve" smooth="yes"/>
      <point x="455" y="670"/>
      <point x="453" y="620"/>
      <point x="453" y="230" type="qcurve" smooth="yes"/>
      <point x="453" y="117"/>
      <point x="346" y="-24"/>
    </contour>
    <contour>
      <point x="330" y="735" type="qcurve" smooth="yes"/>
      <point x="323" y="735"/>
      <point x="314" y="739" type="qcurve" smooth="yes"/>
      <point x="284" y="759"/>
      <point x="198" y="793"/>
      <point x="153" y="811" type="qcurve" smooth="yes"/>
      <point x="142" y="816"/>
      <point x="142" y="826" type="qcurve" smooth="yes"/>
      <point x="142" y="837"/>
      <point x="163" y="864"/>
      <point x="193" y="886"/>
      <point x="204" y="886" type="qcurve" smooth="yes"/>
      <point x="214" y="886"/>
      <point x="217" y="882" type="qcurve" smooth="yes"/>
      <point x="354" y="783"/>
      <point x="354" y="758" type="qcurve" smooth="yes"/>
      <point x="354" y="735"/>
    </contour>
  </outline>
</glyph>
<glyph name="Udieresis" format="2">
  <advance height="1000" width="500"/>
  <unicode hex="00DC"/>
  <outline>
    <contour>
      <point x="240" y="-24" type="qcurve" smooth="yes"/>
      <point x="167" y="-24"/>
      <point x="125" y="3" type="qcurve" smooth="yes"/>
      <point x="49" y="51"/>
      <point x="49" y="198" type="qcurve" smooth="yes"/>
      <point x="49" y="618"/>
      <point x="46" y="678"/>
      <point x="46" y="695" type="qcurve" smooth="yes"/>
      <point x="46" y="713"/>
      <point x="78" y="713" type="qcurve" smooth="yes"/>
      <point x="95" y="713"/>
      <point x="133" y="696"/>
      <point x="133" y="680" type="qcurve" smooth="yes"/>
      <point x="133" y="668"/>
      <point x="132" y="610"/>
      <point x="132" y="210" type="qcurve" smooth="yes"/>
      <point x="132" y="150"/>
      <point x="152" y="80"/>
      <point x="196" y="51"/>
      <point x="240" y="51" type="qcurve" smooth="yes"/>
      <point x="303" y="51"/>
      <point x="370" y="158"/>
      <point x="370" y="242" type="qcurve" smooth="yes"/>
      <point x="370" y="595"/>
      <point x="367" y="697" type="qcurve" smooth="yes"/>
      <point x="367" y="715"/>
      <point x="399" y="715" type="qcurve" smooth="yes"/>
      <point x="417" y="715"/>
      <point x="455" y="698"/>
      <point x="455" y="682" type="qcurve" smooth="yes"/>
      <point x="455" y="670"/>
      <point x="453" y="620"/>
      <point x="453" y="230" type="qcurve" smooth="yes"/>
      <point x="453" y="117"/>
      <point x="346" y="-24"/>
    </contour>
    <contour>
      <point x="174" y="753" type="qcurve" smooth="yes"/>
      <point x="149" y="753"/>
      <point x="114" y="799"/>
      <point x="114" y="820" type="qcurve" smooth="yes"/>
      <point x="117" y="874"/>
      <point x="165" y="874" type="qcurve" smooth="yes"/>
      <point x="188" y="874"/>
      <point x="223" y="830"/>
      <point x="223" y="806" type="qcurve" smooth="yes"/>
      <point x="219" y="753"/>
    </contour>
    <contour>
      <point x="339" y="753" type="qcurve" smooth="yes"/>
      <point x="313" y="753"/>
      <point x="279" y="799"/>
      <point x="279" y="820" type="qcurve" smooth="yes"/>
      <point x="282" y="874"/>
      <point x="330" y="874" type="qcurve" smooth="yes"/>
      <point x="353" y="874"/>
      <point x="388" y="830"/>
      <point x="388" y="806" type="qcurve" smooth="yes"/>
      <point x="384" y="753"/>
    </contour>
  </outline>
</glyph>
<glyph name="agrave" format="2">
  <advance width="500" height="500"/>
  <unicode hex="00E0"/>
  <outline>
    <contour>
      <point x="195" y="-24" type="qcurve" smooth="yes"/>
      <point x="249" y="-24"/>
      <point x="348" y="45"/>
      <point x="368" y="86" type="qcurve"/>
      <point x="373" y="57" type="line" smooth="yes"/>
      <point x="379" y="28"/>
      <point x="402" y="-19"/>
      <point x="422" y="-19" type="qcurve" smooth="yes"/>
      <point x="443" y="-19"/>
      <point x="471" y="17"/>
      <point x="471" y="29" type="qcurve" smooth="yes"/>
      <point x="469" y="36" type="line"/>
      <point x="437" y="93"/>
      <point x="437" y="193" type="qcurve" smooth="yes"/>
      <point x="437" y="225"/>
      <point x="440" y="306" type="qcurve" smooth="yes"/>
      <point x="444" y="411"/>
      <point x="449" y="458" type="qcurve" smooth="yes"/>
      <point x="449" y="474"/>
      <point x="408" y="491"/>
      <point x="391" y="491" type="qcurve" smooth="yes"/>
      <point x="363" y="491"/>
      <point x="363" y="475" type="qcurve" smooth="yes"/>
      <point x="363" y="461" type="line"/>
      <point x="349" y="492"/>
      <point x="273" y="492" type="qcurve" smooth="yes"/>
      <point x="185" y="492"/>
      <point x="41" y="304"/>
      <point x="41" y="175" type="qcurve" smooth="yes"/>
      <point x="41" y="80"/>
      <point x="124" y="-24"/>
    </contour>
    <contour>
      <point x="194" y="48" type="qcurve" smooth="yes"/>
      <point x="121" y="48"/>
      <point x="121" y="180" type="qcurve" smooth="yes"/>
      <point x="121" y="286"/>
      <point x="223" y="422"/>
      <point x="273" y="422" type="qcurve" smooth="yes"/>
      <point x="314" y="422"/>
      <point x="341" y="373" type="qcurve" smooth="yes"/>
      <point x="346" y="365"/>
      <point x="363" y="365"/>
      <point x="363" y="362" type="qcurve" smooth="yes"/>
      <point x="363" y="360"/>
      <point x="361" y="358" type="qcurve" smooth="yes"/>
      <point x="361" y="330" type="line" smooth="yes"/>
      <point x="361" y="150"/>
      <point x="270" y="77" type="qcurve" smooth="yes"/>
      <point x="234" y="48"/>
    </contour>
    <contour>
      <point x="337" y="568" type="qcurve" smooth="yes"/>
      <point x="361" y="568"/>
      <point x="361" y="591" type="qcurve" smooth="yes"/>
      <point x="361" y="616"/>
      <point x="224" y="715" type="qcurve" smooth="yes"/>
      <point x="221" y="719"/>
      <point x="211" y="719" type="qcurve" smooth="yes"/>
      <point x="200" y="719"/>
      <point x="170" y="697"/>
      <point x="149" y="670"/>
      <point x="149" y="659" type="qcurve" smooth="yes"/>
      <point x="149" y="649"/>
      <point x="160" y="644" type="qcurve" smooth="yes"/>
      <point x="205" y="626"/>
      <point x="291" y="592"/>
      <point x="321" y="572" type="qcurve" smooth="yes"/>
      <point x="330" y="568"/>
    </contour>
  </outline>
</glyph>
<glyph name="eth" format="2">
  <advance height="1000" width="500"/>
  <unicode hex="00F0"/>
  <outline>
    <contour>
      <point x="240" y="-24" type="qcurve" smooth="yes"/>
      <point x="180" y="-24"/>
      <point x="91" y="37"/>
      <point x="42" y="140"/>
      <point x="42" y="204" type="qcurve" smooth="yes"/>
      <point x="42" y="350"/>
      <point x="144" y="430" type="qcurve" smooth="yes"/>
      <point x="192" y="466"/>
      <point x="252" y="466" type="qcurve" smooth="yes"/>
      <point x="294" y="466"/>
      <point x="366" y="435"/>
      <point x="368" y="434" type="qcurve"/>
      <point x="354" y="490"/>
      <point x="271" y="565" type="qcurve"/>
      <point x="174" y="508"/>
      <point x="154" y="494" type="qcurve" smooth="yes"/>
      <point x="145" y="488"/>
      <point x="139" y="488" type="qcurve" smooth="yes"/>
      <point x="128" y="488"/>
      <point x="107" y="509"/>
      <point x="95" y="533"/>
      <point x="95" y="543" type="qcurve" smooth="yes"/>
      <point x="95" y="558"/>
      <point x="107" y="561" type="qcurve" smooth="yes"/>
      <point x="143" y="579"/>
      <point x="202" y="614" type="qcurve"/>
      <point x="157" y="640"/>
      <point x="109" y="649" type="qcurve" smooth="yes"/>
      <point x="92" y="655"/>
      <point x="92" y="675" type="qcurve" smooth="yes"/>
      <point x="92" y="691"/>
      <point x="113" y="729"/>
      <point x="132" y="729" type="qcurve" smooth="yes"/>
      <point x="142" y="729"/>
      <point x="144" y="727" type="qcurve" smooth="yes"/>
      <point x="217" y="702"/>
      <point x="278" y="658" type="qcurve"/>
      <point x="382" y="722"/>
      <point x="390" y="725" type="qcurve" smooth="yes"/>
      <point x="409" y="725"/>
      <point x="438" y="686"/>
      <point x="438" y="671" type="qcurve" smooth="yes"/>
      <point x="438" y="657"/>
      <point x="394" y="636" type="qcurve" smooth="yes"/>
      <point x="382" y="631"/>
      <point x="338" y="605" type="qcurve"/>
      <point x="343" y="600" type="line"/>
      <point x="468" y="483"/>
      <point x="468" y="272" type="qcurve" smooth="yes"/>
      <point x="468" y="191"/>
      <point x="417" y="58"/>
      <point x="316" y="-24"/>
    </contour>
    <contour>
      <point x="241" y="52" type="qcurve" smooth="yes"/>
      <point x="283" y="52"/>
      <point x="351" y="101"/>
      <point x="393" y="198"/>
      <point x="393" y="268" type="qcurve" smooth="yes"/>
      <point x="393" y="303"/>
      <point x="388" y="338" type="qcurve"/>
      <point x="375" y="339"/>
      <point x="365" y="352" type="qcurve" smooth="yes"/>
      <point x="318" y="395"/>
      <point x="250" y="395" type="qcurve" smooth="yes"/>
      <point x="221" y="395"/>
      <point x="163" y="349"/>
      <point x="123" y="263"/>
      <point x="123" y="204" type="qcurve" smooth="yes"/>
      <point x="123" y="136"/>
      <point x="186" y="52"/>
    </contour>
  </outline>
</glyph>
<glyph name="ograve" format="2">
  <advance height="1000" width="500"/>
  <unicode hex="00F2"/>
  <outline>
    <contour>
      <point x="238" y="-24" type="qcurve" smooth="yes"/>
      <point x="143" y="-24"/>
      <point x="39" y="102"/>
      <point x="39" y="207" type="qcurve" smooth="yes"/>
      <point x="39" y="251"/>
      <point x="65" y="339"/>
      <point x="103" y="412"/>
      <point x="143" y="460"/>
      <point x="157" y="460" type="qcurve" smooth="yes"/>
      <point x="173" y="460"/>
      <point x="175" y="457" type="qcurve"/>
      <point x="214" y="492"/>
      <point x="278" y="492" type="qcurve" smooth="yes"/>
      <point x="388" y="492"/>
      <point x="440" y="376" type="qcurve" smooth="yes"/>
      <point x="462" y="323"/>
      <point x="462" y="245" type="qcurve" smooth="yes"/>
      <point x="462" y="148"/>
      <point x="406" y="64" type="qcurve" smooth="yes"/>
      <point x="344" y="-24"/>
    </contour>
    <contour>
      <point x="238" y="49" type="qcurve" smooth="yes"/>
      <point x="320" y="49"/>
      <point x="363" y="143" type="qcurve" smooth="yes"/>
      <point x="384" y="189"/>
      <point x="384" y="245" type="qcurve" smooth="yes"/>
      <point x="384" y="327"/>
      <point x="328" y="420"/>
      <point x="273" y="420" type="qcurve" smooth="yes"/>
      <point x="208" y="420"/>
      <point x="117" y="285"/>
      <point x="117" y="208" type="qcurve" smooth="yes"/>
      <point x="117" y="49"/>
    </contour>
    <contour>
      <point x="337" y="568" type="qcurve" smooth="yes"/>
      <point x="331" y="568"/>
      <point x="321" y="572" type="qcurve" smooth="yes"/>
      <point x="291" y="592"/>
      <point x="206" y="626"/>
      <point x="160" y="644" type="qcurve" smooth="yes"/>
      <point x="150" y="649"/>
      <point x="150" y="659" type="qcurve" smooth="yes"/>
      <point x="150" y="670"/>
      <point x="170" y="697"/>
      <point x="200" y="719"/>
      <point x="212" y="719" type="qcurve" smooth="yes"/>
      <point x="221" y="719"/>
      <point x="224" y="715" type="qcurve" smooth="yes"/>
      <point x="361" y="616"/>
      <point x="361" y="591" type="qcurve" smooth="yes"/>
      <point x="361" y="568"/>
    </contour>
  </outline>
</glyph>
<glyph name="odieresis" format="2">
  <advance height="1000" width="500"/>
  <unicode hex="00F6"/>
  <outline>
    <contour>
      <point x="236" y="-24" type="qcurve" smooth="yes"/>
      <point x="141" y="-24"/>
      <point x="37" y="102"/>
      <point x="37" y="207" type="qcurve" smooth="yes"/>
      <point x="37" y="251"/>
      <point x="64" y="339"/>
      <point x="101" y="412"/>
      <point x="141" y="460"/>
      <point x="155" y="460" type="qcurve" smooth="yes"/>
      <point x="171" y="460"/>
      <point x="173" y="457" type="qcurve"/>
      <point x="212" y="492"/>
      <point x="277" y="492" type="qcurve" smooth="yes"/>
      <point x="386" y="492"/>
      <point x="438" y="376" type="qcurve" smooth="yes"/>
      <point x="460" y="323"/>
      <point x="460" y="245" type="qcurve" smooth="yes"/>
      <point x="460" y="148"/>
      <point x="405" y="64" type="qcurve"/>
      <point x="342" y="-24"/>
    </contour>
    <contour>
      <point x="236" y="49" type="qcurve" smooth="yes"/>
      <point x="318" y="49"/>
      <point x="362" y="143" type="qcurve" smooth="yes"/>
      <point x="382" y="189"/>
      <point x="382" y="245" type="qcurve" smooth="yes"/>
      <point x="382" y="327"/>
      <point x="326" y="420"/>
      <point x="271" y="420" type="qcurve" smooth="yes"/>
      <point x="206" y="420"/>
      <point x="116" y="285"/>
      <point x="116" y="208" type="qcurve" smooth="yes"/>
      <point x="116" y="49"/>
    </contour>
    <contour>
      <point x="174" y="586" type="qcurve" smooth="yes"/>
      <point x="149" y="586"/>
      <point x="115" y="632"/>
      <point x="115" y="653" type="qcurve" smooth="yes"/>
      <point x="118" y="707"/>
      <point x="165" y="707" type="qcurve" smooth="yes"/>
      <point x="188" y="707"/>
      <point x="224" y="663"/>
      <point x="224" y="639" type="qcurve" smooth="yes"/>
      <point x="219" y="586"/>
    </contour>
    <contour>
      <point x="339" y="586" type="qcurve" smooth="yes"/>
      <point x="313" y="586"/>
      <point x="279" y="632"/>
      <point x="279" y="653" type="qcurve" smooth="yes"/>
      <point x="282" y="707"/>
      <point x="330" y="707" type="qcurve" smooth="yes"/>
      <point x="353" y="707"/>
      <point x="388" y="663"/>
      <point x="388" y="639" type="qcurve" smooth="yes"/>
      <point x="384" y="586"/>
    </contour>
  </outline>
</glyph>
<glyph name="divide" format="2">
  <advance height="1000" width="500"/>
  <unicode hex="00F7"/>
  <outline>
    <contour>
      <point x="69" y="324" type="qcurve" smooth="yes"/>
      <point x="39" y="324"/>
      <point x="39" y="369" type="qcurve" smooth="yes"/>
      <point x="39" y="399"/>
      <point x="63" y="399" type="qcurve" smooth="yes"/>
      <point x="92" y="397"/>
      <point x="252" y="397" type="qcurve" smooth="yes"/>
      <point x="402" y="397"/>
      <point x="434" y="399" type="qcurve" smooth="yes"/>
      <point x="448" y="399"/>
      <point x="461" y="369"/>
      <point x="461" y="355" type="qcurve" smooth="yes"/>
      <point x="461" y="325"/>
      <point x="439" y="325" type="qcurve" smooth="yes"/>
      <point x="419" y="325"/>
      <point x="387" y="327"/>
      <point x="251" y="327" type="qcurve" smooth="yes"/>
      <point x="86" y="327"/>
    </contour>
    <contour>
      <point x="251" y="79" type="qcurve" smooth="yes"/>
      <point x="227" y="79"/>
      <point x="192" y="124"/>
      <point x="192" y="145" type="qcurve" smooth="yes"/>
      <point x="192" y="172"/>
      <point x="226" y="199"/>
      <point x="251" y="199" type="qcurve" smooth="yes"/>
      <point x="273" y="199"/>
      <point x="309" y="154"/>
      <point x="309" y="131" type="qcurve" smooth="yes"/>
      <point x="309" y="79"/>
    </contour>
    <contour>
      <point x="251" y="507" type="qcurve" smooth="yes"/>
      <point x="227" y="507"/>
      <point x="192" y="552"/>
      <point x="192" y="573" type="qcurve" smooth="yes"/>
      <point x="192" y="600"/>
      <point x="226" y="627"/>
      <point x="251" y="627" type="qcurve" smooth="yes"/>
      <point x="273" y="627"/>
      <point x="309" y="582"/>
      <point x="309" y="559" type="qcurve" smooth="yes"/>
      <point x="309" y="507"/>
    </contour>
  </outline>
</glyph>
<glyph name="oslash" format="2">
  <advance height="1000" width="500"/>
  <unicode hex="00F8"/>
  <outline>
    <contour>
      <point x="90" y="-31" type="qcurve" smooth="yes"/>
      <point x="75" y="-31"/>
      <point x="46" y="3"/>
      <point x="46" y="18" type="qcurve" smooth="yes"/>
      <point x="46" y="28"/>
      <point x="68" y="53"/>
      <point x="74" y="61" type="qcurve"/>
      <point x="39" y="118"/>
      <point x="39" y="207" type="qcurve" smooth="yes"/>
      <point x="39" y="251"/>
      <point x="65" y="339"/>
      <point x="103" y="412"/>
      <point x="143" y="460"/>
      <point x="157" y="460" type="qcurve" smooth="yes"/>
      <point x="173" y="460"/>
      <point x="175" y="457" type="qcurve"/>
      <point x="214" y="492"/>
      <point x="278" y="492" type="qcurve" smooth="yes"/>
      <point x="335" y="492"/>
      <point x="370" y="465" type="qcurve"/>
      <point x="389" y="495" type="line" smooth="yes"/>
      <point x="394" y="504"/>
      <point x="405" y="504" type="qcurve" smooth="yes"/>
      <point x="420" y="504"/>
      <point x="448" y="469"/>
      <point x="448" y="453" type="qcurve" smooth="yes"/>
      <point x="448" y="442"/>
      <point x="427" y="418"/>
      <point x="421" y="411" type="qcurve"/>
      <point x="462" y="350"/>
      <point x="462" y="245" type="qcurve" smooth="yes"/>
      <point x="462" y="148"/>
      <point x="406" y="64" type="qcurve" smooth="yes"/>
      <point x="344" y="-24"/>
      <point x="238" y="-24" type="qcurve" smooth="yes"/>
      <point x="166" y="-24"/>
      <point x="126" y="7" type="qcurve"/>
      <point x="127" y="10" type="line"/>
      <point x="122" y="3"/>
      <point x="104" y="-31"/>
    </contour>
    <contour>
      <point x="238" y="49" type="qcurve" smooth="yes"/>
      <point x="320" y="49"/>
      <point x="363" y="143" type="qcurve" smooth="yes"/>
      <point x="384" y="189"/>
      <point x="384" y="245" type="qcurve" smooth="yes"/>
      <point x="384" y="312"/>
      <point x="371" y="342" type="qcurve"/>
      <point x="169" y="68" type="line"/>
      <point x="195" y="49"/>
    </contour>
    <contour>
      <point x="126" y="132" type="qcurve"/>
      <point x="326" y="405" type="line"/>
      <point x="307" y="420"/>
      <point x="273" y="420" type="qcurve" smooth="yes"/>
      <point x="208" y="420"/>
      <point x="117" y="285"/>
      <point x="117" y="208" type="qcurve" smooth="yes"/>
      <point x="117" y="155"/>
    </contour>
  </outline>
</glyph>
<glyph name="udieresis" format="2">
  <advance height="1000" width="500"/>
  <unicode hex="00FC"/>
  <outline>
    <contour>
      <point x="205" y="-24" type="qcurve" smooth="yes"/>
      <point x="61" y="-24"/>
      <point x="61" y="171" type="qcurve" smooth="yes"/>
      <point x="61" y="371"/>
      <point x="58" y="474" type="qcurve" smooth="yes"/>
      <point x="60" y="490"/>
      <point x="85" y="490" type="qcurve" smooth="yes"/>
      <point x="102" y="490"/>
      <point x="142" y="472"/>
      <point x="142" y="456" type="qcurve" smooth="yes"/>
      <point x="140" y="340"/>
      <point x="140" y="175" type="qcurve" smooth="yes"/>
      <point x="140" y="118"/>
      <point x="175" y="48"/>
      <point x="205" y="48" type="qcurve" smooth="yes"/>
      <point x="238" y="48"/>
      <point x="307" y="110"/>
      <point x="357" y="226"/>
      <point x="361" y="301" type="qcurve" smooth="yes"/>
      <point x="362" y="318"/>
      <point x="362" y="475" type="qcurve" smooth="yes"/>
      <point x="362" y="491"/>
      <point x="390" y="491" type="qcurve" smooth="yes"/>
      <point x="407" y="491"/>
      <point x="446" y="474"/>
      <point x="446" y="458" type="qcurve" smooth="yes"/>
      <point x="436" y="382"/>
      <point x="436" y="237" type="qcurve" smooth="yes"/>
      <point x="436" y="98"/>
      <point x="470" y="36" type="qcurve"/>
      <point x="471" y="29" type="line" smooth="yes"/>
      <point x="471" y="17"/>
      <point x="443" y="-19"/>
      <point x="422" y="-19" type="qcurve" smooth="yes"/>
      <point x="393" y="-19"/>
      <point x="370" y="78"/>
      <point x="369" y="78" type="qcurve" smooth="yes"/>
      <point x="359" y="55"/>
      <point x="265" y="-24"/>
    </contour>
    <contour>
      <point x="174" y="586" type="qcurve" smooth="yes"/>
      <point x="148" y="586"/>
      <point x="114" y="632"/>
      <point x="114" y="653" type="qcurve" smooth="yes"/>
      <point x="117" y="707"/>
      <point x="165" y="707" type="qcurve" smooth="yes"/>
      <point x="188" y="707"/>
      <point x="223" y="663"/>
      <point x="223" y="639" type="qcurve" smooth="yes"/>
      <point x="219" y="586"/>
    </contour>
    <contour>
      <point x="338" y="586" type="qcurve" smooth="yes"/>
      <point x="313" y="586"/>
      <point x="279" y="632"/>
      <point x="279" y="653" type="qcurve" smooth="yes"/>
      <point x="282" y="707"/>
      <point x="329" y="707" type="qcurve" smooth="yes"/>
      <point x="353" y="707"/>
      <point x="388" y="663"/>
      <point x="388" y="639" type="qcurve" smooth="yes"/>
      <point x="384" y="586"/>
    </contour>
  </outline>
</glyph>
<glyph name="yacute" format="2">
  <advance height="500" width="500"/>
  <unicode hex="00FD"/>
  <outline>
    <contour>
      <point x="127" y="-170" type="line" smooth="yes"/>
      <point x="166" y="-170"/>
      <point x="216" y="-127"/>
      <point x="235" y="-83" type="qcurve" smooth="yes"/>
      <point x="433" y="379"/>
      <point x="459" y="432" type="qcurve" smooth="yes"/>
      <point x="463" y="440"/>
      <point x="463" y="447" type="qcurve" smooth="yes"/>
      <point x="463" y="465"/>
      <point x="427" y="491"/>
      <point x="410" y="491" type="qcurve" smooth="yes"/>
      <point x="391" y="491"/>
      <point x="385" y="477" type="qcurve" smooth="yes"/>
      <point x="372" y="428"/>
      <point x="353" y="384" type="qcurve" smooth="yes"/>
      <point x="252" y="147" type="line"/>
      <point x="139" y="436"/>
      <point x="129" y="468" type="qcurve" smooth="yes"/>
      <point x="122" y="486"/>
      <point x="85" y="486" type="qcurve" smooth="yes"/>
      <point x="40" y="486"/>
      <point x="40" y="464" type="qcurve"/>
      <point x="42" y="457" type="line"/>
      <point x="60" y="423"/>
      <point x="210" y="46" type="qcurve"/>
      <point x="170" y="-45" type="line" smooth="yes"/>
      <point x="149" y="-95"/>
      <point x="124" y="-95" type="qcurve" smooth="yes"/>
      <point x="97" y="-95"/>
      <point x="82" y="-79" type="qcurve" smooth="yes"/>
      <point x="75" y="-69"/>
      <point x="62" y="-69" type="qcurve" smooth="yes"/>
      <point x="44" y="-69"/>
      <point x="24" y="-109"/>
      <point x="24" y="-124" type="qcurve" smooth="yes"/>
      <point x="24" y="-132"/>
      <point x="29" y="-140" type="qcurve" smooth="yes"/>
      <point x="65" y="-170"/>
      <point x="118" y="-170" type="qcurve" smooth="yes"/>
    </contour>
    <contour>
      <point x="176" y="568" type="qcurve" smooth="yes"/>
      <point x="183" y="568"/>
      <point x="191" y="573" type="qcurve" smooth="yes"/>
      <point x="221" y="592"/>
      <point x="308" y="626"/>
      <point x="352" y="644" type="qcurve" smooth="yes"/>
      <point x="363" y="649"/>
      <point x="363" y="659" type="qcurve" smooth="yes"/>
      <point x="363" y="671"/>
      <point x="340" y="697"/>
      <point x="314" y="719"/>
      <point x="301" y="719" type="qcurve" smooth="yes"/>
      <point x="294" y="719"/>
      <point x="289" y="716" type="qcurve" smooth="yes"/>
      <point x="151" y="615"/>
      <point x="151" y="591" type="qcurve" smooth="yes"/>
      <point x="151" y="583"/>
      <point x="164" y="568"/>
    </contour>
  </outline>
</glyph>
<glyph name="abreve" format="2">
  <advance height="1000" width="500"/>
  <unicode hex="0103"/>
  <outline>
    <contour>
      <point x="187" y="-24" type="qcurve" smooth="yes"/>
      <point x="116" y="-24"/>
      <point x="33" y="80"/>
      <point x="33" y="175" type="qcurve" smooth="yes"/>
      <point x="33" y="301"/>
      <point x="175" y="492"/>
      <point x="265" y="492" type="qcurve" smooth="yes"/>
      <point x="341" y="492"/>
      <point x="355" y="461" type="qcurve"/>
      <point x="355" y="475" type="line" smooth="yes"/>
      <point x="355" y="491"/>
      <point x="380" y="491" type="qcurve" smooth="yes"/>
      <point x="400" y="491"/>
      <point x="441" y="474"/>
      <point x="441" y="458" type="qcurve" smooth="yes"/>
      <point x="429" y="368"/>
      <point x="429" y="195" type="qcurve" smooth="yes"/>
      <point x="429" y="91"/>
      <point x="460" y="37" type="qcurve" smooth="yes"/>
      <point x="463" y="31"/>
      <point x="463" y="25" type="qcurve" smooth="yes"/>
      <point x="463" y="17"/>
      <point x="435" y="-19"/>
      <point x="415" y="-19" type="qcurve" smooth="yes"/>
      <point x="370" y="-19"/>
      <point x="359" y="86" type="qcurve"/>
      <point x="340" y="45"/>
      <point x="241" y="-24"/>
    </contour>
    <contour>
      <point x="190" y="48" type="qcurve" smooth="yes"/>
      <point x="226" y="48"/>
      <point x="261" y="78" type="qcurve" smooth="yes"/>
      <point x="353" y="152"/>
      <point x="353" y="330" type="qcurve" smooth="yes"/>
      <point x="353" y="354" type="line" smooth="yes"/>
      <point x="356" y="358"/>
      <point x="356" y="361" type="qcurve" smooth="yes"/>
      <point x="356" y="365"/>
      <point x="349" y="365" type="qcurve" smooth="yes"/>
      <point x="338" y="365"/>
      <point x="333" y="373" type="qcurve" smooth="yes"/>
      <point x="306" y="422"/>
      <point x="259" y="422" type="qcurve" smooth="yes"/>
      <point x="211" y="422"/>
      <point x="112" y="283"/>
      <point x="112" y="180" type="qcurve" smooth="yes"/>
      <point x="112" y="48"/>
    </contour>
    <contour>
      <point x="263" y="535" type="qcurve" smooth="yes"/>
      <point x="191" y="535"/>
      <point x="143" y="580" type="qcurve" smooth="yes"/>
      <point x="103" y="615"/>
      <point x="103" y="637" type="qcurve" smooth="yes"/>
      <point x="103" y="647"/>
      <point x="131" y="670"/>
      <point x="147" y="670" type="qcurve" smooth="yes"/>
      <point x="164" y="670"/>
      <point x="171" y="656" type="qcurve" smooth="yes"/>
      <point x="197" y="606"/>
      <point x="262" y="606" type="qcurve" smooth="yes"/>
      <point x="294" y="606"/>
      <point x="338" y="627"/>
      <point x="353" y="656" type="qcurve" smooth="yes"/>
      <point x="360" y="670"/>
      <point x="377" y="670" type="qcurve" smooth="yes"/>
      <point x="393" y="670"/>
      <point x="419" y="647"/>
      <point x="419" y="637" type="qcurve" smooth="yes"/>
      <point x="419" y="614"/>
      <point x="335" y="535"/>
    </contour>
  </outline>
</glyph>
<glyph name="Aogonek" format="2">
  <advance width="500" height="500"/>
  <unicode hex="0104"/>
  <outline>
    <contour>
      <point x="444" y="-198" type="qcurve" smooth="yes"/>
      <point x="484" y="-198"/>
      <point x="536" y="-163"/>
      <point x="567" y="-121"/>
      <point x="567" y="-108" type="qcurve" smooth="yes"/>
      <point x="567" y="-91"/>
      <point x="549" y="-91" type="qcurve" smooth="yes"/>
      <point x="534" y="-91"/>
      <point x="522" y="-105" type="qcurve" smooth="yes"/>
      <point x="496" y="-131"/>
      <point x="463" y="-131" type="qcurve" smooth="yes"/>
      <point x="435" y="-131"/>
      <point x="435" y="-104" type="qcurve" smooth="yes"/>
      <point x="435" y="-48"/>
      <point x="485" y="7"/>
      <point x="485" y="17" type="qcurve" smooth="yes"/>
      <point x="485" y="22"/>
      <point x="482" y="28" type="qcurve" smooth="yes"/>
      <point x="440" y="97"/>
      <point x="321" y="591" type="qcurve" smooth="yes"/>
      <point x="305" y="655"/>
      <point x="305" y="659" type="qcurve" smooth="yes"/>
      <point x="305" y="663"/>
      <point x="308" y="674"/>
      <point x="308" y="679" type="qcurve" smooth="yes"/>
      <point x="308" y="684"/>
      <point x="306" y="686" type="qcurve" smooth="yes"/>
      <point x="303" y="697"/>
      <point x="261" y="717"/>
      <point x="243" y="717" type="qcurve" smooth="yes"/>
      <point x="226" y="717"/>
      <point x="214" y="700"/>
      <point x="212" y="683" type="qcurve" smooth="yes"/>
      <point x="203" y="626"/>
      <point x="107" y="285" type="qcurve"/>
      <point x="65" y="291" type="line" smooth="yes"/>
      <point x="46" y="291"/>
      <point x="46" y="270" type="qcurve" smooth="yes"/>
      <point x="46" y="259"/>
      <point x="55" y="234"/>
      <point x="69" y="212"/>
      <point x="81" y="212" type="qcurve" smooth="yes"/>
      <point x="85" y="212" type="line"/>
      <point x="85" y="211"/>
      <point x="84" y="211" type="qcurve" smooth="yes"/>
      <point x="53" y="101"/>
      <point x="19" y="25" type="qcurve" smooth="yes"/>
      <point x="15" y="17"/>
      <point x="15" y="12" type="qcurve" smooth="yes"/>
      <point x="15" y="-1"/>
      <point x="42" y="-13"/>
      <point x="56" y="-13" type="qcurve" smooth="yes"/>
      <point x="93" y="-13"/>
      <point x="102" y="9" type="qcurve" smooth="yes"/>
      <point x="124" y="97" type="line"/>
      <point x="151" y="186"/>
      <point x="160" y="219" type="qcurve"/>
      <point x="339" y="230" type="line"/>
      <point x="390" y="39"/>
      <point x="397" y="3" type="qcurve"/>
      <point x="356" y="-38"/>
      <point x="356" y="-109" type="qcurve" smooth="yes"/>
      <point x="356" y="-146"/>
      <point x="404" y="-198"/>
    </contour>
    <contour>
      <point x="179" y="288" type="line"/>
      <point x="228" y="465"/>
      <point x="255" y="568" type="qcurve"/>
      <point x="265" y="529" type="line" smooth="yes"/>
      <point x="298" y="388"/>
      <point x="322" y="296" type="qcurve"/>
    </contour>
  </outline>
</glyph>
<glyph name="aogonek" format="2">
  <advance height="1000" width="500"/>
  <unicode hex="0105"/>
  <outline>
    <contour>
      <point x="425" y="-182" type="qcurve" smooth="yes"/>
      <point x="384" y="-182"/>
      <point x="336" y="-130"/>
      <point x="336" y="-93" type="qcurve" smooth="yes"/>
      <point x="336" y="-24"/>
      <point x="376" y="18" type="qcurve"/>
      <point x="363" y="50"/>
      <point x="360" y="85" type="qcurve"/>
      <point x="341" y="45"/>
      <point x="242" y="-24"/>
      <point x="187" y="-24" type="qcurve" smooth="yes"/>
      <point x="116" y="-24"/>
      <point x="34" y="80"/>
      <point x="34" y="175" type="qcurve" smooth="yes"/>
      <point x="34" y="301"/>
      <point x="175" y="492"/>
      <point x="265" y="492" type="qcurve" smooth="yes"/>
      <point x="342" y="492"/>
      <point x="355" y="462" type="qcurve"/>
      <point x="355" y="475" type="line" smooth="yes"/>
      <point x="355" y="491"/>
      <point x="380" y="491" type="qcurve" smooth="yes"/>
      <point x="400" y="491"/>
      <point x="441" y="474"/>
      <point x="441" y="458" type="qcurve" smooth="yes"/>
      <point x="430" y="368"/>
      <point x="430" y="195" type="qcurve" smooth="yes"/>
      <point x="430" y="91"/>
      <point x="460" y="37" type="qcurve" smooth="yes"/>
      <point x="463" y="31"/>
      <point x="463" y="25" type="qcurve" smooth="yes"/>
      <point x="463" y="22"/>
      <point x="458" y="10"/>
      <point x="444" y="-7"/>
      <point x="439" y="-11" type="qcurve" smooth="yes"/>
      <point x="415" y="-46"/>
      <point x="415" y="-88" type="qcurve" smooth="yes"/>
      <point x="415" y="-115"/>
      <point x="444" y="-115" type="qcurve" smooth="yes"/>
      <point x="476" y="-115"/>
      <point x="502" y="-89" type="qcurve" smooth="yes"/>
      <point x="514" y="-75"/>
      <point x="529" y="-75" type="qcurve" smooth="yes"/>
      <point x="547" y="-75"/>
      <point x="547" y="-92" type="qcurve" smooth="yes"/>
      <point x="547" y="-105"/>
      <point x="516" y="-147"/>
      <point x="465" y="-182"/>
    </contour>
    <contour>
      <point x="190" y="48" type="qcurve" smooth="yes"/>
      <point x="226" y="48"/>
      <point x="261" y="78" type="qcurve" smooth="yes"/>
      <point x="353" y="152"/>
      <point x="353" y="330" type="qcurve" smooth="yes"/>
      <point x="353" y="359" type="line" smooth="yes"/>
      <point x="355" y="361"/>
      <point x="355" y="363" type="qcurve" smooth="yes"/>
      <point x="355" y="365"/>
      <point x="339" y="365"/>
      <point x="333" y="373" type="qcurve" smooth="yes"/>
      <point x="307" y="422"/>
      <point x="260" y="422" type="qcurve" smooth="yes"/>
      <point x="212" y="422"/>
      <point x="113" y="283"/>
      <point x="113" y="180" type="qcurve" smooth="yes"/>
      <point x="113" y="48"/>
    </contour>
  </outline>
</glyph>
<glyph name="cacute" format="2">
  <advance height="1000" width="500"/>
  <unicode hex="0107"/>
  <outline>
    <contour>
      <point x="237" y="-24" type="qcurve" smooth="yes"/>
      <point x="187" y="-24"/>
      <point x="102" y="28"/>
      <point x="53" y="126"/>
      <point x="53" y="190" type="qcurve" smooth="yes"/>
      <point x="53" y="254"/>
      <point x="95" y="362"/>
      <point x="162" y="444"/>
      <point x="249" y="492"/>
      <point x="291" y="492" type="qcurve" smooth="yes"/>
      <point x="333" y="492"/>
      <point x="388" y="467"/>
      <point x="419" y="433"/>
      <point x="433" y="404"/>
      <point x="433" y="401" type="qcurve" smooth="yes"/>
      <point x="433" y="384"/>
      <point x="402" y="349"/>
      <point x="389" y="349" type="qcurve" smooth="yes"/>
      <point x="374" y="349"/>
      <point x="370" y="358" type="qcurve" smooth="yes"/>
      <point x="354" y="395"/>
      <point x="343" y="403" type="qcurve" smooth="yes"/>
      <point x="320" y="421"/>
      <point x="296" y="421" type="qcurve" smooth="yes"/>
      <point x="243" y="421"/>
      <point x="189" y="357" type="qcurve" smooth="yes"/>
      <point x="133" y="287"/>
      <point x="133" y="199" type="qcurve" smooth="yes"/>
      <point x="133" y="147"/>
      <point x="150" y="114" type="qcurve" smooth="yes"/>
      <point x="183" y="46"/>
      <point x="243" y="46" type="qcurve" smooth="yes"/>
      <point x="324" y="46"/>
      <point x="413" y="144" type="qcurve" smooth="yes"/>
      <point x="428" y="161"/>
      <point x="442" y="161" type="qcurve" smooth="yes"/>
      <point x="458" y="161"/>
      <point x="458" y="146" type="qcurve" smooth="yes"/>
      <point x="458" y="137"/>
      <point x="432" y="84"/>
      <point x="406" y="53" type="qcurve" smooth="yes"/>
      <point x="339" y="-24"/>
    </contour>
    <contour>
      <point x="198" y="568" type="qcurve" smooth="yes"/>
      <point x="188" y="568"/>
      <point x="175" y="583"/>
      <point x="175" y="591" type="qcurve" smooth="yes"/>
      <point x="175" y="614"/>
      <point x="313" y="716" type="qcurve" smooth="yes"/>
      <point x="317" y="719"/>
      <point x="327" y="719" type="qcurve" smooth="yes"/>
      <point x="337" y="719"/>
      <point x="352" y="708" type="qcurve" smooth="yes"/>
      <point x="386" y="681"/>
      <point x="386" y="659" type="qcurve" smooth="yes"/>
      <point x="386" y="650"/>
      <point x="376" y="644" type="qcurve" smooth="yes"/>
      <point x="331" y="625"/>
      <point x="245" y="593"/>
      <point x="207" y="568"/>
    </contour>
  </outline>
</glyph>
<glyph name="Ccircumflex" format="2">
  <advance height="1000" width="500"/>
  <unicode hex="0108"/>
  <outline>
    <contour>
      <point x="247" y="-22" type="qcurve" smooth="yes"/>
      <point x="184" y="-22"/>
      <point x="86" y="43"/>
      <point x="29" y="183"/>
      <point x="29" y="293" type="qcurve" smooth="yes"/>
      <point x="29" y="470"/>
      <point x="173" y="718"/>
      <point x="280" y="718" type="qcurve" smooth="yes"/>
      <point x="389" y="718"/>
      <point x="456" y="622" type="qcurve" smooth="yes"/>
      <point x="460" y="617"/>
      <point x="460" y="610" type="qcurve" smooth="yes"/>
      <point x="460" y="595"/>
      <point x="435" y="555"/>
      <point x="419" y="555" type="qcurve" smooth="yes"/>
      <point x="406" y="555"/>
      <point x="399" y="567" type="qcurve" smooth="yes"/>
      <point x="360" y="641"/>
      <point x="277" y="641" type="qcurve" smooth="yes"/>
      <point x="187" y="641"/>
      <point x="132" y="475" type="qcurve" smooth="yes"/>
      <point x="108" y="396"/>
      <point x="108" y="295" type="qcurve" smooth="yes"/>
      <point x="108" y="54"/>
      <point x="251" y="54" type="qcurve" smooth="yes"/>
      <point x="351" y="54"/>
      <point x="425" y="176" type="qcurve" smooth="yes"/>
      <point x="437" y="194"/>
      <point x="453" y="194" type="qcurve" smooth="yes"/>
      <point x="474" y="194"/>
      <point x="474" y="169" type="qcurve" smooth="yes"/>
      <point x="474" y="162"/>
      <point x="466" y="142" type="qcurve" smooth="yes"/>
      <point x="449" y="97"/>
      <point x="395" y="41" type="qcurve" smooth="yes"/>
      <point x="331" y="-22"/>
    </contour>
    <contour>
      <point x="153" y="726" type="qcurve" smooth="yes"/>
      <point x="128" y="726"/>
      <point x="128" y="747" type="qcurve" smooth="yes"/>
      <point x="128" y="768"/>
      <point x="231" y="881" type="qcurve" smooth="yes"/>
      <point x="243" y="894"/>
      <point x="266" y="898"/>
      <point x="288" y="898" type="qcurve" smooth="yes"/>
      <point x="312" y="898"/>
      <point x="336" y="871"/>
      <point x="354" y="852" type="qcurve" smooth="yes"/>
      <point x="433" y="766"/>
      <point x="433" y="748" type="qcurve" smooth="yes"/>
      <point x="433" y="726"/>
      <point x="408" y="726" type="qcurve" smooth="yes"/>
      <point x="396" y="726"/>
      <point x="362" y="759"/>
      <point x="281" y="816" type="qcurve"/>
      <point x="197" y="756"/>
      <point x="164" y="726"/>
    </contour>
  </outline>
</glyph>
<glyph name="Dcaron" format="2">
  <advance height="1000" width="500"/>
  <unicode hex="010E"/>
  <outline>
    <contour>
      <point x="129" y="-14" type="qcurve" smooth="yes"/>
      <point x="74" y="-14"/>
      <point x="31" y="-6"/>
      <point x="20" y="11"/>
      <point x="20" y="16" type="qcurve" smooth="yes"/>
      <point x="20" y="42"/>
      <point x="56" y="42" type="qcurve"/>
      <point x="56" y="625" type="line"/>
      <point x="49" y="628"/>
      <point x="32" y="656"/>
      <point x="32" y="669" type="qcurve" smooth="yes"/>
      <point x="32" y="699"/>
      <point x="147" y="714" type="qcurve" smooth="yes"/>
      <point x="178" y="718"/>
      <point x="209" y="718" type="qcurve" smooth="yes"/>
      <point x="280" y="718"/>
      <point x="398" y="644"/>
      <point x="470" y="491"/>
      <point x="470" y="367" type="qcurve" smooth="yes"/>
      <point x="470" y="258"/>
      <point x="409" y="106"/>
      <point x="312" y="18"/>
      <point x="224" y="-8"/>
      <point x="161" y="-13"/>
    </contour>
    <contour>
      <point x="136" y="47" type="line"/>
      <point x="173" y="49"/>
      <point x="238" y="73" type="qcurve" smooth="yes"/>
      <point x="275" y="86"/>
      <point x="308" y="120" type="qcurve" smooth="yes"/>
      <point x="390" y="205"/>
      <point x="390" y="368" type="qcurve" smooth="yes"/>
      <point x="390" y="473"/>
      <point x="338" y="593"/>
      <point x="250" y="642"/>
      <point x="200" y="642" type="qcurve" smooth="yes"/>
      <point x="158" y="642"/>
      <point x="136" y="632" type="qcurve"/>
    </contour>
    <contour>
      <point x="246" y="744" type="qcurve" smooth="yes"/>
      <point x="191" y="744"/>
      <point x="105" y="872" type="qcurve" smooth="yes"/>
      <point x="93" y="888"/>
      <point x="93" y="894" type="qcurve" smooth="yes"/>
      <point x="93" y="916"/>
      <point x="119" y="916" type="qcurve" smooth="yes"/>
      <point x="130" y="916"/>
      <point x="160" y="888"/>
      <point x="222" y="845"/>
      <point x="246" y="826" type="qcurve"/>
      <point x="272" y="845"/>
      <point x="332" y="888"/>
      <point x="362" y="916"/>
      <point x="373" y="916" type="qcurve" smooth="yes"/>
      <point x="398" y="916"/>
      <point x="398" y="894" type="qcurve" smooth="yes"/>
      <point x="398" y="876"/>
      <point x="318" y="790" type="qcurve" smooth="yes"/>
      <point x="305" y="776"/>
      <point x="278" y="744"/>
    </contour>
  </outline>
</glyph>
<glyph name="dcaron" format="2">
  <advance height="1000" width="500"/>
  <unicode hex="010F"/>
  <outline>
    <contour>
      <point x="173" y="-24" type="qcurve" smooth="yes"/>
      <point x="109" y="-24"/>
      <point x="23" y="87"/>
      <point x="23" y="186" type="qcurve" smooth="yes"/>
      <point x="23" y="305"/>
      <point x="164" y="492"/>
      <point x="256" y="492" type="qcurve" smooth="yes"/>
      <point x="294" y="492"/>
      <point x="322" y="476" type="qcurve" smooth="yes"/>
      <point x="344" y="463"/>
      <point x="348" y="463" type="qcurve"/>
      <point x="348" y="464" type="line" smooth="yes"/>
      <point x="348" y="593"/>
      <point x="345" y="699" type="qcurve" smooth="yes"/>
      <point x="345" y="715"/>
      <point x="369" y="715" type="qcurve" smooth="yes"/>
      <point x="388" y="715"/>
      <point x="427" y="697"/>
      <point x="427" y="681" type="qcurve" smooth="yes"/>
      <point x="426" y="592"/>
      <point x="426" y="185" type="qcurve" smooth="yes"/>
      <point x="426" y="143"/>
      <point x="442" y="60"/>
      <point x="455" y="41" type="qcurve" smooth="yes"/>
      <point x="458" y="35"/>
      <point x="458" y="28" type="qcurve" smooth="yes"/>
      <point x="458" y="19"/>
      <point x="429" y="-18"/>
      <point x="411" y="-18" type="qcurve" smooth="yes"/>
      <point x="382" y="-18"/>
      <point x="367" y="36" type="qcurve" smooth="yes"/>
      <point x="353" y="85"/>
      <point x="351" y="85" type="qcurve"/>
      <point x="351" y="84" type="line"/>
      <point x="292" y="-24"/>
    </contour>
    <contour>
      <point x="174" y="48" type="qcurve" smooth="yes"/>
      <point x="234" y="48"/>
      <point x="348" y="185"/>
      <point x="348" y="276" type="qcurve" smooth="yes"/>
      <point x="348" y="376" type="line"/>
      <point x="348" y="371"/>
      <point x="343" y="371" type="qcurve" smooth="yes"/>
      <point x="338" y="371"/>
      <point x="332" y="380" type="qcurve" smooth="yes"/>
      <point x="305" y="422"/>
      <point x="252" y="422" type="qcurve" smooth="yes"/>
      <point x="228" y="422"/>
      <point x="172" y="384"/>
      <point x="150" y="350" type="qcurve" smooth="yes"/>
      <point x="102" y="275"/>
      <point x="102" y="196" type="qcurve" smooth="yes"/>
      <point x="102" y="117"/>
      <point x="147" y="48"/>
    </contour>
    <contour>
      <point x="471" y="475" type="qcurve" smooth="yes"/>
      <point x="440" y="475"/>
      <point x="437" y="493" type="qcurve" smooth="yes"/>
      <point x="433" y="670" type="line" smooth="yes"/>
      <point x="433" y="682"/>
      <point x="458" y="694"/>
      <point x="470" y="694" type="qcurve" smooth="yes"/>
      <point x="507" y="694"/>
      <point x="507" y="671" type="qcurve" smooth="yes"/>
      <point x="502" y="494" type="line" smooth="yes"/>
      <point x="502" y="475"/>
    </contour>
  </outline>
</glyph>
<glyph name="dcroat" format="2">
  <advance height="1000" width="500"/>
  <unicode hex="0111"/>
  <outline>
    <contour>
      <point x="174" y="-24" type="qcurve" smooth="yes"/>
      <point x="109" y="-24"/>
      <point x="24" y="87"/>
      <point x="24" y="186" type="qcurve" smooth="yes"/>
      <point x="24" y="305"/>
      <point x="164" y="492"/>
      <point x="257" y="492" type="qcurve" smooth="yes"/>
      <point x="294" y="492"/>
      <point x="348" y="462"/>
      <point x="349" y="462" type="qcurve"/>
      <point x="349" y="530" type="line"/>
      <point x="339" y="529"/>
      <point x="323" y="529" type="qcurve" smooth="yes"/>
      <point x="270" y="525" type="line" smooth="yes"/>
      <point x="251" y="525"/>
      <point x="233" y="560"/>
      <point x="233" y="574" type="qcurve" smooth="yes"/>
      <point x="233" y="593"/>
      <point x="251" y="593" type="qcurve" smooth="yes"/>
      <point x="328" y="593"/>
      <point x="349" y="595" type="qcurve"/>
      <point x="345" y="699" type="line" smooth="yes"/>
      <point x="345" y="715"/>
      <point x="369" y="715" type="qcurve" smooth="yes"/>
      <point x="389" y="715"/>
      <point x="428" y="697"/>
      <point x="428" y="681" type="qcurve" smooth="yes"/>
      <point x="426" y="636"/>
      <point x="426" y="598" type="qcurve"/>
      <point x="479" y="602" type="line" smooth="yes"/>
      <point x="496" y="602"/>
      <point x="517" y="568"/>
      <point x="517" y="553" type="qcurve" smooth="yes"/>
      <point x="517" y="534"/>
      <point x="498" y="534" type="qcurve" smooth="yes"/>
      <point x="440" y="534"/>
      <point x="422" y="533" type="qcurve"/>
      <point x="426" y="533" type="line"/>
      <point x="426" y="185" type="line" smooth="yes"/>
      <point x="426" y="143"/>
      <point x="442" y="60"/>
      <point x="457" y="41" type="qcurve" smooth="yes"/>
      <point x="458" y="35"/>
      <point x="458" y="28" type="qcurve" smooth="yes"/>
      <point x="458" y="19"/>
      <point x="430" y="-18"/>
      <point x="412" y="-18" type="qcurve" smooth="yes"/>
      <point x="382" y="-18"/>
      <point x="367" y="36" type="qcurve" smooth="yes"/>
      <point x="353" y="85"/>
      <point x="351" y="85" type="qcurve"/>
      <point x="351" y="84" type="line"/>
      <point x="295" y="-24"/>
    </contour>
    <contour>
      <point x="175" y="48" type="qcurve" smooth="yes"/>
      <point x="235" y="48"/>
      <point x="349" y="185"/>
      <point x="349" y="276" type="qcurve" smooth="yes"/>
      <point x="349" y="376" type="line"/>
      <point x="349" y="371"/>
      <point x="344" y="371" type="qcurve" smooth="yes"/>
      <point x="339" y="371"/>
      <point x="333" y="380" type="qcurve" smooth="yes"/>
      <point x="306" y="422"/>
      <point x="253" y="422" type="qcurve" smooth="yes"/>
      <point x="229" y="422"/>
      <point x="173" y="384"/>
      <point x="151" y="350" type="qcurve" smooth="yes"/>
      <point x="103" y="275"/>
      <point x="103" y="196" type="qcurve" smooth="yes"/>
      <point x="103" y="117"/>
      <point x="148" y="48"/>
    </contour>
  </outline>
</glyph>
<glyph name="Eogonek" format="2">
  <advance height="1000" width="500"/>
  <unicode hex="0118"/>
  <outline>
    <contour>
      <point x="438" y="-199" type="qcurve" smooth="yes"/>
      <point x="397" y="-199"/>
      <point x="349" y="-147"/>
      <point x="349" y="-110" type="qcurve" smooth="yes"/>
      <point x="349" y="-39"/>
      <point x="383" y="-5" type="qcurve"/>
      <point x="378" y="-5" type="line"/>
      <point x="134" y="-9"/>
      <point x="115" y="-16"/>
      <point x="100" y="-16" type="qcurve" smooth="yes"/>
      <point x="82" y="-16"/>
      <point x="54" y="24"/>
      <point x="54" y="37" type="qcurve" smooth="yes"/>
      <point x="54" y="46"/>
      <point x="60" y="73"/>
      <point x="60" y="342" type="qcurve"/>
      <point x="50" y="348"/>
      <point x="36" y="382"/>
      <point x="36" y="393" type="qcurve" smooth="yes"/>
      <point x="38" y="410"/>
      <point x="54" y="410" type="qcurve" smooth="yes"/>
      <point x="60" y="409" type="line"/>
      <point x="60" y="613"/>
      <point x="57" y="684" type="qcurve" smooth="yes"/>
      <point x="57" y="705"/>
      <point x="77" y="705" type="qcurve" smooth="yes"/>
      <point x="98" y="705"/>
      <point x="127" y="692" type="qcurve"/>
      <point x="371" y="714" type="line" smooth="yes"/>
      <point x="400" y="718"/>
      <point x="407" y="718" type="qcurve" smooth="yes"/>
      <point x="427" y="718"/>
      <point x="446" y="677"/>
      <point x="446" y="663" type="qcurve" smooth="yes"/>
      <point x="446" y="640"/>
      <point x="426" y="640" type="qcurve" smooth="yes"/>
      <point x="362" y="640" type="line" smooth="yes"/>
      <point x="347" y="640"/>
      <point x="137" y="622" type="qcurve"/>
      <point x="137" y="410" type="line"/>
      <point x="301" y="423"/>
      <point x="322" y="426" type="qcurve" smooth="yes"/>
      <point x="351" y="430"/>
      <point x="359" y="430" type="qcurve" smooth="yes"/>
      <point x="378" y="430"/>
      <point x="398" y="389"/>
      <point x="398" y="374" type="qcurve" smooth="yes"/>
      <point x="398" y="351"/>
      <point x="378" y="351" type="qcurve" smooth="yes"/>
      <point x="314" y="351" type="line" smooth="yes"/>
      <point x="301" y="351"/>
      <point x="137" y="338" type="qcurve"/>
      <point x="137" y="65" type="line"/>
      <point x="417" y="71"/>
      <point x="433" y="73" type="qcurve" smooth="yes"/>
      <point x="440" y="73" type="line" smooth="yes"/>
      <point x="458" y="73"/>
      <point x="478" y="30"/>
      <point x="478" y="14" type="qcurve" smooth="yes"/>
      <point x="478" y="-1"/>
      <point x="470" y="-5" type="qcurve" smooth="yes"/>
      <point x="428" y="-49"/>
      <point x="428" y="-105" type="qcurve" smooth="yes"/>
      <point x="428" y="-132"/>
      <point x="457" y="-132" type="qcurve" smooth="yes"/>
      <point x="489" y="-132"/>
      <point x="515" y="-106" type="qcurve" smooth="yes"/>
      <point x="527" y="-92"/>
      <point x="542" y="-92" type="qcurve" smooth="yes"/>
      <point x="560" y="-92"/>
      <point x="560" y="-109" type="qcurve" smooth="yes"/>
      <point x="560" y="-122"/>
      <point x="529" y="-164"/>
      <point x="478" y="-199"/>
    </contour>
  </outline>
</glyph>
<glyph name="Ecaron" format="2">
  <advance height="1000" width="500"/>
  <unicode hex="011A"/>
  <outline>
    <contour>
      <point x="98" y="-16" type="qcurve" smooth="yes"/>
      <point x="80" y="-16"/>
      <point x="53" y="24"/>
      <point x="53" y="37" type="qcurve" smooth="yes"/>
      <point x="53" y="46"/>
      <point x="59" y="73"/>
      <point x="59" y="342" type="qcurve"/>
      <point x="49" y="348"/>
      <point x="35" y="382"/>
      <point x="35" y="393" type="qcurve" smooth="yes"/>
      <point x="35" y="410"/>
      <point x="53" y="410" type="qcurve" smooth="yes"/>
      <point x="59" y="409" type="line"/>
      <point x="59" y="613"/>
      <point x="56" y="684" type="qcurve" smooth="yes"/>
      <point x="56" y="705"/>
      <point x="76" y="705" type="qcurve" smooth="yes"/>
      <point x="95" y="705"/>
      <point x="126" y="692" type="qcurve"/>
      <point x="369" y="714" type="line" smooth="yes"/>
      <point x="399" y="718"/>
      <point x="406" y="718" type="qcurve" smooth="yes"/>
      <point x="426" y="718"/>
      <point x="445" y="677"/>
      <point x="445" y="663" type="qcurve" smooth="yes"/>
      <point x="445" y="640"/>
      <point x="425" y="640" type="qcurve" smooth="yes"/>
      <point x="361" y="640" type="line" smooth="yes"/>
      <point x="346" y="640"/>
      <point x="136" y="622" type="qcurve"/>
      <point x="136" y="410" type="line"/>
      <point x="300" y="423"/>
      <point x="321" y="426" type="qcurve" smooth="yes"/>
      <point x="350" y="430"/>
      <point x="358" y="430" type="qcurve" smooth="yes"/>
      <point x="377" y="430"/>
      <point x="396" y="389"/>
      <point x="396" y="374" type="qcurve" smooth="yes"/>
      <point x="396" y="351"/>
      <point x="377" y="351" type="qcurve" smooth="yes"/>
      <point x="313" y="351" type="line" smooth="yes"/>
      <point x="299" y="351"/>
      <point x="136" y="338" type="qcurve"/>
      <point x="136" y="65" type="line"/>
      <point x="418" y="71"/>
      <point x="436" y="73" type="qcurve" smooth="yes"/>
      <point x="453" y="73"/>
      <point x="473" y="30"/>
      <point x="473" y="15" type="qcurve" smooth="yes"/>
      <point x="473" y="-8"/>
      <point x="454" y="-8" type="qcurve" smooth="yes"/>
      <point x="422" y="-5"/>
      <point x="377" y="-5" type="qcurve" smooth="yes"/>
      <point x="133" y="-9"/>
      <point x="114" y="-16"/>
    </contour>
    <contour>
      <point x="247" y="730" type="qcurve" smooth="yes"/>
      <point x="222" y="730"/>
      <point x="206" y="741" type="qcurve"/>
      <point x="171" y="778"/>
      <point x="97" y="868"/>
      <point x="97" y="880" type="qcurve" smooth="yes"/>
      <point x="97" y="902"/>
      <point x="122" y="902" type="qcurve" smooth="yes"/>
      <point x="134" y="902"/>
      <point x="141" y="894" type="qcurve" smooth="yes"/>
      <point x="164" y="874"/>
      <point x="226" y="832"/>
      <point x="250" y="813" type="qcurve"/>
      <point x="277" y="833"/>
      <point x="336" y="874"/>
      <point x="358" y="894" type="qcurve" smooth="yes"/>
      <point x="366" y="902"/>
      <point x="378" y="902" type="qcurve" smooth="yes"/>
      <point x="402" y="902"/>
      <point x="402" y="880" type="qcurve" smooth="yes"/>
      <point x="402" y="873"/>
      <point x="389" y="855" type="qcurve" smooth="yes"/>
      <point x="351" y="803"/>
      <point x="305" y="757" type="qcurve" smooth="yes"/>
      <point x="293" y="744" type="line" smooth="yes"/>
      <point x="281" y="730"/>
    </contour>
  </outline>
</glyph>
<glyph name="Gbreve" format="2">
  <advance height="1000" width="500"/>
  <unicode hex="011E"/>
  <outline>
    <contour>
      <point x="250" y="-23" type="qcurve" smooth="yes"/>
      <point x="182" y="-23"/>
      <point x="79" y="36"/>
      <point x="25" y="174"/>
      <point x="25" y="295" type="qcurve" smooth="yes"/>
      <point x="25" y="463"/>
      <point x="97" y="589" type="qcurve" smooth="yes"/>
      <point x="174" y="719"/>
      <point x="280" y="719" type="qcurve" smooth="yes"/>
      <point x="360" y="719"/>
      <point x="400" y="679" type="qcurve"/>
      <point x="436" y="650"/>
      <point x="448" y="629" type="qcurve"/>
      <point x="449" y="618" type="line" smooth="yes"/>
      <point x="449" y="602"/>
      <point x="422" y="560"/>
      <point x="406" y="560" type="qcurve" smooth="yes"/>
      <point x="394" y="560"/>
      <point x="388" y="574" type="qcurve" smooth="yes"/>
      <point x="360" y="643"/>
      <point x="280" y="643" type="qcurve" smooth="yes"/>
      <point x="210" y="643"/>
      <point x="104" y="434"/>
      <point x="104" y="285" type="qcurve" smooth="yes"/>
      <point x="104" y="196"/>
      <point x="140" y="93"/>
      <point x="205" y="53"/>
      <point x="250" y="53" type="qcurve" smooth="yes"/>
      <point x="282" y="53"/>
      <point x="342" y="107"/>
      <point x="384" y="217"/>
      <point x="384" y="296" type="qcurve"/>
      <point x="383" y="302" type="line"/>
      <point x="332" y="296"/>
      <point x="273" y="287" type="qcurve" smooth="yes"/>
      <point x="260" y="287"/>
      <point x="245" y="309"/>
      <point x="235" y="336"/>
      <point x="235" y="347" type="qcurve" smooth="yes"/>
      <point x="235" y="367"/>
      <point x="253" y="367" type="qcurve" smooth="yes"/>
      <point x="286" y="367"/>
      <point x="398" y="376" type="qcurve" smooth="yes"/>
      <point x="413" y="380"/>
      <point x="425" y="380" type="qcurve" smooth="yes"/>
      <point x="435" y="380"/>
      <point x="454" y="362"/>
      <point x="466" y="340"/>
      <point x="466" y="331" type="qcurve" smooth="yes"/>
      <point x="466" y="324"/>
      <point x="463" y="315"/>
      <point x="463" y="94" type="qcurve"/>
      <point x="465" y="4" type="line" smooth="yes"/>
      <point x="465" y="-15"/>
      <point x="434" y="-15" type="qcurve" smooth="yes"/>
      <point x="417" y="-15"/>
      <point x="382" y="1"/>
      <point x="382" y="14" type="qcurve" smooth="yes"/>
      <point x="385" y="45" type="line"/>
      <point x="383" y="40"/>
      <point x="303" y="-23"/>
    </contour>
    <contour>
      <point x="275" y="748" type="qcurve" smooth="yes"/>
      <point x="202" y="748"/>
      <point x="117" y="828"/>
      <point x="117" y="848" type="qcurve" smooth="yes"/>
      <point x="117" y="858"/>
      <point x="142" y="880"/>
      <point x="157" y="880" type="qcurve" smooth="yes"/>
      <point x="173" y="880"/>
      <point x="180" y="866" type="qcurve" smooth="yes"/>
      <point x="192" y="844"/>
      <point x="242" y="818"/>
      <point x="273" y="818" type="qcurve" smooth="yes"/>
      <point x="305" y="818"/>
      <point x="355" y="844"/>
      <point x="366" y="866" type="qcurve" smooth="yes"/>
      <point x="373" y="880"/>
      <point x="389" y="880" type="qcurve" smooth="yes"/>
      <point x="404" y="880"/>
      <point x="429" y="858"/>
      <point x="429" y="849" type="qcurve" smooth="yes"/>
      <point x="429" y="830"/>
      <point x="394" y="793" type="qcurve" smooth="yes"/>
      <point x="347" y="748"/>
    </contour>
  </outline>
</glyph>
<glyph name="u0122" format="2">
  <advance width="500" height="500"/>
  <unicode hex="0122"/>
  <outline>
    <contour>
      <point x="250" y="-23" type="qcurve" smooth="yes"/>
      <point x="303" y="-23"/>
      <point x="383" y="40"/>
      <point x="385" y="45" type="qcurve"/>
      <point x="382" y="14" type="line" smooth="yes"/>
      <point x="382" y="1"/>
      <point x="417" y="-15"/>
      <point x="434" y="-15" type="qcurve" smooth="yes"/>
      <point x="465" y="-15"/>
      <point x="465" y="4" type="qcurve" smooth="yes"/>
      <point x="463" y="94" type="line"/>
      <point x="463" y="315"/>
      <point x="466" y="324"/>
      <point x="466" y="331" type="qcurve" smooth="yes"/>
      <point x="466" y="340"/>
      <point x="454" y="362"/>
      <point x="435" y="380"/>
      <point x="425" y="380" type="qcurve" smooth="yes"/>
      <point x="413" y="380"/>
      <point x="398" y="376" type="qcurve" smooth="yes"/>
      <point x="286" y="367"/>
      <point x="253" y="367" type="qcurve" smooth="yes"/>
      <point x="235" y="367"/>
      <point x="235" y="347" type="qcurve" smooth="yes"/>
      <point x="235" y="336"/>
      <point x="245" y="309"/>
      <point x="260" y="287"/>
      <point x="273" y="287" type="qcurve" smooth="yes"/>
      <point x="332" y="296"/>
      <point x="383" y="302" type="qcurve"/>
      <point x="384" y="296" type="line"/>
      <point x="384" y="217"/>
      <point x="342" y="107"/>
      <point x="282" y="53"/>
      <point x="250" y="53" type="qcurve" smooth="yes"/>
      <point x="205" y="53"/>
      <point x="140" y="93"/>
      <point x="104" y="196"/>
      <point x="104" y="285" type="qcurve" smooth="yes"/>
      <point x="104" y="434"/>
      <point x="210" y="643"/>
      <point x="280" y="643" type="qcurve" smooth="yes"/>
      <point x="360" y="643"/>
      <point x="388" y="574" type="qcurve" smooth="yes"/>
      <point x="394" y="560"/>
      <point x="406" y="560" type="qcurve" smooth="yes"/>
      <point x="422" y="560"/>
      <point x="449" y="602"/>
      <point x="449" y="618" type="qcurve" smooth="yes"/>
      <point x="448" y="629" type="line"/>
      <point x="436" y="650"/>
      <point x="400" y="679" type="qcurve"/>
      <point x="360" y="719"/>
      <point x="280" y="719" type="qcurve" smooth="yes"/>
      <point x="174" y="719"/>
      <point x="97" y="589" type="qcurve" smooth="yes"/>
      <point x="25" y="463"/>
      <point x="25" y="295" type="qcurve" smooth="yes"/>
      <point x="25" y="174"/>
      <point x="79" y="36"/>
      <point x="182" y="-23"/>
    </contour>
    <contour>
      <point x="191" y="-240" type="qcurve" smooth="yes"/>
      <point x="198" y="-240"/>
      <point x="204" y="-236" type="qcurve" smooth="yes"/>
      <point x="242" y="-218"/>
      <point x="296" y="-142"/>
      <point x="296" y="-106" type="qcurve" smooth="yes"/>
      <point x="289" y="-31"/>
      <point x="240" y="-31" type="qcurve" smooth="yes"/>
      <point x="218" y="-31"/>
      <point x="184" y="-59"/>
      <point x="184" y="-84" type="qcurve" smooth="yes"/>
      <point x="184" y="-107"/>
      <point x="204" y="-130" type="qcurve" smooth="yes"/>
      <point x="212" y="-142"/>
      <point x="224" y="-142" type="qcurve"/>
      <point x="216" y="-175"/>
      <point x="177" y="-204" type="qcurve" smooth="yes"/>
      <point x="169" y="-211"/>
      <point x="169" y="-220" type="qcurve" smooth="yes"/>
      <point x="169" y="-240"/>
    </contour>
  </outline>
</glyph>
<glyph name="hcircumflex" format="2">
  <advance height="1000" width="500"/>
  <unicode hex="0125"/>
  <outline>
    <contour>
      <point x="132" y="-17" type="qcurve" smooth="yes"/>
      <point x="113" y="-17"/>
      <point x="74" y="1"/>
      <point x="74" y="17" type="qcurve" smooth="yes"/>
      <point x="75" y="115" type="line"/>
      <point x="75" y="590"/>
      <point x="73" y="697" type="qcurve" smooth="yes"/>
      <point x="73" y="713"/>
      <point x="97" y="713" type="qcurve" smooth="yes"/>
      <point x="115" y="713"/>
      <point x="155" y="695"/>
      <point x="155" y="679" type="qcurve" smooth="yes"/>
      <point x="153" y="580"/>
      <point x="153" y="410" type="qcurve"/>
      <point x="164" y="432"/>
      <point x="262" y="491"/>
      <point x="311" y="491" type="qcurve" smooth="yes"/>
      <point x="401" y="491"/>
      <point x="433" y="424" type="qcurve" smooth="yes"/>
      <point x="457" y="376"/>
      <point x="457" y="297" type="qcurve" smooth="yes"/>
      <point x="457" y="105"/>
      <point x="460" y="-1" type="qcurve" smooth="yes"/>
      <point x="460" y="-17"/>
      <point x="436" y="-17" type="qcurve" smooth="yes"/>
      <point x="417" y="-17"/>
      <point x="378" y="1"/>
      <point x="378" y="17" type="qcurve" smooth="yes"/>
      <point x="380" y="34"/>
      <point x="380" y="293" type="qcurve" smooth="yes"/>
      <point x="380" y="352"/>
      <point x="353" y="417"/>
      <point x="315" y="417" type="qcurve" smooth="yes"/>
      <point x="157" y="417"/>
      <point x="155" y="162" type="qcurve"/>
      <point x="153" y="97" type="line" smooth="yes"/>
      <point x="153" y="59"/>
      <point x="156" y="-1" type="qcurve" smooth="yes"/>
      <point x="156" y="-17"/>
    </contour>
    <contour>
      <point x="0" y="726" type="qcurve" smooth="yes"/>
      <point x="-24" y="726"/>
      <point x="-24" y="746" type="qcurve" smooth="yes"/>
      <point x="-24" y="766"/>
      <point x="73" y="872" type="qcurve" smooth="yes"/>
      <point x="84" y="884"/>
      <point x="106" y="889"/>
      <point x="127" y="889" type="qcurve" smooth="yes"/>
      <point x="150" y="889"/>
      <point x="173" y="863"/>
      <point x="190" y="845" type="qcurve" smooth="yes"/>
      <point x="264" y="764"/>
      <point x="264" y="747" type="qcurve" smooth="yes"/>
      <point x="264" y="726"/>
      <point x="240" y="726" type="qcurve" smooth="yes"/>
      <point x="229" y="726"/>
      <point x="196" y="757"/>
      <point x="120" y="811" type="qcurve"/>
      <point x="42" y="754"/>
      <point x="11" y="726"/>
    </contour>
  </outline>
</glyph>
<glyph name="itilde" format="2">
  <advance height="1000" width="500"/>
  <unicode hex="0129"/>
  <outline>
    <contour>
      <point x="107" y="-12" type="qcurve" smooth="yes"/>
      <point x="87" y="-12"/>
      <point x="67" y="30"/>
      <point x="67" y="45" type="qcurve" smooth="yes"/>
      <point x="67" y="69"/>
      <point x="88" y="69" type="qcurve" smooth="yes"/>
      <point x="128" y="68" type="line"/>
      <point x="210" y="69" type="line"/>
      <point x="211" y="110"/>
      <point x="211" y="420" type="qcurve"/>
      <point x="181" y="416"/>
      <point x="135" y="416"/>
      <point x="123" y="415" type="qcurve" smooth="yes"/>
      <point x="104" y="415"/>
      <point x="85" y="459"/>
      <point x="85" y="474" type="qcurve" smooth="yes"/>
      <point x="85" y="497"/>
      <point x="105" y="497" type="qcurve" smooth="yes"/>
      <point x="139" y="491"/>
      <point x="148" y="491" type="qcurve" smooth="yes"/>
      <point x="216" y="491"/>
      <point x="250" y="501" type="qcurve"/>
      <point x="278" y="501"/>
      <point x="293" y="469" type="qcurve" smooth="yes"/>
      <point x="300" y="457"/>
      <point x="300" y="449" type="qcurve" smooth="yes"/>
      <point x="300" y="441"/>
      <point x="294" y="428"/>
      <point x="294" y="416" type="qcurve" smooth="yes"/>
      <point x="294" y="129"/>
      <point x="295" y="70" type="qcurve"/>
      <point x="384" y="70"/>
      <point x="397" y="71" type="qcurve" smooth="yes"/>
      <point x="416" y="71"/>
      <point x="435" y="27"/>
      <point x="435" y="12" type="qcurve" smooth="yes"/>
      <point x="435" y="-11"/>
      <point x="415" y="-11" type="qcurve" smooth="yes"/>
      <point x="380" y="-5"/>
      <point x="304" y="-5" type="qcurve" smooth="yes"/>
      <point x="172" y="-5"/>
    </contour>
    <contour>
      <point x="131" y="582" type="qcurve" smooth="yes"/>
      <point x="122" y="582"/>
      <point x="108" y="595"/>
      <point x="108" y="605" type="qcurve" smooth="yes"/>
      <point x="108" y="620"/>
      <point x="130" y="664"/>
      <point x="172" y="705"/>
      <point x="204" y="705" type="qcurve" smooth="yes"/>
      <point x="232" y="705"/>
      <point x="270" y="681"/>
      <point x="301" y="654"/>
      <point x="311" y="654" type="qcurve" smooth="yes"/>
      <point x="342" y="654"/>
      <point x="359" y="692" type="qcurve" smooth="yes"/>
      <point x="366" y="708"/>
      <point x="382" y="708" type="qcurve" smooth="yes"/>
      <point x="391" y="708"/>
      <point x="404" y="695"/>
      <point x="404" y="685" type="qcurve" smooth="yes"/>
      <point x="404" y="653"/>
      <point x="373" y="615" type="qcurve" smooth="yes"/>
      <point x="348" y="585"/>
      <point x="309" y="585" type="qcurve" smooth="yes"/>
      <point x="279" y="585"/>
      <point x="239" y="611"/>
      <point x="213" y="636"/>
      <point x="202" y="636" type="qcurve" smooth="yes"/>
      <point x="171" y="636"/>
      <point x="154" y="599" type="qcurve" smooth="yes"/>
      <point x="148" y="582"/>
    </contour>
  </outline>
</glyph>
<glyph name="ij" format="2">
  <advance width="500" height="500"/>
  <unicode hex="0133"/>
  <outline>
    <contour>
      <point x="267" y="-168" type="qcurve" smooth="yes"/>
      <point x="313" y="-168"/>
      <point x="337" y="-145" type="qcurve" smooth="yes"/>
      <point x="378" y="-108"/>
      <point x="378" y="-30" type="qcurve" smooth="yes"/>
      <point x="378" y="364"/>
      <point x="380" y="457" type="qcurve" smooth="yes"/>
      <point x="380" y="474"/>
      <point x="338" y="491"/>
      <point x="319" y="491" type="qcurve" smooth="yes"/>
      <point x="295" y="491"/>
      <point x="295" y="475" type="qcurve" smooth="yes"/>
      <point x="298" y="364"/>
      <point x="298" y="-31" type="qcurve" smooth="yes"/>
      <point x="298" y="-94"/>
      <point x="269" y="-94" type="qcurve" smooth="yes"/>
      <point x="238" y="-94"/>
      <point x="211" y="-60"/>
      <point x="197" y="-60" type="qcurve" smooth="yes"/>
      <point x="183" y="-60"/>
      <point x="160" y="-96"/>
      <point x="160" y="-114" type="qcurve" smooth="yes"/>
      <point x="160" y="-135"/>
      <point x="221" y="-168"/>
    </contour>
    <contour>
      <point x="187" y="-16" type="qcurve" smooth="yes"/>
      <point x="210" y="-16"/>
      <point x="210" y="-1" type="qcurve" smooth="yes"/>
      <point x="207" y="105"/>
      <point x="207" y="368" type="qcurve"/>
      <point x="209" y="457" type="line" smooth="yes"/>
      <point x="209" y="473"/>
      <point x="166" y="490"/>
      <point x="147" y="490" type="qcurve" smooth="yes"/>
      <point x="123" y="490"/>
      <point x="123" y="475" type="qcurve" smooth="yes"/>
      <point x="126" y="368"/>
      <point x="126" y="105" type="qcurve"/>
      <point x="124" y="17" type="line" smooth="yes"/>
      <point x="124" y="1"/>
      <point x="168" y="-16"/>
    </contour>
    <contour>
      <point x="168" y="584" type="qcurve" smooth="yes"/>
      <point x="192" y="584"/>
      <point x="221" y="615"/>
      <point x="221" y="638" type="qcurve" smooth="yes"/>
      <point x="221" y="660"/>
      <point x="187" y="704"/>
      <point x="163" y="704" type="qcurve" smooth="yes"/>
      <point x="138" y="704"/>
      <point x="110" y="672"/>
      <point x="110" y="650" type="qcurve" smooth="yes"/>
      <point x="110" y="627"/>
      <point x="144" y="584"/>
    </contour>
    <contour>
      <point x="341" y="584" type="qcurve" smooth="yes"/>
      <point x="365" y="584"/>
      <point x="394" y="615"/>
      <point x="394" y="638" type="qcurve" smooth="yes"/>
      <point x="394" y="660"/>
      <point x="360" y="704"/>
      <point x="336" y="704" type="qcurve" smooth="yes"/>
      <point x="311" y="704"/>
      <point x="283" y="672"/>
      <point x="283" y="650" type="qcurve" smooth="yes"/>
      <point x="283" y="627"/>
      <point x="317" y="584"/>
    </contour>
  </outline>
</glyph>
<glyph name="u0137" format="2">
  <advance width="500" height="500"/>
  <unicode hex="0137"/>
  <outline>
    <contour>
      <point x="429" y="-20" type="qcurve" smooth="yes"/>
      <point x="453" y="-20"/>
      <point x="478" y="5" type="qcurve" smooth="yes"/>
      <point x="488" y="15"/>
      <point x="488" y="22" type="qcurve" smooth="yes"/>
      <point x="488" y="30"/>
      <point x="480" y="35" type="qcurve" smooth="yes"/>
      <point x="458" y="46"/>
      <point x="431" y="72" type="qcurve" smooth="yes"/>
      <point x="404" y="104"/>
      <point x="332" y="186"/>
      <point x="262" y="268"/>
      <point x="239" y="292" type="qcurve"/>
      <point x="381" y="403"/>
      <point x="445" y="444"/>
      <point x="445" y="452" type="qcurve" smooth="yes"/>
      <point x="445" y="470"/>
      <point x="410" y="485" type="qcurve" smooth="yes"/>
      <point x="395" y="490"/>
      <point x="382" y="490" type="qcurve" smooth="yes"/>
      <point x="366" y="490"/>
      <point x="360" y="482" type="qcurve" smooth="yes"/>
      <point x="339" y="458"/>
      <point x="325" y="448" type="qcurve" smooth="yes"/>
      <point x="172" y="330" type="line"/>
      <point x="172" y="590"/>
      <point x="175" y="679" type="qcurve" smooth="yes"/>
      <point x="175" y="695"/>
      <point x="135" y="713"/>
      <point x="116" y="713" type="qcurve" smooth="yes"/>
      <point x="92" y="713"/>
      <point x="92" y="697" type="qcurve" smooth="yes"/>
      <point x="94" y="590"/>
      <point x="94" y="106" type="qcurve"/>
      <point x="92" y="18" type="line" smooth="yes"/>
      <point x="92" y="2"/>
      <point x="133" y="-16"/>
      <point x="152" y="-16" type="qcurve" smooth="yes"/>
      <point x="176" y="-16"/>
      <point x="176" y="0" type="qcurve" smooth="yes"/>
      <point x="172" y="106" type="line"/>
      <point x="172" y="241" type="line"/>
      <point x="183" y="248" type="line"/>
      <point x="220" y="206"/>
      <point x="294" y="116" type="qcurve" smooth="yes"/>
      <point x="405" y="-20"/>
    </contour>
    <contour>
      <point x="214" y="-230" type="qcurve" smooth="yes"/>
      <point x="221" y="-230"/>
      <point x="227" y="-226" type="qcurve" smooth="yes"/>
      <point x="265" y="-208"/>
      <point x="319" y="-132"/>
      <point x="319" y="-96" type="qcurve" smooth="yes"/>
      <point x="312" y="-21"/>
      <point x="263" y="-21" type="qcurve" smooth="yes"/>
      <point x="241" y="-21"/>
      <point x="207" y="-49"/>
      <point x="207" y="-74" type="qcurve" smooth="yes"/>
      <point x="207" y="-97"/>
      <point x="227" y="-120" type="qcurve" smooth="yes"/>
      <point x="235" y="-132"/>
      <point x="247" y="-132" type="qcurve"/>
      <point x="239" y="-165"/>
      <point x="200" y="-194" type="qcurve" smooth="yes"/>
      <point x="192" y="-201"/>
      <point x="192" y="-210" type="qcurve" smooth="yes"/>
      <point x="192" y="-230"/>
    </contour>
  </outline>
</glyph>
<glyph name="kgreenlandic" format="2">
  <advance width="500" height="500"/>
  <unicode hex="0138"/>
  <outline>
    <contour>
      <point x="219" y="273" type="qcurve" smooth="yes"/>
      <point x="221" y="270"/>
      <point x="227" y="264" type="qcurve" smooth="yes"/>
      <point x="235" y="253"/>
      <point x="253" y="230" type="qcurve" smooth="yes"/>
      <point x="368" y="89"/>
      <point x="435" y="26" type="qcurve" smooth="yes"/>
      <point x="441" y="20"/>
      <point x="441" y="13" type="qcurve" smooth="yes"/>
      <point x="441" y="1"/>
      <point x="407" y="-19"/>
      <point x="387" y="-19" type="qcurve" smooth="yes"/>
      <point x="366" y="-19"/>
      <point x="347" y="10"/>
      <point x="333" y="26" type="qcurve" smooth="yes"/>
      <point x="220" y="157"/>
      <point x="167" y="226" type="qcurve"/>
      <point x="165" y="224" type="line"/>
      <point x="165" y="76"/>
      <point x="167" y="-1" type="qcurve" smooth="yes"/>
      <point x="167" y="-20"/>
      <point x="144" y="-20" type="qcurve" smooth="yes"/>
      <point x="127" y="-20"/>
      <point x="92" y="-5"/>
      <point x="92" y="11" type="qcurve" smooth="yes"/>
      <point x="93" y="77" type="line"/>
      <point x="93" y="405"/>
      <point x="91" y="477" type="qcurve" smooth="yes"/>
      <point x="91" y="496"/>
      <point x="114" y="496" type="qcurve" smooth="yes"/>
      <point x="132" y="496"/>
      <point x="167" y="481"/>
      <point x="167" y="465" type="qcurve" smooth="yes"/>
      <point x="165" y="404"/>
      <point x="165" y="312" type="qcurve"/>
      <point x="210" y="351"/>
      <point x="326" y="475"/>
      <point x="342" y="496"/>
      <point x="359" y="496" type="qcurve" smooth="yes"/>
      <point x="374" y="496"/>
      <point x="409" y="473"/>
      <point x="409" y="460" type="qcurve" smooth="yes"/>
      <point x="409" y="453"/>
      <point x="394" y="438"/>
      <point x="369" y="416"/>
      <point x="330" y="377" type="qcurve" smooth="yes"/>
      <point x="290" y="337"/>
    </contour>
  </outline>
</glyph>
<glyph name="lacute" format="2">
  <advance height="1000" width="500"/>
  <unicode hex="013A"/>
  <outline>
    <contour>
      <point x="287" y="-24" type="qcurve" smooth="yes"/>
      <point x="231" y="-24"/>
      <point x="183" y="43"/>
      <point x="183" y="110" type="qcurve" smooth="yes"/>
      <point x="182" y="640" type="line"/>
      <point x="149" y="635"/>
      <point x="98" y="635"/>
      <point x="85" y="634" type="qcurve" smooth="yes"/>
      <point x="69" y="634"/>
      <point x="48" y="677"/>
      <point x="48" y="693" type="qcurve" smooth="yes"/>
      <point x="48" y="716"/>
      <point x="63" y="716" type="qcurve" smooth="yes"/>
      <point x="101" y="710"/>
      <point x="112" y="710" type="qcurve" smooth="yes"/>
      <point x="182" y="710"/>
      <point x="222" y="720" type="qcurve"/>
      <point x="246" y="720"/>
      <point x="261" y="690" type="qcurve" smooth="yes"/>
      <point x="269" y="678"/>
      <point x="269" y="668" type="qcurve" smooth="yes"/>
      <point x="269" y="658"/>
      <point x="262" y="645"/>
      <point x="262" y="108" type="qcurve" smooth="yes"/>
      <point x="262" y="71"/>
      <point x="274" y="52"/>
      <point x="297" y="52" type="qcurve" smooth="yes"/>
      <point x="342" y="52"/>
      <point x="403" y="92" type="qcurve" smooth="yes"/>
      <point x="421" y="106"/>
      <point x="432" y="106" type="qcurve" smooth="yes"/>
      <point x="446" y="106"/>
      <point x="446" y="89" type="qcurve" smooth="yes"/>
      <point x="446" y="77"/>
      <point x="419" y="41"/>
      <point x="374" y="3"/>
      <point x="312" y="-24"/>
    </contour>
    <contour>
      <point x="212" y="735" type="qcurve" smooth="yes"/>
      <point x="202" y="735"/>
      <point x="189" y="750"/>
      <point x="189" y="758" type="qcurve" smooth="yes"/>
      <point x="189" y="781"/>
      <point x="327" y="883" type="qcurve" smooth="yes"/>
      <point x="331" y="886"/>
      <point x="341" y="886" type="qcurve" smooth="yes"/>
      <point x="351" y="886"/>
      <point x="367" y="874" type="qcurve" smooth="yes"/>
      <point x="400" y="848"/>
      <point x="400" y="826" type="qcurve" smooth="yes"/>
      <point x="400" y="817"/>
      <point x="390" y="811" type="qcurve" smooth="yes"/>
      <point x="345" y="792"/>
      <point x="259" y="760"/>
      <point x="221" y="735"/>
    </contour>
  </outline>
</glyph>
<glyph name="u013B" format="2">
  <advance width="500" height="500"/>
  <unicode hex="013B"/>
  <outline>
    <contour>
      <point x="233" y="-230" type="qcurve" smooth="yes"/>
      <point x="212" y="-230"/>
      <point x="212" y="-210" type="qcurve" smooth="yes"/>
      <point x="212" y="-202"/>
      <point x="219" y="-194" type="qcurve" smooth="yes"/>
      <point x="259" y="-164"/>
      <point x="267" y="-132" type="qcurve"/>
      <point x="255" y="-132"/>
      <point x="247" y="-120" type="qcurve" smooth="yes"/>
      <point x="226" y="-97"/>
      <point x="226" y="-74" type="qcurve" smooth="yes"/>
      <point x="226" y="-49"/>
      <point x="260" y="-21"/>
      <point x="283" y="-21" type="qcurve" smooth="yes"/>
      <point x="330" y="-21"/>
      <point x="339" y="-96" type="qcurve"/>
      <point x="339" y="-132"/>
      <point x="284" y="-208"/>
      <point x="246" y="-226" type="qcurve" smooth="yes"/>
      <point x="240" y="-230"/>
    </contour>
    <contour>
      <point x="107" y="-15" type="qcurve"/>
      <point x="80" y="-15"/>
      <point x="65" y="17" type="qcurve" smooth="yes"/>
      <point x="58" y="29"/>
      <point x="58" y="37" type="qcurve" smooth="yes"/>
      <point x="58" y="46"/>
      <point x="64" y="59"/>
      <point x="64" y="70" type="qcurve" smooth="yes"/>
      <point x="64" y="621"/>
      <point x="61" y="678"/>
      <point x="61" y="695" type="qcurve" smooth="yes"/>
      <point x="61" y="711"/>
      <point x="89" y="711" type="qcurve" smooth="yes"/>
      <point x="107" y="711"/>
      <point x="149" y="693"/>
      <point x="149" y="677" type="qcurve" smooth="yes"/>
      <point x="149" y="665"/>
      <point x="147" y="614"/>
      <point x="147" y="66" type="qcurve"/>
      <point x="213" y="70"/>
      <point x="349" y="70" type="qcurve" smooth="yes"/>
      <point x="411" y="70"/>
      <point x="424" y="71" type="qcurve" smooth="yes"/>
      <point x="442" y="71"/>
      <point x="462" y="28"/>
      <point x="462" y="12" type="qcurve" smooth="yes"/>
      <point x="462" y="-11"/>
      <point x="442" y="-11" type="qcurve" smooth="yes"/>
      <point x="408" y="-5"/>
      <point x="331" y="-5" type="qcurve" smooth="yes"/>
      <point x="142" y="-5"/>
    </contour>
  </outline>
</glyph>
<glyph name="Lcaron" format="2">
  <advance height="1000" width="500"/>
  <unicode hex="013D"/>
  <outline>
    <contour>
      <point x="107" y="-15" type="qcurve"/>
      <point x="80" y="-15"/>
      <point x="65" y="17" type="qcurve" smooth="yes"/>
      <point x="58" y="29"/>
      <point x="58" y="37" type="qcurve" smooth="yes"/>
      <point x="58" y="46"/>
      <point x="64" y="59"/>
      <point x="64" y="70" type="qcurve" smooth="yes"/>
      <point x="64" y="621"/>
      <point x="61" y="678"/>
      <point x="61" y="695" type="qcurve" smooth="yes"/>
      <point x="61" y="711"/>
      <point x="89" y="711" type="qcurve" smooth="yes"/>
      <point x="107" y="711"/>
      <point x="149" y="693"/>
      <point x="149" y="677" type="qcurve" smooth="yes"/>
      <point x="149" y="665"/>
      <point x="147" y="614"/>
      <point x="147" y="66" type="qcurve"/>
      <point x="213" y="70"/>
      <point x="349" y="70" type="qcurve" smooth="yes"/>
      <point x="411" y="70"/>
      <point x="424" y="71" type="qcurve" smooth="yes"/>
      <point x="442" y="71"/>
      <point x="462" y="28"/>
      <point x="462" y="12" type="qcurve" smooth="yes"/>
      <point x="462" y="-11"/>
      <point x="442" y="-11" type="qcurve" smooth="yes"/>
      <point x="408" y="-5"/>
      <point x="331" y="-5" type="qcurve" smooth="yes"/>
      <point x="142" y="-5"/>
    </contour>
    <contour>
      <point x="339" y="475" type="qcurve" smooth="yes"/>
      <point x="308" y="475"/>
      <point x="305" y="493" type="qcurve" smooth="yes"/>
      <point x="301" y="670" type="line" smooth="yes"/>
      <point x="301" y="682"/>
      <point x="326" y="694"/>
      <point x="338" y="694" type="qcurve" smooth="yes"/>
      <point x="375" y="694"/>
      <point x="375" y="671" type="qcurve" smooth="yes"/>
      <point x="370" y="494" type="line" smooth="yes"/>
      <point x="370" y="475"/>
    </contour>
  </outline>
</glyph>
<glyph name="Ldot" format="2">
  <advance width="500" height="500"/>
  <unicode hex="013F"/>
  <outline>
    <contour>
      <point x="367" y="386" type="qcurve" smooth="yes"/>
      <point x="343" y="386"/>
      <point x="309" y="432"/>
      <point x="309" y="454" type="qcurve" smooth="yes"/>
      <point x="309" y="476"/>
      <point x="334" y="507"/>
      <point x="358" y="507" type="qcurve" smooth="yes"/>
      <point x="383" y="507"/>
      <point x="418" y="463"/>
      <point x="418" y="440" type="qcurve" smooth="yes"/>
      <point x="418" y="417"/>
      <point x="392" y="386"/>
    </contour>
    <contour>
      <point x="107" y="-15" type="qcurve"/>
      <point x="80" y="-15"/>
      <point x="65" y="17" type="qcurve" smooth="yes"/>
      <point x="58" y="29"/>
      <point x="58" y="37" type="qcurve" smooth="yes"/>
      <point x="58" y="46"/>
      <point x="64" y="59"/>
      <point x="64" y="70" type="qcurve" smooth="yes"/>
      <point x="64" y="621"/>
      <point x="61" y="678"/>
      <point x="61" y="695" type="qcurve" smooth="yes"/>
      <point x="61" y="711"/>
      <point x="89" y="711" type="qcurve" smooth="yes"/>
      <point x="107" y="711"/>
      <point x="149" y="693"/>
      <point x="149" y="677" type="qcurve" smooth="yes"/>
      <point x="149" y="665"/>
      <point x="147" y="614"/>
      <point x="147" y="66" type="qcurve"/>
      <point x="213" y="70"/>
      <point x="349" y="70" type="qcurve" smooth="yes"/>
      <point x="411" y="70"/>
      <point x="424" y="71" type="qcurve" smooth="yes"/>
      <point x="442" y="71"/>
      <point x="462" y="28"/>
      <point x="462" y="12" type="qcurve" smooth="yes"/>
      <point x="462" y="-11"/>
      <point x="442" y="-11" type="qcurve" smooth="yes"/>
      <point x="408" y="-5"/>
      <point x="331" y="-5" type="qcurve" smooth="yes"/>
      <point x="142" y="-5"/>
    </contour>
  </outline>
</glyph>
<glyph name="ldot" format="2">
  <advance height="1000" width="500"/>
  <unicode hex="0140"/>
  <outline>
    <contour>
      <point x="287" y="-24" type="qcurve" smooth="yes"/>
      <point x="312" y="-24"/>
      <point x="374" y="3"/>
      <point x="419" y="41"/>
      <point x="446" y="77"/>
      <point x="446" y="89" type="qcurve" smooth="yes"/>
      <point x="446" y="106"/>
      <point x="432" y="106" type="qcurve" smooth="yes"/>
      <point x="421" y="106"/>
      <point x="403" y="92" type="qcurve" smooth="yes"/>
      <point x="342" y="52"/>
      <point x="297" y="52" type="qcurve" smooth="yes"/>
      <point x="274" y="52"/>
      <point x="262" y="71"/>
      <point x="262" y="108" type="qcurve" smooth="yes"/>
      <point x="262" y="645"/>
      <point x="269" y="658"/>
      <point x="269" y="668" type="qcurve" smooth="yes"/>
      <point x="269" y="678"/>
      <point x="261" y="690" type="qcurve" smooth="yes"/>
      <point x="246" y="720"/>
      <point x="222" y="720" type="qcurve"/>
      <point x="182" y="710"/>
      <point x="112" y="710" type="qcurve" smooth="yes"/>
      <point x="101" y="710"/>
      <point x="63" y="716" type="qcurve" smooth="yes"/>
      <point x="48" y="716"/>
      <point x="48" y="693" type="qcurve" smooth="yes"/>
      <point x="48" y="677"/>
      <point x="69" y="634"/>
      <point x="85" y="634" type="qcurve" smooth="yes"/>
      <point x="98" y="635"/>
      <point x="149" y="635"/>
      <point x="182" y="640" type="qcurve"/>
      <point x="183" y="110" type="line" smooth="yes"/>
      <point x="183" y="43"/>
      <point x="231" y="-24"/>
    </contour>
    <contour>
      <point x="344" y="386" type="qcurve" smooth="yes"/>
      <point x="369" y="386"/>
      <point x="395" y="417"/>
      <point x="395" y="440" type="qcurve" smooth="yes"/>
      <point x="395" y="463"/>
      <point x="360" y="507"/>
      <point x="336" y="507" type="qcurve" smooth="yes"/>
      <point x="311" y="507"/>
      <point x="286" y="476"/>
      <point x="286" y="454" type="qcurve" smooth="yes"/>
      <point x="286" y="432"/>
      <point x="320" y="386"/>
    </contour>
  </outline>
</glyph>
<glyph name="Lslash" format="2">
  <advance height="1000" width="500"/>
  <unicode hex="0141"/>
  <outline>
    <contour>
      <point x="107" y="-15" type="qcurve"/>
      <point x="80" y="-15"/>
      <point x="65" y="17" type="qcurve" smooth="yes"/>
      <point x="58" y="29"/>
      <point x="58" y="37" type="qcurve" smooth="yes"/>
      <point x="58" y="46"/>
      <point x="64" y="59"/>
      <point x="64" y="214" type="qcurve"/>
      <point x="68" y="216"/>
      <point x="68" y="217" type="qcurve" smooth="yes"/>
      <point x="68" y="218"/>
      <point x="65" y="218" type="qcurve" smooth="yes"/>
      <point x="50" y="218"/>
      <point x="25" y="250"/>
      <point x="25" y="264" type="qcurve" smooth="yes"/>
      <point x="25" y="275"/>
      <point x="34" y="283" type="qcurve" smooth="yes"/>
      <point x="64" y="302" type="line"/>
      <point x="64" y="627"/>
      <point x="62" y="695" type="qcurve" smooth="yes"/>
      <point x="62" y="711"/>
      <point x="90" y="711" type="qcurve" smooth="yes"/>
      <point x="107" y="711"/>
      <point x="149" y="693"/>
      <point x="149" y="677" type="qcurve" smooth="yes"/>
      <point x="147" y="603"/>
      <point x="147" y="363" type="qcurve"/>
      <point x="251" y="442"/>
      <point x="266" y="453"/>
      <point x="273" y="453" type="qcurve" smooth="yes"/>
      <point x="290" y="453"/>
      <point x="315" y="422"/>
      <point x="315" y="408" type="qcurve" smooth="yes"/>
      <point x="315" y="396"/>
      <point x="305" y="390" type="qcurve" smooth="yes"/>
      <point x="247" y="350"/>
      <point x="147" y="274" type="qcurve"/>
      <point x="147" y="66" type="line"/>
      <point x="213" y="70"/>
      <point x="349" y="70" type="qcurve" smooth="yes"/>
      <point x="411" y="70"/>
      <point x="424" y="71" type="qcurve" smooth="yes"/>
      <point x="443" y="71"/>
      <point x="462" y="28"/>
      <point x="462" y="12" type="qcurve" smooth="yes"/>
      <point x="462" y="-11"/>
      <point x="442" y="-11" type="qcurve" smooth="yes"/>
      <point x="408" y="-5"/>
      <point x="332" y="-5" type="qcurve" smooth="yes"/>
      <point x="142" y="-5"/>
    </contour>
  </outline>
</glyph>
<glyph name="lslash" format="2">
  <advance height="1000" width="500"/>
  <unicode hex="0142"/>
  <outline>
    <contour>
      <point x="287" y="-24" type="qcurve" smooth="yes"/>
      <point x="231" y="-24"/>
      <point x="183" y="43"/>
      <point x="183" y="110" type="qcurve" smooth="yes"/>
      <point x="183" y="277" type="line"/>
      <point x="150" y="249" type="line"/>
      <point x="135" y="231"/>
      <point x="121" y="231" type="qcurve" smooth="yes"/>
      <point x="104" y="231"/>
      <point x="75" y="262"/>
      <point x="75" y="276" type="qcurve" smooth="yes"/>
      <point x="75" y="286"/>
      <point x="85" y="294" type="qcurve" smooth="yes"/>
      <point x="183" y="372" type="line"/>
      <point x="182" y="640" type="line"/>
      <point x="149" y="635"/>
      <point x="98" y="635"/>
      <point x="85" y="634" type="qcurve" smooth="yes"/>
      <point x="69" y="634"/>
      <point x="48" y="677"/>
      <point x="48" y="693" type="qcurve" smooth="yes"/>
      <point x="48" y="716"/>
      <point x="63" y="716" type="qcurve" smooth="yes"/>
      <point x="101" y="710"/>
      <point x="112" y="710" type="qcurve" smooth="yes"/>
      <point x="182" y="710"/>
      <point x="222" y="720" type="qcurve"/>
      <point x="246" y="720"/>
      <point x="261" y="690" type="qcurve" smooth="yes"/>
      <point x="269" y="678"/>
      <point x="269" y="668" type="qcurve" smooth="yes"/>
      <point x="269" y="658"/>
      <point x="262" y="645"/>
      <point x="262" y="441" type="qcurve"/>
      <point x="290" y="466" type="line" smooth="yes"/>
      <point x="295" y="473"/>
      <point x="307" y="473" type="qcurve" smooth="yes"/>
      <point x="324" y="473"/>
      <point x="353" y="442"/>
      <point x="353" y="428" type="qcurve" smooth="yes"/>
      <point x="353" y="419"/>
      <point x="345" y="412" type="qcurve" smooth="yes"/>
      <point x="262" y="343" type="line"/>
      <point x="262" y="108" type="line" smooth="yes"/>
      <point x="262" y="71"/>
      <point x="274" y="52"/>
      <point x="297" y="52" type="qcurve" smooth="yes"/>
      <point x="342" y="52"/>
      <point x="403" y="92" type="qcurve" smooth="yes"/>
      <point x="421" y="106"/>
      <point x="432" y="106" type="qcurve" smooth="yes"/>
      <point x="446" y="106"/>
      <point x="446" y="89" type="qcurve" smooth="yes"/>
      <point x="446" y="77"/>
      <point x="419" y="41"/>
      <point x="374" y="3"/>
      <point x="312" y="-24"/>
    </contour>
  </outline>
</glyph>
<glyph name="nacute" format="2">
  <advance height="1000" width="500"/>
  <unicode hex="0144"/>
  <outline>
    <contour>
      <point x="116" y="-17" type="qcurve" smooth="yes"/>
      <point x="97" y="-17"/>
      <point x="58" y="1"/>
      <point x="58" y="17" type="qcurve" smooth="yes"/>
      <point x="60" y="115" type="line"/>
      <point x="60" y="364"/>
      <point x="57" y="471" type="qcurve" smooth="yes"/>
      <point x="57" y="487"/>
      <point x="81" y="487" type="qcurve" smooth="yes"/>
      <point x="100" y="487"/>
      <point x="139" y="469"/>
      <point x="139" y="453" type="qcurve" smooth="yes"/>
      <point x="139" y="439" type="line"/>
      <point x="137" y="409" type="line"/>
      <point x="150" y="432"/>
      <point x="246" y="491"/>
      <point x="296" y="491" type="qcurve" smooth="yes"/>
      <point x="385" y="491"/>
      <point x="417" y="424" type="qcurve" smooth="yes"/>
      <point x="441" y="376"/>
      <point x="441" y="297" type="qcurve" smooth="yes"/>
      <point x="441" y="105"/>
      <point x="444" y="-1" type="qcurve" smooth="yes"/>
      <point x="444" y="-17"/>
      <point x="420" y="-17" type="qcurve" smooth="yes"/>
      <point x="401" y="-17"/>
      <point x="362" y="1"/>
      <point x="362" y="17" type="qcurve" smooth="yes"/>
      <point x="364" y="34"/>
      <point x="364" y="293" type="qcurve" smooth="yes"/>
      <point x="364" y="352"/>
      <point x="337" y="417"/>
      <point x="299" y="417" type="qcurve" smooth="yes"/>
      <point x="142" y="417"/>
      <point x="139" y="162" type="qcurve"/>
      <point x="137" y="97" type="line" smooth="yes"/>
      <point x="137" y="59"/>
      <point x="140" y="-1" type="qcurve" smooth="yes"/>
      <point x="140" y="-17"/>
    </contour>
    <contour>
      <point x="157" y="568" type="qcurve" smooth="yes"/>
      <point x="147" y="568"/>
      <point x="134" y="583"/>
      <point x="134" y="591" type="qcurve" smooth="yes"/>
      <point x="134" y="614"/>
      <point x="273" y="716" type="qcurve" smooth="yes"/>
      <point x="277" y="719"/>
      <point x="287" y="719" type="qcurve" smooth="yes"/>
      <point x="297" y="719"/>
      <point x="311" y="708" type="qcurve" smooth="yes"/>
      <point x="346" y="681"/>
      <point x="346" y="659" type="qcurve" smooth="yes"/>
      <point x="346" y="650"/>
      <point x="336" y="644" type="qcurve" smooth="yes"/>
      <point x="291" y="625"/>
      <point x="205" y="593"/>
      <point x="167" y="568"/>
    </contour>
  </outline>
</glyph>
